<svg xmlns="http://www.w3.org/2000/svg" xmlns:xlink="http://www.w3.org/1999/xlink" xmlns:lucid="lucid" width="881" height="1357.67"><g transform="translate(-179.49999999853904 -4002.8333333310707)" lucid:page-tab-id="0_0"><path d="M0 3776.5h1870.87v2581.67H0z" fill="#fff"/><path d="M180 4009.33a6 6 0 0 1 6-6h868a6 6 0 0 1 6 6V5354a6 6 0 0 1-6 6H186a6 6 0 0 1-6-6z" stroke="#3a414a" fill-opacity="0"/><path d="M280 4069.33a6 6 0 0 1 6-6h228a6 6 0 0 1 6 6v159a6 6 0 0 1-6 6H286a6 6 0 0 1-6-6z" stroke="#3a414a" fill="#fff"/><path d="M280 4106h240m-240 64.17h240" stroke="#3a414a" fill="none"/><use xlink:href="#a" transform="matrix(1,0,0,1,288,4071.333333333334) translate(75.61111111111111 17.944444444444443)"/><path d="M280 4429.33a6 6 0 0 1 6-6h228a6 6 0 0 1 6 6v159a6 6 0 0 1-6 6H286a6 6 0 0 1-6-6z" stroke="#3a414a" fill="#fff"/><path d="M280 4466h240m-240 64.17h240" stroke="#3a414a" fill="none"/><use xlink:href="#b" transform="matrix(1,0,0,1,288,4431.333333333334) translate(68.26543209876543 17.944444444444443)"/><path d="M720 4069.33a6 6 0 0 1 6-6h228a6 6 0 0 1 6 6v159a6 6 0 0 1-6 6H726a6 6 0 0 1-6-6z" stroke="#3a414a" fill="#fff"/><path d="M720 4106h240m-240 64.17h240" stroke="#3a414a" fill="none"/><use xlink:href="#c" transform="matrix(1,0,0,1,728,4071.333333333334) translate(60.85802469135802 17.944444444444443)"/><use xlink:href="#d" transform="matrix(1,0,0,1,732,4178.166666666668) translate(0 28.944444444444443)"/><path d="M720 4429.33a6 6 0 0 1 6-6h228a6 6 0 0 1 6 6v159a6 6 0 0 1-6 6H726a6 6 0 0 1-6-6z" stroke="#3a414a" fill="#fff"/><path d="M720 4466h240m-240 64.17h240" stroke="#3a414a" fill="none"/><use xlink:href="#e" transform="matrix(1,0,0,1,728,4431.333333333334) translate(15.85802469135804 17.944444444444443)"/><path d="M551.63 4148.83h147.25" stroke="#3a414a" stroke-width="3" fill="none"/><path d="M522.62 4148.83l14.85-14.85 15.15 14.85-15.15 14.85zM714.65 4148.83l-14.27 4.64v-9.27z" stroke="#3a414a" stroke-width="3" fill="#3a414a"/><path d="M840 4421.33v-165.88" stroke="#3a414a" stroke-width="3" fill="none"/><path d="M841.5 4422.83h-3v-1.53h3z" stroke="#3a414a" stroke-width=".05" fill="#3a414a"/><path d="M840 4239.7l4.63 14.25h-9.26z" stroke="#3a414a" stroke-width="3" fill="#3a414a"/><path d="M718 4508.83H541.12" stroke="#3a414a" stroke-width="3" fill="none"/><path d="M719.5 4510.33h-1.54v-3h1.54z" stroke="#3a414a" stroke-width=".05" fill="#3a414a"/><path d="M525.35 4508.83l14.27-4.63v9.27z" stroke="#3a414a" stroke-width="3" fill="#3a414a"/><path d="M720 4009.33a6 6 0 0 1 6-6h228a6 6 0 0 1 6 6v48a6 6 0 0 1-6 6H726a6 6 0 0 1-6-6z" stroke="#000" stroke-opacity="0" stroke-width="3" fill="#fff" fill-opacity="0"/><use xlink:href="#f" transform="matrix(1,0,0,1,725,4008.333333333334) translate(71.82098765432099 30.27777777777778)"/><path d="M280 4766a6 6 0 0 1 6-6h228a6 6 0 0 1 6 6v159a6 6 0 0 1-6 6H286a6 6 0 0 1-6-6z" stroke="#3a414a" fill="#fff"/><path d="M280 4802.67h240m-240 64.16h240" stroke="#3a414a" fill="none"/><use xlink:href="#g" transform="matrix(1,0,0,1,288,4768) translate(79.90123456790124 17.944444444444443)"/><use xlink:href="#h" transform="matrix(1,0,0,1,292,4874.833333333334) translate(0 28.944444444444443)"/><path d="M280 5126a6 6 0 0 1 6-6h228a6 6 0 0 1 6 6v159a6 6 0 0 1-6 6H286a6 6 0 0 1-6-6z" stroke="#3a414a" fill="#fff"/><path d="M280 5162.67h240m-240 64.16h240" stroke="#3a414a" fill="none"/><use xlink:href="#i" transform="matrix(1,0,0,1,288,5128) translate(26.96913580246914 17.944444444444443)"/><use xlink:href="#j" transform="matrix(1,0,0,1,292,5234.833333333334) translate(0 28.944444444444443)"/><path d="M720 4766a6 6 0 0 1 6-6h228a6 6 0 0 1 6 6v159a6 6 0 0 1-6 6H726a6 6 0 0 1-6-6z" stroke="#3a414a" fill="#fff"/><path d="M720 4802.67h240m-240 64.16h240" stroke="#3a414a" fill="none"/><use xlink:href="#c" transform="matrix(1,0,0,1,728,4768) translate(60.85802469135802 17.944444444444443)"/><use xlink:href="#d" transform="matrix(1,0,0,1,732,4874.833333333334) translate(0 28.944444444444443)"/><path d="M720 5126a6 6 0 0 1 6-6h228a6 6 0 0 1 6 6v159a6 6 0 0 1-6 6H726a6 6 0 0 1-6-6z" stroke="#3a414a" fill="#fff"/><path d="M720 5162.67h240m-240 64.16h240" stroke="#3a414a" fill="none"/><use xlink:href="#k" transform="matrix(1,0,0,1,728,5128) translate(44.19135802469137 17.944444444444443)"/><use xlink:href="#l" transform="matrix(1,0,0,1,732,5234.833333333334) translate(0 28.944444444444443)"/><path d="M551.63 4845.5h147.25" stroke="#3a414a" stroke-width="3" fill="none"/><path d="M522.62 4845.5l14.85-14.85 15.15 14.85-15.15 14.85zM714.65 4845.5l-14.27 4.64v-9.28z" stroke="#3a414a" stroke-width="3" fill="#3a414a"/><path d="M840 5118v-165.88" stroke="#3a414a" stroke-width="3" fill="none"/><path d="M841.5 5119.5h-3v-1.54h3z" stroke="#3a414a" stroke-width=".05" fill="#3a414a"/><path d="M840 4936.35l4.63 14.27h-9.26z" stroke="#3a414a" stroke-width="3" fill="#3a414a"/><path d="M718 5205.5H541.12" stroke="#3a414a" stroke-width="3" fill="none"/><path d="M719.5 5207h-1.54v-3h1.54z" stroke="#3a414a" stroke-width=".05" fill="#3a414a"/><path d="M525.35 5205.5l14.27-4.64v9.28z" stroke="#3a414a" stroke-width="3" fill="#3a414a"/><path d="M720 4706a6 6 0 0 1 6-6h228a6 6 0 0 1 6 6v48a6 6 0 0 1-6 6H726a6 6 0 0 1-6-6z" stroke="#000" stroke-opacity="0" stroke-width="3" fill="#fff" fill-opacity="0"/><use xlink:href="#f" transform="matrix(1,0,0,1,725,4705) translate(71.82098765432099 30.27777777777778)"/><path d="M800 5062.67a6 6 0 0 1 6-6h228a6 6 0 0 1 6 6v48a6 6 0 0 1-6 6H806a6 6 0 0 1-6-6z" stroke="#000" stroke-opacity="0" stroke-width="3" fill="#fff" fill-opacity="0"/><use xlink:href="#m" transform="matrix(1,0,0,1,805,5061.666666666666) translate(57.68518518518518 30.27777777777778)"/><path d="M220.75 5025.5a.75.75 0 0 1 .75-.75h767a.75.75 0 0 1 .75.75.75.75 0 0 1-.75.75h-767a.75.75 0 0 1-.75-.75z" fill="none"/><path d="M221.5 5025.5c0 .4-.34.75-.75.75-.4 0-.75-.34-.75-.75 0-.4.34-.75.75-.75.4 0 .75.34.75.75zm6.74-.75c0 .4-.33.75-.75.75s-.76-.34-.76-.75c0-.4.34-.75.75-.75.4 0 .74.34.74.75zm6 0c0 .4-.34.75-.76.75-.4 0-.75-.34-.75-.75 0-.4.34-.75.75-.75.42 0 .75.34.75.75zm6 0c0 .4-.35.75-.76.75-.42 0-.75-.34-.75-.75 0-.4.33-.75.75-.75.4 0 .75.34.75.75zm5.98 0c0 .4-.34.75-.75.75-.4 0-.75-.34-.75-.75 0-.4.34-.75.75-.75.4 0 .75.34.75.75zm6 0c0 .4-.34.75-.76.75-.4 0-.75-.34-.75-.75 0-.4.35-.75.76-.75.4 0 .75.34.75.75zm5.98 0c0 .4-.33.75-.75.75-.4 0-.75-.34-.75-.75 0-.4.34-.75.75-.75.42 0 .75.34.75.75zm6 0c0 .4-.34.75-.75.75-.42 0-.75-.34-.75-.75 0-.4.33-.75.75-.75.4 0 .75.34.75.75zm6 0c0 .4-.35.75-.76.75-.42 0-.75-.34-.75-.75 0-.4.32-.75.74-.75.4 0 .75.34.75.75zm5.98 0c0 .4-.34.75-.75.75-.42 0-.75-.34-.75-.75 0-.4.33-.75.75-.75.4 0 .75.34.75.75zm6 0c0 .4-.34.75-.76.75-.4 0-.75-.34-.75-.75 0-.4.34-.75.75-.75.42 0 .75.34.75.75zm5.98 0c0 .4-.33.75-.75.75-.4 0-.74-.34-.74-.75 0-.4.34-.75.75-.75.43 0 .76.34.76.75zm6 0c0 .4-.34.75-.75.75-.4 0-.74-.34-.74-.75 0-.4.33-.75.75-.75s.76.34.76.75zm6 0c0 .4-.35.75-.76.75-.42 0-.75-.34-.75-.75 0-.4.33-.75.75-.75.4 0 .75.34.75.75zm5.98 0c0 .4-.33.75-.75.75s-.76-.34-.76-.75c0-.4.34-.75.75-.75.4 0 .74.34.74.75zm6 0c0 .4-.34.75-.76.75-.4 0-.75-.34-.75-.75 0-.4.34-.75.75-.75.42 0 .75.34.75.75zm6 0c0 .4-.35.75-.76.75-.42 0-.75-.34-.75-.75 0-.4.33-.75.75-.75.4 0 .75.34.75.75zm5.98 0c0 .4-.34.75-.75.75-.42 0-.75-.34-.75-.75 0-.4.33-.75.75-.75.4 0 .75.34.75.75zm6 0c0 .4-.35.75-.76.75-.42 0-.75-.34-.75-.75 0-.4.34-.75.76-.75.4 0 .75.34.75.75zm5.98 0c0 .4-.33.75-.75.75-.4 0-.75-.34-.75-.75 0-.4.34-.75.75-.75.42 0 .75.34.75.75zm6 0c0 .4-.34.75-.76.75-.4 0-.75-.34-.75-.75 0-.4.33-.75.74-.75.42 0 .75.34.75.75zm6 0c0 .4-.35.75-.76.75-.42 0-.75-.34-.75-.75 0-.4.32-.75.74-.75.4 0 .75.34.75.75zm5.98 0c0 .4-.34.75-.75.75-.42 0-.75-.34-.75-.75 0-.4.33-.75.75-.75.4 0 .75.34.75.75zm6 0c0 .4-.34.75-.76.75-.4 0-.75-.34-.75-.75 0-.4.34-.75.75-.75.42 0 .75.34.75.75zm5.98 0c0 .4-.33.75-.75.75-.4 0-.74-.34-.74-.75 0-.4.34-.75.75-.75.43 0 .76.34.76.75zm6 0c0 .4-.34.75-.75.75-.4 0-.75-.34-.75-.75 0-.4.34-.75.75-.75.42 0 .75.34.75.75zm6 0c0 .4-.35.75-.76.75-.42 0-.75-.34-.75-.75 0-.4.33-.75.75-.75.4 0 .75.34.75.75zm5.98 0c0 .4-.34.75-.75.75-.43 0-.76-.34-.76-.75 0-.4.33-.75.75-.75.4 0 .74.34.74.75zm6 0c0 .4-.35.75-.76.75-.4 0-.75-.34-.75-.75 0-.4.34-.75.75-.75.42 0 .75.34.75.75zm5.98 0c0 .4-.33.75-.75.75-.4 0-.75-.34-.75-.75 0-.4.34-.75.75-.75.42 0 .75.34.75.75zm6 0c0 .4-.34.75-.75.75-.42 0-.75-.34-.75-.75 0-.4.33-.75.75-.75.4 0 .75.34.75.75zm6 0c0 .4-.35.75-.76.75-.42 0-.75-.34-.75-.75 0-.4.34-.75.76-.75.4 0 .75.34.75.75zm5.98 0c0 .4-.34.75-.75.75-.4 0-.75-.34-.75-.75 0-.4.34-.75.75-.75.4 0 .75.34.75.75zm6 0c0 .4-.34.75-.76.75-.4 0-.75-.34-.75-.75 0-.4.33-.75.74-.75.42 0 .75.34.75.75zm5.98 0c0 .4-.33.75-.75.75-.4 0-.75-.34-.75-.75 0-.4.34-.75.75-.75.42 0 .75.34.75.75zm6 0c0 .4-.34.75-.75.75-.42 0-.75-.34-.75-.75 0-.4.33-.75.75-.75.4 0 .75.34.75.75zm6 0c0 .4-.35.75-.76.75-.42 0-.75-.34-.75-.75 0-.4.33-.75.75-.75.4 0 .75.34.75.75zm5.98 0c0 .4-.33.75-.75.75-.4 0-.74-.34-.74-.75 0-.4.34-.75.75-.75.43 0 .76.34.76.75zm6 0c0 .4-.34.75-.76.75-.4 0-.75-.34-.75-.75 0-.4.34-.75.75-.75.42 0 .75.34.75.75zm6 0c0 .4-.35.75-.76.75-.42 0-.75-.34-.75-.75 0-.4.33-.75.75-.75.4 0 .75.34.75.75zm5.98 0c0 .4-.34.75-.75.75-.43 0-.76-.34-.76-.75 0-.4.33-.75.75-.75.4 0 .74.34.74.75zm6 0c0 .4-.35.75-.76.75-.42 0-.75-.34-.75-.75 0-.4.33-.75.75-.75.4 0 .75.34.75.75zm5.98 0c0 .4-.33.75-.75.75-.4 0-.75-.34-.75-.75 0-.4.34-.75.75-.75.42 0 .75.34.75.75zm6 0c0 .4-.34.75-.76.75-.4 0-.75-.34-.75-.75 0-.4.35-.75.76-.75.42 0 .75.34.75.75zm6 0c0 .4-.35.75-.76.75-.42 0-.75-.34-.75-.75 0-.4.34-.75.76-.75.4 0 .75.34.75.75zm5.98 0c0 .4-.34.75-.75.75-.42 0-.75-.34-.75-.75 0-.4.33-.75.75-.75.4 0 .75.34.75.75zm6 0c0 .4-.34.75-.76.75-.4 0-.75-.34-.75-.75 0-.4.33-.75.74-.75.42 0 .75.34.75.75zm5.98 0c0 .4-.33.75-.75.75-.4 0-.75-.34-.75-.75 0-.4.34-.75.75-.75.42 0 .75.34.75.75zm6 0c0 .4-.34.75-.75.75-.42 0-.75-.34-.75-.75 0-.4.33-.75.75-.75.4 0 .75.34.75.75zm6 0c0 .4-.35.75-.76.75-.42 0-.75-.34-.75-.75 0-.4.33-.75.75-.75.4 0 .75.34.75.75zm5.98 0c0 .4-.34.75-.75.75-.4 0-.74-.34-.74-.75 0-.4.34-.75.75-.75.42 0 .76.34.76.75zm6 0c0 .4-.34.75-.76.75-.4 0-.75-.34-.75-.75 0-.4.34-.75.75-.75.42 0 .75.34.75.75zm5.98 0c0 .4-.33.75-.75.75s-.76-.34-.76-.75c0-.4.34-.75.75-.75.4 0 .74.34.74.75zm6 0c0 .4-.34.75-.75.75-.43 0-.76-.34-.76-.75 0-.4.33-.75.75-.75.4 0 .74.34.74.75zm6 0c0 .4-.35.75-.76.75-.42 0-.75-.34-.75-.75 0-.4.33-.75.75-.75.4 0 .75.34.75.75zm5.98 0c0 .4-.34.75-.75.75-.4 0-.75-.34-.75-.75 0-.4.34-.75.75-.75.4 0 .75.34.75.75zm6 0c0 .4-.34.75-.76.75-.4 0-.75-.34-.75-.75 0-.4.35-.75.76-.75.42 0 .75.34.75.75zm5.98 0c0 .4-.33.75-.75.75-.4 0-.75-.34-.75-.75 0-.4.34-.75.75-.75.42 0 .75.34.75.75zm6 0c0 .4-.34.75-.75.75-.42 0-.75-.34-.75-.75 0-.4.33-.75.75-.75.4 0 .75.34.75.75zm6 0c0 .4-.35.75-.76.75-.4 0-.75-.34-.75-.75 0-.4.33-.75.74-.75.4 0 .75.34.75.75zm5.98 0c0 .4-.33.75-.75.75-.4 0-.75-.34-.75-.75 0-.4.34-.75.75-.75.42 0 .75.34.75.75zm6 0c0 .4-.34.75-.76.75-.4 0-.75-.34-.75-.75 0-.4.34-.75.75-.75.42 0 .75.34.75.75zm6 0c0 .4-.35.75-.76.75-.42 0-.75-.34-.75-.75 0-.4.33-.75.75-.75.4 0 .75.34.75.75zm5.98 0c0 .4-.34.75-.75.75-.4 0-.74-.34-.74-.75 0-.4.33-.75.75-.75s.76.34.76.75zm6 0c0 .4-.35.75-.76.75-.4 0-.75-.34-.75-.75 0-.4.34-.75.75-.75.4 0 .75.34.75.75zm5.98 0c0 .4-.33.75-.75.75s-.76-.34-.76-.75c0-.4.34-.75.75-.75.4 0 .74.34.74.75zm6 0c0 .4-.34.75-.76.75-.4 0-.75-.34-.75-.75 0-.4.34-.75.75-.75.42 0 .75.34.75.75zm6 0c0 .4-.35.75-.76.75-.42 0-.75-.34-.75-.75 0-.4.33-.75.75-.75.4 0 .75.34.75.75zm5.98 0c0 .4-.34.75-.75.75-.42 0-.75-.34-.75-.75 0-.4.33-.75.75-.75.4 0 .75.34.75.75zm6 0c0 .4-.35.75-.76.75-.4 0-.75-.34-.75-.75 0-.4.35-.75.76-.75.4 0 .75.34.75.75zm5.98 0c0 .4-.33.75-.75.75-.4 0-.75-.34-.75-.75 0-.4.34-.75.75-.75.42 0 .75.34.75.75zm6 0c0 .4-.34.75-.75.75-.42 0-.75-.34-.75-.75 0-.4.33-.75.75-.75.4 0 .75.34.75.75zm6 0c0 .4-.35.75-.76.75-.42 0-.75-.34-.75-.75 0-.4.32-.75.74-.75.4 0 .75.34.75.75zm5.98 0c0 .4-.34.75-.75.75-.4 0-.75-.34-.75-.75 0-.4.34-.75.75-.75.4 0 .75.34.75.75zm6 0c0 .4-.34.75-.76.75-.4 0-.75-.34-.75-.75 0-.4.34-.75.75-.75.42 0 .75.34.75.75zm5.98 0c0 .4-.33.75-.75.75-.4 0-.74-.34-.74-.75 0-.4.34-.75.75-.75.43 0 .76.34.76.75zm6 0c0 .4-.34.75-.75.75-.4 0-.74-.34-.74-.75 0-.4.33-.75.75-.75s.76.34.76.75zm6 0c0 .4-.35.75-.76.75-.42 0-.75-.34-.75-.75 0-.4.33-.75.75-.75.4 0 .75.34.75.75zm5.98 0c0 .4-.34.75-.75.75-.42 0-.76-.34-.76-.75 0-.4.34-.75.75-.75.4 0 .74.34.74.75zm6 0c0 .4-.34.75-.76.75-.4 0-.75-.34-.75-.75 0-.4.34-.75.75-.75.42 0 .75.34.75.75zm6 0c0 .4-.35.75-.76.75-.42 0-.75-.34-.75-.75 0-.4.33-.75.75-.75.4 0 .75.34.75.75zm5.98 0c0 .4-.34.75-.75.75-.42 0-.75-.34-.75-.75 0-.4.33-.75.75-.75.4 0 .75.34.75.75zm6 0c0 .4-.35.75-.76.75-.4 0-.75-.34-.75-.75 0-.4.35-.75.76-.75.4 0 .75.34.75.75zm5.98 0c0 .4-.33.75-.75.75-.4 0-.75-.34-.75-.75 0-.4.34-.75.75-.75.42 0 .75.34.75.75zm6 0c0 .4-.34.75-.76.75-.4 0-.75-.34-.75-.75 0-.4.33-.75.74-.75.42 0 .75.34.75.75zm6 0c0 .4-.35.75-.76.75-.42 0-.75-.34-.75-.75 0-.4.32-.75.74-.75.4 0 .75.34.75.75zm5.98 0c0 .4-.34.75-.75.75-.42 0-.75-.34-.75-.75 0-.4.33-.75.75-.75.4 0 .75.34.75.75zm6 0c0 .4-.35.75-.76.75-.4 0-.75-.34-.75-.75 0-.4.34-.75.75-.75.4 0 .75.34.75.75zm5.98 0c0 .4-.33.75-.75.75-.4 0-.74-.34-.74-.75 0-.4.34-.75.75-.75.43 0 .76.34.76.75zm6 0c0 .4-.34.75-.75.75-.4 0-.75-.34-.75-.75 0-.4.34-.75.75-.75.42 0 .75.34.75.75zm6 0c0 .4-.35.75-.76.75-.42 0-.75-.34-.75-.75 0-.4.33-.75.75-.75.4 0 .75.34.75.75zm5.98 0c0 .4-.34.75-.75.75-.42 0-.76-.34-.76-.75 0-.4.34-.75.75-.75.4 0 .74.34.74.75zm6 0c0 .4-.34.75-.76.75-.4 0-.75-.34-.75-.75 0-.4.34-.75.75-.75.42 0 .75.34.75.75zm5.98 0c0 .4-.33.75-.75.75-.4 0-.75-.34-.75-.75 0-.4.34-.75.75-.75.42 0 .75.34.75.75zm6 0c0 .4-.34.75-.75.75-.42 0-.75-.34-.75-.75 0-.4.33-.75.75-.75.4 0 .75.34.75.75zm6 0c0 .4-.35.75-.76.75-.42 0-.75-.34-.75-.75 0-.4.34-.75.76-.75.4 0 .75.34.75.75zm5.98 0c0 .4-.34.75-.75.75-.4 0-.75-.34-.75-.75 0-.4.34-.75.75-.75.4 0 .75.34.75.75zm6 0c0 .4-.34.75-.76.75-.4 0-.75-.34-.75-.75 0-.4.33-.75.74-.75.42 0 .75.34.75.75zm5.98 0c0 .4-.33.75-.75.75-.4 0-.75-.34-.75-.75 0-.4.34-.75.75-.75.42 0 .75.34.75.75zm6 0c0 .4-.34.75-.75.75-.42 0-.75-.34-.75-.75 0-.4.33-.75.75-.75.4 0 .75.34.75.75zm6 0c0 .4-.35.75-.76.75-.42 0-.75-.34-.75-.75 0-.4.33-.75.75-.75.4 0 .75.34.75.75zm5.98 0c0 .4-.34.75-.75.75-.4 0-.74-.34-.74-.75 0-.4.34-.75.75-.75.42 0 .76.34.76.75zm6 0c0 .4-.34.75-.76.75-.4 0-.75-.34-.75-.75 0-.4.34-.75.75-.75.42 0 .75.34.75.75zm6 0c0 .4-.35.75-.76.75-.42 0-.75-.34-.75-.75 0-.4.33-.75.75-.75.4 0 .75.34.75.75zm5.98 0c0 .4-.34.75-.75.75-.43 0-.76-.34-.76-.75 0-.4.33-.75.75-.75.4 0 .74.34.74.75zm6 0c0 .4-.35.75-.76.75-.4 0-.75-.34-.75-.75 0-.4.34-.75.75-.75.4 0 .75.34.75.75zm5.98 0c0 .4-.33.75-.75.75-.4 0-.75-.34-.75-.75 0-.4.34-.75.75-.75.42 0 .75.34.75.75zm6 0c0 .4-.34.75-.76.75-.4 0-.75-.34-.75-.75 0-.4.35-.75.76-.75.42 0 .75.34.75.75zm6 0c0 .4-.35.75-.76.75-.42 0-.75-.34-.75-.75 0-.4.34-.75.76-.75.4 0 .75.34.75.75zm5.98 0c0 .4-.34.75-.75.75-.42 0-.75-.34-.75-.75 0-.4.33-.75.75-.75.4 0 .75.34.75.75zm6 0c0 .4-.35.75-.76.75-.4 0-.75-.34-.75-.75 0-.4.33-.75.74-.75.4 0 .75.34.75.75zm5.98 0c0 .4-.33.75-.75.75-.4 0-.75-.34-.75-.75 0-.4.34-.75.75-.75.42 0 .75.34.75.75zm6 0c0 .4-.34.75-.75.75-.42 0-.75-.34-.75-.75 0-.4.33-.75.75-.75.4 0 .75.34.75.75zm6 0c0 .4-.35.75-.76.75-.42 0-.75-.34-.75-.75 0-.4.33-.75.75-.75.4 0 .75.34.75.75zm5.98 0c0 .4-.34.75-.75.75-.4 0-.74-.34-.74-.75 0-.4.34-.75.75-.75.42 0 .76.34.76.75zm6 0c0 .4-.34.75-.76.75-.4 0-.75-.34-.75-.75 0-.4.34-.75.75-.75.42 0 .75.34.75.75zm5.98 0c0 .4-.33.75-.75.75s-.76-.34-.76-.75c0-.4.34-.75.75-.75.4 0 .74.34.74.75zm6 0c0 .4-.34.75-.75.75-.43 0-.76-.34-.76-.75 0-.4.33-.75.75-.75.4 0 .74.34.74.75zm6 0c0 .4-.35.75-.76.75-.42 0-.75-.34-.75-.75 0-.4.33-.75.75-.75.4 0 .75.34.75.75zm5.98 0c0 .4-.34.75-.75.75-.4 0-.75-.34-.75-.75 0-.4.34-.75.75-.75.4 0 .75.34.75.75zm6 0c0 .4-.34.75-.76.75-.4 0-.75-.34-.75-.75 0-.4.35-.75.76-.75.42 0 .75.34.75.75zm5.98 0c0 .4-.33.75-.75.75-.4 0-.75-.34-.75-.75 0-.4.34-.75.75-.75.42 0 .75.34.75.75zm6 0c0 .4-.34.75-.75.75-.42 0-.75-.34-.75-.75 0-.4.33-.75.75-.75.4 0 .75.34.75.75zm6 0c0 .4-.35.75-.76.75-.4 0-.75-.34-.75-.75 0-.4.33-.75.74-.75.4 0 .75.34.75.75zm5.98 0c0 .4-.33.75-.75.75-.4 0-.75-.34-.75-.75 0-.4.34-.75.75-.75.42 0 .75.34.75.75zm6 0c0 .4-.34.75-.76.75-.4 0-.75-.34-.75-.75 0-.4.34-.75.75-.75.42 0 .75.34.75.75zm6 0c0 .4-.35.75-.76.75-.42 0-.75-.34-.75-.75 0-.4.33-.75.75-.75.4 0 .75.34.75.75zm5.98 0c0 .4-.34.75-.75.75-.4 0-.74-.34-.74-.75 0-.4.33-.75.75-.75s.76.34.76.75zm6 0c0 .4-.35.75-.76.75-.4 0-.75-.34-.75-.75 0-.4.34-.75.75-.75.4 0 .75.34.75.75zm-6 1.5c0 .4-.34.75-.75.75-.4 0-.74-.34-.74-.75 0-.4.33-.75.75-.75s.76.34.76.75zm-6 0c0 .4-.33.75-.74.75-.42 0-.75-.34-.75-.75 0-.4.33-.75.75-.75.4 0 .75.34.75.75zm-6 0c0 .4-.32.75-.74.75-.4 0-.75-.34-.75-.75 0-.4.34-.75.75-.75.42 0 .75.34.75.75zm-5.98 0c0 .4-.33.75-.75.75-.4 0-.75-.34-.75-.75 0-.4.34-.75.75-.75.42 0 .75.34.75.75zm-6 0c0 .4-.33.75-.74.75-.4 0-.75-.34-.75-.75 0-.4.33-.75.74-.75.4 0 .75.34.75.75zm-5.98 0c0 .4-.34.75-.75.75-.42 0-.75-.34-.75-.75 0-.4.33-.75.75-.75.4 0 .75.34.75.75zm-6 0c0 .4-.33.75-.75.75-.4 0-.75-.34-.75-.75 0-.4.34-.75.75-.75.42 0 .75.34.75.75zm-6 0c0 .4-.32.75-.74.75-.4 0-.75-.34-.75-.75 0-.4.35-.75.76-.75.42 0 .75.34.75.75zm-5.98 0c0 .4-.34.75-.75.75-.4 0-.75-.34-.75-.75 0-.4.34-.75.75-.75.4 0 .75.34.75.75zm-6 0c0 .4-.33.75-.74.75-.42 0-.75-.34-.75-.75 0-.4.33-.75.75-.75.4 0 .75.34.75.75zm-5.98 0c0 .4-.34.75-.75.75-.43 0-.76-.34-.76-.75 0-.4.33-.75.75-.75.4 0 .74.34.74.75zm-6 0c0 .4-.33.75-.75.75s-.76-.34-.76-.75c0-.4.34-.75.75-.75.4 0 .74.34.74.75zm-6 0c0 .4-.32.75-.74.75-.4 0-.75-.34-.75-.75 0-.4.34-.75.75-.75.42 0 .75.34.75.75zm-5.98 0c0 .4-.34.75-.75.75-.4 0-.74-.34-.74-.75 0-.4.34-.75.75-.75.42 0 .76.34.76.75zm-6 0c0 .4-.33.75-.74.75-.42 0-.75-.34-.75-.75 0-.4.33-.75.75-.75.4 0 .75.34.75.75zm-6 0c0 .4-.32.75-.74.75-.4 0-.75-.34-.75-.75 0-.4.34-.75.75-.75.42 0 .75.34.75.75zm-5.98 0c0 .4-.33.75-.75.75-.4 0-.75-.34-.75-.75 0-.4.34-.75.75-.75.42 0 .75.34.75.75zm-6 0c0 .4-.33.75-.74.75-.4 0-.75-.34-.75-.75 0-.4.33-.75.74-.75.4 0 .75.34.75.75zm-5.98 0c0 .4-.34.75-.75.75-.42 0-.75-.34-.75-.75 0-.4.33-.75.75-.75.4 0 .75.34.75.75zm-6 0c0 .4-.33.75-.74.75-.42 0-.75-.34-.75-.75 0-.4.34-.75.76-.75.4 0 .75.34.75.75zm-6 0c0 .4-.32.75-.74.75-.4 0-.75-.34-.75-.75 0-.4.35-.75.76-.75.42 0 .75.34.75.75zm-5.98 0c0 .4-.33.75-.75.75-.4 0-.75-.34-.75-.75 0-.4.34-.75.75-.75.42 0 .75.34.75.75zm-6 0c0 .4-.33.75-.74.75-.4 0-.75-.34-.75-.75 0-.4.34-.75.75-.75.4 0 .75.34.75.75zm-5.98 0c0 .4-.34.75-.75.75-.43 0-.76-.34-.76-.75 0-.4.33-.75.75-.75.4 0 .74.34.74.75zm-6 0c0 .4-.33.75-.75.75s-.75-.34-.75-.75c0-.4.33-.75.75-.75.4 0 .75.34.75.75zm-6 0c0 .4-.32.75-.74.75-.4 0-.75-.34-.75-.75 0-.4.34-.75.75-.75.42 0 .75.34.75.75zm-5.98 0c0 .4-.34.75-.75.75-.4 0-.74-.34-.74-.75 0-.4.34-.75.75-.75.42 0 .76.34.76.75zm-6 0c0 .4-.33.75-.74.75-.42 0-.75-.34-.75-.75 0-.4.33-.75.75-.75.4 0 .75.34.75.75zm-5.98 0c0 .4-.34.75-.75.75-.42 0-.75-.34-.75-.75 0-.4.33-.75.75-.75.4 0 .75.34.75.75zm-6 0c0 .4-.33.75-.75.75-.4 0-.75-.34-.75-.75 0-.4.34-.75.75-.75.42 0 .75.34.75.75zm-6 0c0 .4-.32.75-.74.75-.4 0-.75-.34-.75-.75 0-.4.33-.75.74-.75.42 0 .75.34.75.75zm-5.98 0c0 .4-.34.75-.75.75-.4 0-.75-.34-.75-.75 0-.4.34-.75.75-.75.4 0 .75.34.75.75zm-6 0c0 .4-.33.75-.74.75-.42 0-.75-.34-.75-.75 0-.4.34-.75.76-.75.4 0 .75.34.75.75zm-5.98 0c0 .4-.34.75-.75.75-.42 0-.75-.34-.75-.75 0-.4.33-.75.75-.75.4 0 .75.34.75.75zm-6 0c0 .4-.33.75-.75.75-.4 0-.75-.34-.75-.75 0-.4.34-.75.75-.75.42 0 .75.34.75.75zm-6 0c0 .4-.32.75-.74.75-.4 0-.75-.34-.75-.75 0-.4.34-.75.75-.75.42 0 .75.34.75.75zm-5.98 0c0 .4-.34.75-.75.75-.42 0-.76-.34-.76-.75 0-.4.34-.75.75-.75.4 0 .74.34.74.75zm-6 0c0 .4-.33.75-.74.75-.42 0-.75-.34-.75-.75 0-.4.33-.75.75-.75.4 0 .75.34.75.75zm-6 0c0 .4-.32.75-.74.75-.4 0-.75-.34-.75-.75 0-.4.34-.75.75-.75.42 0 .75.34.75.75zm-5.98 0c0 .4-.33.75-.75.75-.4 0-.74-.34-.74-.75 0-.4.34-.75.75-.75.43 0 .76.34.76.75zm-6 0c0 .4-.32.75-.74.75-.4 0-.75-.34-.75-.75 0-.4.34-.75.75-.75.4 0 .75.34.75.75zm-5.98 0c0 .4-.34.75-.75.75-.42 0-.75-.34-.75-.75 0-.4.33-.75.75-.75.4 0 .75.34.75.75zm-6 0c0 .4-.33.75-.74.75-.42 0-.75-.34-.75-.75 0-.4.32-.75.74-.75.4 0 .75.34.75.75zm-6 0c0 .4-.32.75-.74.75-.4 0-.75-.34-.75-.75 0-.4.33-.75.74-.75.42 0 .75.34.75.75zm-5.98 0c0 .4-.33.75-.75.75-.4 0-.75-.34-.75-.75 0-.4.34-.75.75-.75.42 0 .75.34.75.75zm-6 0c0 .4-.33.75-.74.75-.4 0-.75-.34-.75-.75 0-.4.35-.75.76-.75.4 0 .75.34.75.75zm-5.98 0c0 .4-.34.75-.75.75-.42 0-.75-.34-.75-.75 0-.4.33-.75.75-.75.4 0 .75.34.75.75zm-6 0c0 .4-.33.75-.75.75-.4 0-.75-.34-.75-.75 0-.4.34-.75.75-.75.42 0 .75.34.75.75zm-6 0c0 .4-.32.75-.74.75-.4 0-.75-.34-.75-.75 0-.4.34-.75.75-.75.42 0 .75.34.75.75zm-5.98 0c0 .4-.34.75-.75.75-.42 0-.76-.34-.76-.75 0-.4.34-.75.75-.75.4 0 .74.34.74.75zm-6 0c0 .4-.33.75-.74.75-.42 0-.75-.34-.75-.75 0-.4.33-.75.75-.75.4 0 .75.34.75.75zm-5.98 0c0 .4-.34.75-.75.75-.4 0-.74-.34-.74-.75 0-.4.33-.75.75-.75s.76.34.76.75zm-6 0c0 .4-.33.75-.75.75-.4 0-.74-.34-.74-.75 0-.4.34-.75.75-.75.43 0 .76.34.76.75zm-6 0c0 .4-.32.75-.74.75-.4 0-.75-.34-.75-.75 0-.4.34-.75.75-.75.42 0 .75.34.75.75zm-5.98 0c0 .4-.34.75-.75.75-.4 0-.75-.34-.75-.75 0-.4.34-.75.75-.75.4 0 .75.34.75.75zm-6 0c0 .4-.33.75-.74.75-.42 0-.75-.34-.75-.75 0-.4.32-.75.74-.75.4 0 .75.34.75.75zm-5.98 0c0 .4-.34.75-.75.75-.42 0-.75-.34-.75-.75 0-.4.33-.75.75-.75.4 0 .75.34.75.75zm-6 0c0 .4-.33.75-.75.75-.4 0-.75-.34-.75-.75 0-.4.34-.75.75-.75.42 0 .75.34.75.75zm-6 0c0 .4-.33.75-.74.75-.4 0-.75-.34-.75-.75 0-.4.35-.75.76-.75.4 0 .75.34.75.75zm-5.98 0c0 .4-.34.75-.75.75-.42 0-.75-.34-.75-.75 0-.4.33-.75.75-.75.4 0 .75.34.75.75zm-6 0c0 .4-.33.75-.74.75-.42 0-.75-.34-.75-.75 0-.4.33-.75.75-.75.4 0 .75.34.75.75zm-6 0c0 .4-.32.75-.74.75-.4 0-.75-.34-.75-.75 0-.4.34-.75.75-.75.42 0 .75.34.75.75zm-5.98 0c0 .4-.33.75-.75.75s-.76-.34-.76-.75c0-.4.34-.75.75-.75.4 0 .74.34.74.75zm-6 0c0 .4-.33.75-.74.75-.4 0-.75-.34-.75-.75 0-.4.34-.75.75-.75.4 0 .75.34.75.75zm-5.98 0c0 .4-.34.75-.75.75-.4 0-.74-.34-.74-.75 0-.4.33-.75.75-.75s.76.34.76.75zm-6 0c0 .4-.33.75-.74.75-.42 0-.75-.34-.75-.75 0-.4.33-.75.75-.75.4 0 .75.34.75.75zm-6 0c0 .4-.32.75-.74.75-.4 0-.75-.34-.75-.75 0-.4.34-.75.75-.75.42 0 .75.34.75.75zm-5.98 0c0 .4-.33.75-.75.75-.4 0-.75-.34-.75-.75 0-.4.34-.75.75-.75.42 0 .75.34.75.75zm-6 0c0 .4-.33.75-.74.75-.4 0-.75-.34-.75-.75 0-.4.33-.75.74-.75.4 0 .75.34.75.75zm-5.98 0c0 .4-.34.75-.75.75-.42 0-.75-.34-.75-.75 0-.4.33-.75.75-.75.4 0 .75.34.75.75zm-6 0c0 .4-.33.75-.75.75-.4 0-.75-.34-.75-.75 0-.4.34-.75.75-.75.42 0 .75.34.75.75zm-6 0c0 .4-.32.75-.74.75-.4 0-.75-.34-.75-.75 0-.4.35-.75.76-.75.42 0 .75.34.75.75zm-5.98 0c0 .4-.34.75-.75.75-.4 0-.75-.34-.75-.75 0-.4.34-.75.75-.75.4 0 .75.34.75.75zm-6 0c0 .4-.33.75-.74.75-.42 0-.75-.34-.75-.75 0-.4.33-.75.75-.75.4 0 .75.34.75.75zm-5.98 0c0 .4-.34.75-.75.75-.43 0-.76-.34-.76-.75 0-.4.33-.75.75-.75.4 0 .74.34.74.75zm-6 0c0 .4-.33.75-.75.75s-.76-.34-.76-.75c0-.4.34-.75.75-.75.4 0 .74.34.74.75zm-6 0c0 .4-.32.75-.74.75-.4 0-.75-.34-.75-.75 0-.4.34-.75.75-.75.42 0 .75.34.75.75zm-5.98 0c0 .4-.34.75-.75.75-.4 0-.74-.34-.74-.75 0-.4.34-.75.75-.75.42 0 .76.34.76.75zm-6 0c0 .4-.33.75-.74.75-.42 0-.75-.34-.75-.75 0-.4.33-.75.75-.75.4 0 .75.34.75.75zm-6 0c0 .4-.32.75-.74.75-.4 0-.75-.34-.75-.75 0-.4.34-.75.75-.75.42 0 .75.34.75.75zm-5.98 0c0 .4-.33.75-.75.75-.4 0-.75-.34-.75-.75 0-.4.34-.75.75-.75.42 0 .75.34.75.75zm-6 0c0 .4-.32.75-.74.75-.4 0-.75-.34-.75-.75 0-.4.33-.75.74-.75.42 0 .75.34.75.75zm-5.98 0c0 .4-.34.75-.75.75-.42 0-.75-.34-.75-.75 0-.4.33-.75.75-.75.4 0 .75.34.75.75zm-6 0c0 .4-.33.75-.74.75-.42 0-.75-.34-.75-.75 0-.4.34-.75.76-.75.4 0 .75.34.75.75zm-6 0c0 .4-.32.75-.74.75-.4 0-.75-.34-.75-.75 0-.4.35-.75.76-.75.42 0 .75.34.75.75zm-5.98 0c0 .4-.33.75-.75.75-.4 0-.75-.34-.75-.75 0-.4.34-.75.75-.75.42 0 .75.34.75.75zm-6 0c0 .4-.33.75-.74.75-.42 0-.75-.34-.75-.75 0-.4.33-.75.75-.75.4 0 .75.34.75.75zm-5.98 0c0 .4-.34.75-.75.75-.43 0-.76-.34-.76-.75 0-.4.33-.75.75-.75.4 0 .74.34.74.75zm-6 0c0 .4-.33.75-.75.75s-.75-.34-.75-.75c0-.4.33-.75.75-.75.4 0 .75.34.75.75zm-6 0c0 .4-.32.75-.74.75-.4 0-.75-.34-.75-.75 0-.4.34-.75.75-.75.42 0 .75.34.75.75zm-5.98 0c0 .4-.33.75-.75.75-.4 0-.74-.34-.74-.75 0-.4.34-.75.75-.75.43 0 .76.34.76.75zm-6 0c0 .4-.33.75-.74.75-.42 0-.75-.34-.75-.75 0-.4.33-.75.75-.75.4 0 .75.34.75.75zm-5.98 0c0 .4-.34.75-.75.75-.42 0-.75-.34-.75-.75 0-.4.33-.75.75-.75.4 0 .75.34.75.75zm-6 0c0 .4-.33.75-.75.75-.4 0-.75-.34-.75-.75 0-.4.34-.75.75-.75.42 0 .75.34.75.75zm-6 0c0 .4-.32.75-.74.75-.4 0-.75-.34-.75-.75 0-.4.33-.75.74-.75.42 0 .75.34.75.75zm-5.98 0c0 .4-.34.75-.75.75-.4 0-.75-.34-.75-.75 0-.4.34-.75.75-.75.4 0 .75.34.75.75zm-6 0c0 .4-.33.75-.74.75-.42 0-.75-.34-.75-.75 0-.4.34-.75.76-.75.4 0 .75.34.75.75zm-5.98 0c0 .4-.34.75-.75.75-.42 0-.75-.34-.75-.75 0-.4.33-.75.75-.75.4 0 .75.34.75.75zm-6 0c0 .4-.33.75-.75.75-.4 0-.75-.34-.75-.75 0-.4.34-.75.75-.75.42 0 .75.34.75.75zm-6 0c0 .4-.32.75-.74.75-.4 0-.75-.34-.75-.75 0-.4.34-.75.75-.75.42 0 .75.34.75.75zm-5.98 0c0 .4-.34.75-.75.75-.43 0-.76-.34-.76-.75 0-.4.33-.75.75-.75.4 0 .74.34.74.75zm-6 0c0 .4-.33.75-.74.75-.42 0-.75-.34-.75-.75 0-.4.33-.75.75-.75.4 0 .75.34.75.75zm-6 0c0 .4-.32.75-.74.75-.4 0-.75-.34-.75-.75 0-.4.34-.75.75-.75.42 0 .75.34.75.75zm-5.98 0c0 .4-.33.75-.75.75-.4 0-.74-.34-.74-.75 0-.4.34-.75.75-.75.43 0 .76.34.76.75zm-6 0c0 .4-.32.75-.74.75-.4 0-.75-.34-.75-.75 0-.4.34-.75.75-.75.42 0 .75.34.75.75zm-5.98 0c0 .4-.34.75-.75.75-.42 0-.75-.34-.75-.75 0-.4.33-.75.75-.75.4 0 .75.34.75.75zm-6 0c0 .4-.33.75-.74.75-.42 0-.75-.34-.75-.75 0-.4.32-.75.74-.75.4 0 .75.34.75.75zm-6 0c0 .4-.32.75-.74.75-.4 0-.75-.34-.75-.75 0-.4.33-.75.74-.75.42 0 .75.34.75.75zm-5.98 0c0 .4-.33.75-.75.75-.4 0-.75-.34-.75-.75 0-.4.34-.75.75-.75.42 0 .75.34.75.75zm-6 0c0 .4-.33.75-.74.75-.42 0-.75-.34-.75-.75 0-.4.34-.75.76-.75.4 0 .75.34.75.75zm-5.98 0c0 .4-.34.75-.75.75-.42 0-.75-.34-.75-.75 0-.4.33-.75.75-.75.4 0 .75.34.75.75zm-6 0c0 .4-.33.75-.75.75-.4 0-.75-.34-.75-.75 0-.4.34-.75.75-.75.42 0 .75.34.75.75zm-6 0c0 .4-.32.75-.74.75-.4 0-.75-.34-.75-.75 0-.4.34-.75.75-.75.42 0 .75.34.75.75zm-5.98 0c0 .4-.33.75-.75.75s-.76-.34-.76-.75c0-.4.34-.75.75-.75.4 0 .74.34.74.75zm-6 0c0 .4-.33.75-.74.75-.42 0-.75-.34-.75-.75 0-.4.33-.75.75-.75.4 0 .75.34.75.75zm-5.98 0c0 .4-.34.75-.75.75-.4 0-.74-.34-.74-.75 0-.4.33-.75.75-.75s.76.34.76.75zm-6 0c0 .4-.33.75-.75.75-.4 0-.74-.34-.74-.75 0-.4.34-.75.75-.75.43 0 .76.34.76.75zm-6 0c0 .4-.32.75-.74.75-.4 0-.75-.34-.75-.75 0-.4.34-.75.75-.75.42 0 .75.34.75.75zm-5.98 0c0 .4-.34.75-.75.75-.42 0-.75-.34-.75-.75 0-.4.33-.75.75-.75.4 0 .75.34.75.75zm-6 0c0 .4-.33.75-.74.75-.42 0-.75-.34-.75-.75 0-.4.32-.75.74-.75.4 0 .75.34.75.75zm-6 0c0 .4-.32.75-.74.75-.4 0-.75-.34-.75-.75 0-.4.33-.75.75-.75.4 0 .75.34.75.75zm-5.98 0c0 .4-.33.75-.75.75-.4 0-.75-.34-.75-.75 0-.4.34-.75.75-.75.42 0 .75.34.75.75zm-6 0c0 .4-.32.75-.74.75-.4 0-.75-.34-.75-.75 0-.4.35-.75.76-.75.4 0 .75.34.75.75zm-5.98 0c0 .4-.34.75-.75.75-.4 0-.75-.34-.75-.75 0-.4.34-.75.75-.75.4 0 .75.34.75.75zm-6 0c0 .4-.33.75-.74.75-.42 0-.75-.34-.75-.75 0-.4.33-.75.75-.75.4 0 .75.34.75.75zm-6 0c0 .4-.32.75-.74.75-.4 0-.75-.34-.75-.75 0-.4.34-.75.75-.75.42 0 .75.34.75.75zm-5.98 0c0 .4-.33.75-.75.75s-.76-.34-.76-.75c0-.4.34-.75.75-.75.4 0 .74.34.74.75zm-6 0c0 .4-.33.75-.74.75-.4 0-.75-.34-.75-.75 0-.4.34-.75.75-.75.4 0 .75.34.75.75z" fill="#3a414a"/><path d="M180 4706a6 6 0 0 1 6-6h228a6 6 0 0 1 6 6v48a6 6 0 0 1-6 6H186a6 6 0 0 1-6-6z" stroke="#000" stroke-opacity="0" stroke-width="3" fill="#fff" fill-opacity="0"/><use xlink:href="#n" transform="matrix(1,0,0,1,185,4705) translate(65.7716049382716 30.27777777777778)"/><path d="M180 5042.67a6 6 0 0 1 6-6h228a6 6 0 0 1 6 6v48a6 6 0 0 1-6 6H186a6 6 0 0 1-6-6z" stroke="#000" stroke-opacity="0" stroke-width="3" fill="#fff" fill-opacity="0"/><use xlink:href="#o" transform="matrix(1,0,0,1,185,5041.666666666666) translate(95.24691358024691 30.27777777777778)"/><path d="M500 5162.67a6 6 0 0 1 6-6h228a6 6 0 0 1 6 6v48a6 6 0 0 1-6 6H506a6 6 0 0 1-6-6z" stroke="#000" stroke-opacity="0" stroke-width="3" fill="#fff" fill-opacity="0"/><use xlink:href="#p" transform="matrix(1,0,0,1,505,5161.666666666666) translate(90.40123456790124 30.27777777777778)"/><path d="M220.75 4647.17a.75.75 0 0 1 .75-.75h767a.75.75 0 0 1 .75.75.75.75 0 0 1-.75.75h-767a.75.75 0 0 1-.75-.75z" stroke="#3a414a" stroke-width="1.5" fill="none"/><defs><path fill="#3a414a" d="M33 0v-248h34V0H33" id="q"/><path fill="#3a414a" d="M117-194c89-4 53 116 60 194h-32v-121c0-31-8-49-39-48C34-167 62-67 57 0H25l-1-190h30c1 10-1 24 2 32 11-22 29-35 61-36" id="r"/><path fill="#3a414a" d="M108 0H70L1-190h34L89-25l56-165h34" id="s"/><path fill="#3a414a" d="M100-194c62-1 85 37 85 99 1 63-27 99-86 99S16-35 15-95c0-66 28-99 85-99zM99-20c44 1 53-31 53-75 0-43-8-75-51-75s-53 32-53 75 10 74 51 75" id="t"/><path fill="#3a414a" d="M143 0L79-87 56-68V0H24v-261h32v163l83-92h37l-77 82L181 0h-38" id="u"/><path fill="#3a414a" d="M100-194c63 0 86 42 84 106H49c0 40 14 67 53 68 26 1 43-12 49-29l28 8c-11 28-37 45-77 45C44 4 14-33 15-96c1-61 26-98 85-98zm52 81c6-60-76-77-97-28-3 7-6 17-6 28h103" id="v"/><path fill="#3a414a" d="M114-163C36-179 61-72 57 0H25l-1-190h30c1 12-1 29 2 39 6-27 23-49 58-41v29" id="w"/><g id="a"><use transform="matrix(0.06172839506172839,0,0,0.06172839506172839,0,0)" xlink:href="#q"/><use transform="matrix(0.06172839506172839,0,0,0.06172839506172839,6.172839506172839,0)" xlink:href="#r"/><use transform="matrix(0.06172839506172839,0,0,0.06172839506172839,18.51851851851852,0)" xlink:href="#s"/><use transform="matrix(0.06172839506172839,0,0,0.06172839506172839,29.62962962962963,0)" xlink:href="#t"/><use transform="matrix(0.06172839506172839,0,0,0.06172839506172839,41.97530864197531,0)" xlink:href="#u"/><use transform="matrix(0.06172839506172839,0,0,0.06172839506172839,53.08641975308642,0)" xlink:href="#v"/><use transform="matrix(0.06172839506172839,0,0,0.06172839506172839,65.4320987654321,0)" xlink:href="#w"/></g><path fill="#3a414a" d="M233-177c-1 41-23 64-60 70L243 0h-38l-65-103H63V0H30v-248c88 3 205-21 203 71zM63-129c60-2 137 13 137-47 0-61-80-42-137-45v92" id="x"/><path fill="#3a414a" d="M96-169c-40 0-48 33-48 73s9 75 48 75c24 0 41-14 43-38l32 2c-6 37-31 61-74 61-59 0-76-41-82-99-10-93 101-131 147-64 4 7 5 14 7 22l-32 3c-4-21-16-35-41-35" id="y"/><path fill="#3a414a" d="M24-231v-30h32v30H24zM24 0v-190h32V0H24" id="z"/><g id="b"><use transform="matrix(0.06172839506172839,0,0,0.06172839506172839,0,0)" xlink:href="#x"/><use transform="matrix(0.06172839506172839,0,0,0.06172839506172839,15.987654320987653,0)" xlink:href="#v"/><use transform="matrix(0.06172839506172839,0,0,0.06172839506172839,28.333333333333332,0)" xlink:href="#y"/><use transform="matrix(0.06172839506172839,0,0,0.06172839506172839,39.44444444444444,0)" xlink:href="#v"/><use transform="matrix(0.06172839506172839,0,0,0.06172839506172839,51.79012345679012,0)" xlink:href="#z"/><use transform="matrix(0.06172839506172839,0,0,0.06172839506172839,56.666666666666664,0)" xlink:href="#s"/><use transform="matrix(0.06172839506172839,0,0,0.06172839506172839,67.77777777777777,0)" xlink:href="#v"/><use transform="matrix(0.06172839506172839,0,0,0.06172839506172839,80.12345679012346,0)" xlink:href="#w"/></g><path fill="#3a414a" d="M212-179c-10-28-35-45-73-45-59 0-87 40-87 99 0 60 29 101 89 101 43 0 62-24 78-52l27 14C228-24 195 4 139 4 59 4 22-46 18-125c-6-104 99-153 187-111 19 9 31 26 39 46" id="A"/><path fill="#3a414a" d="M210-169c-67 3-38 105-44 169h-31v-121c0-29-5-50-35-48C34-165 62-65 56 0H25l-1-190h30c1 10-1 24 2 32 10-44 99-50 107 0 11-21 27-35 58-36 85-2 47 119 55 194h-31v-121c0-29-5-49-35-48" id="B"/><path fill="#3a414a" d="M141-36C126-15 110 5 73 4 37 3 15-17 15-53c-1-64 63-63 125-63 3-35-9-54-41-54-24 1-41 7-42 31l-33-3c5-37 33-52 76-52 45 0 72 20 72 64v82c-1 20 7 32 28 27v20c-31 9-61-2-59-35zM48-53c0 20 12 33 32 33 41-3 63-29 60-74-43 2-92-5-92 41" id="C"/><path fill="#3a414a" d="M85-194c31 0 48 13 60 33l-1-100h32l1 261h-30c-2-10 0-23-3-31C134-8 116 4 85 4 32 4 16-35 15-94c0-66 23-100 70-100zm9 24c-40 0-46 34-46 75 0 40 6 74 45 74 42 0 51-32 51-76 0-42-9-74-50-73" id="D"/><g id="c"><use transform="matrix(0.06172839506172839,0,0,0.06172839506172839,0,0)" xlink:href="#A"/><use transform="matrix(0.06172839506172839,0,0,0.06172839506172839,15.987654320987653,0)" xlink:href="#t"/><use transform="matrix(0.06172839506172839,0,0,0.06172839506172839,28.333333333333332,0)" xlink:href="#B"/><use transform="matrix(0.06172839506172839,0,0,0.06172839506172839,46.79012345679012,0)" xlink:href="#B"/><use transform="matrix(0.06172839506172839,0,0,0.06172839506172839,65.24691358024691,0)" xlink:href="#C"/><use transform="matrix(0.06172839506172839,0,0,0.06172839506172839,77.5925925925926,0)" xlink:href="#r"/><use transform="matrix(0.06172839506172839,0,0,0.06172839506172839,89.93827160493828,0)" xlink:href="#D"/></g><path fill="#3a414a" d="M141 0L90-78 38 0H4l68-98-65-92h35l48 74 47-74h35l-64 92 68 98h-35" id="E"/><path fill="#3a414a" d="M84 4C-5 8 30-112 23-190h32v120c0 31 7 50 39 49 72-2 45-101 50-169h31l1 190h-30c-1-10 1-25-2-33-11 22-28 36-60 37" id="F"/><path fill="#3a414a" d="M59-47c-2 24 18 29 38 22v24C64 9 27 4 27-40v-127H5v-23h24l9-43h21v43h35v23H59v120" id="G"/><path fill="#3a414a" d="M87 75C49 33 22-17 22-94c0-76 28-126 65-167h31c-38 41-64 92-64 168S80 34 118 75H87" id="H"/><path fill="#3a414a" d="M33-261c38 41 65 92 65 168S71 34 33 75H2C39 34 66-17 66-93S39-220 2-261h31" id="I"/><g id="d"><use transform="matrix(0.06172839506172839,0,0,0.06172839506172839,0,0)" xlink:href="#v"/><use transform="matrix(0.06172839506172839,0,0,0.06172839506172839,12.345679012345679,0)" xlink:href="#E"/><use transform="matrix(0.06172839506172839,0,0,0.06172839506172839,23.45679012345679,0)" xlink:href="#v"/><use transform="matrix(0.06172839506172839,0,0,0.06172839506172839,35.80246913580247,0)" xlink:href="#y"/><use transform="matrix(0.06172839506172839,0,0,0.06172839506172839,46.91358024691358,0)" xlink:href="#F"/><use transform="matrix(0.06172839506172839,0,0,0.06172839506172839,59.25925925925926,0)" xlink:href="#G"/><use transform="matrix(0.06172839506172839,0,0,0.06172839506172839,65.4320987654321,0)" xlink:href="#v"/><use transform="matrix(0.06172839506172839,0,0,0.06172839506172839,77.77777777777779,0)" xlink:href="#H"/><use transform="matrix(0.06172839506172839,0,0,0.06172839506172839,85.12345679012347,0)" xlink:href="#I"/></g><g id="e"><use transform="matrix(0.06172839506172839,0,0,0.06172839506172839,0,0)" xlink:href="#A"/><use transform="matrix(0.06172839506172839,0,0,0.06172839506172839,15.987654320987653,0)" xlink:href="#t"/><use transform="matrix(0.06172839506172839,0,0,0.06172839506172839,28.333333333333332,0)" xlink:href="#r"/><use transform="matrix(0.06172839506172839,0,0,0.06172839506172839,40.67901234567901,0)" xlink:href="#y"/><use transform="matrix(0.06172839506172839,0,0,0.06172839506172839,51.79012345679013,0)" xlink:href="#w"/><use transform="matrix(0.06172839506172839,0,0,0.06172839506172839,59.135802469135804,0)" xlink:href="#v"/><use transform="matrix(0.06172839506172839,0,0,0.06172839506172839,71.48148148148148,0)" xlink:href="#G"/><use transform="matrix(0.06172839506172839,0,0,0.06172839506172839,77.65432098765432,0)" xlink:href="#v"/><use transform="matrix(0.06172839506172839,0,0,0.06172839506172839,90,0)" xlink:href="#A"/><use transform="matrix(0.06172839506172839,0,0,0.06172839506172839,105.98765432098766,0)" xlink:href="#t"/><use transform="matrix(0.06172839506172839,0,0,0.06172839506172839,118.33333333333334,0)" xlink:href="#B"/><use transform="matrix(0.06172839506172839,0,0,0.06172839506172839,136.79012345679013,0)" xlink:href="#B"/><use transform="matrix(0.06172839506172839,0,0,0.06172839506172839,155.2469135802469,0)" xlink:href="#C"/><use transform="matrix(0.06172839506172839,0,0,0.06172839506172839,167.59259259259258,0)" xlink:href="#r"/><use transform="matrix(0.06172839506172839,0,0,0.06172839506172839,179.93827160493825,0)" xlink:href="#D"/></g><path fill="#3a414a" d="M101-234c-31-9-42 10-38 44h38v23H63V0H32v-167H5v-23h27c-7-52 17-82 69-68v24" id="J"/><g id="f"><use transform="matrix(0.06172839506172839,0,0,0.06172839506172839,0,0)" xlink:href="#q"/><use transform="matrix(0.06172839506172839,0,0,0.06172839506172839,6.172839506172839,0)" xlink:href="#r"/><use transform="matrix(0.06172839506172839,0,0,0.06172839506172839,18.51851851851852,0)" xlink:href="#G"/><use transform="matrix(0.06172839506172839,0,0,0.06172839506172839,24.691358024691358,0)" xlink:href="#v"/><use transform="matrix(0.06172839506172839,0,0,0.06172839506172839,37.03703703703704,0)" xlink:href="#w"/><use transform="matrix(0.06172839506172839,0,0,0.06172839506172839,44.382716049382715,0)" xlink:href="#J"/><use transform="matrix(0.06172839506172839,0,0,0.06172839506172839,50.55555555555556,0)" xlink:href="#C"/><use transform="matrix(0.06172839506172839,0,0,0.06172839506172839,62.901234567901234,0)" xlink:href="#y"/><use transform="matrix(0.06172839506172839,0,0,0.06172839506172839,74.01234567901234,0)" xlink:href="#v"/></g><path fill="#3a414a" d="M160-131c35 5 61 23 61 61C221 17 115-2 30 0v-248c76 3 177-17 177 60 0 33-19 50-47 57zm-97-11c50-1 110 9 110-42 0-47-63-36-110-37v79zm0 115c55-2 124 14 124-45 0-56-70-42-124-44v89" id="K"/><g id="g"><use transform="matrix(0.06172839506172839,0,0,0.06172839506172839,0,0)" xlink:href="#K"/><use transform="matrix(0.06172839506172839,0,0,0.06172839506172839,14.814814814814813,0)" xlink:href="#F"/><use transform="matrix(0.06172839506172839,0,0,0.06172839506172839,27.160493827160494,0)" xlink:href="#G"/><use transform="matrix(0.06172839506172839,0,0,0.06172839506172839,33.333333333333336,0)" xlink:href="#G"/><use transform="matrix(0.06172839506172839,0,0,0.06172839506172839,39.50617283950618,0)" xlink:href="#t"/><use transform="matrix(0.06172839506172839,0,0,0.06172839506172839,51.851851851851855,0)" xlink:href="#r"/></g><path fill="#3a414a" d="M24 0v-261h32V0H24" id="L"/><g id="h"><use transform="matrix(0.06172839506172839,0,0,0.06172839506172839,0,0)" xlink:href="#y"/><use transform="matrix(0.06172839506172839,0,0,0.06172839506172839,11.11111111111111,0)" xlink:href="#L"/><use transform="matrix(0.06172839506172839,0,0,0.06172839506172839,15.987654320987653,0)" xlink:href="#z"/><use transform="matrix(0.06172839506172839,0,0,0.06172839506172839,20.864197530864196,0)" xlink:href="#y"/><use transform="matrix(0.06172839506172839,0,0,0.06172839506172839,31.975308641975307,0)" xlink:href="#u"/><use transform="matrix(0.06172839506172839,0,0,0.06172839506172839,43.08641975308642,0)" xlink:href="#H"/><use transform="matrix(0.06172839506172839,0,0,0.06172839506172839,50.432098765432094,0)" xlink:href="#I"/></g><path fill="#3a414a" d="M135-143c-3-34-86-38-87 0 15 53 115 12 119 90S17 21 10-45l28-5c4 36 97 45 98 0-10-56-113-15-118-90-4-57 82-63 122-42 12 7 21 19 24 35" id="M"/><path fill="#3a414a" d="M185-189c-5-48-123-54-124 2 14 75 158 14 163 119 3 78-121 87-175 55-17-10-28-26-33-46l33-7c5 56 141 63 141-1 0-78-155-14-162-118-5-82 145-84 179-34 5 7 8 16 11 25" id="N"/><g id="i"><use transform="matrix(0.06172839506172839,0,0,0.06172839506172839,0,0)" xlink:href="#A"/><use transform="matrix(0.06172839506172839,0,0,0.06172839506172839,15.987654320987653,0)" xlink:href="#F"/><use transform="matrix(0.06172839506172839,0,0,0.06172839506172839,28.333333333333332,0)" xlink:href="#M"/><use transform="matrix(0.06172839506172839,0,0,0.06172839506172839,39.44444444444444,0)" xlink:href="#G"/><use transform="matrix(0.06172839506172839,0,0,0.06172839506172839,45.617283950617285,0)" xlink:href="#t"/><use transform="matrix(0.06172839506172839,0,0,0.06172839506172839,57.96296296296296,0)" xlink:href="#B"/><use transform="matrix(0.06172839506172839,0,0,0.06172839506172839,76.41975308641975,0)" xlink:href="#v"/><use transform="matrix(0.06172839506172839,0,0,0.06172839506172839,88.76543209876543,0)" xlink:href="#w"/><use transform="matrix(0.06172839506172839,0,0,0.06172839506172839,96.11111111111111,0)" xlink:href="#N"/><use transform="matrix(0.06172839506172839,0,0,0.06172839506172839,110.92592592592592,0)" xlink:href="#v"/><use transform="matrix(0.06172839506172839,0,0,0.06172839506172839,123.27160493827161,0)" xlink:href="#w"/><use transform="matrix(0.06172839506172839,0,0,0.06172839506172839,130.6172839506173,0)" xlink:href="#s"/><use transform="matrix(0.06172839506172839,0,0,0.06172839506172839,141.7283950617284,0)" xlink:href="#z"/><use transform="matrix(0.06172839506172839,0,0,0.06172839506172839,146.60493827160494,0)" xlink:href="#y"/><use transform="matrix(0.06172839506172839,0,0,0.06172839506172839,157.71604938271605,0)" xlink:href="#v"/></g><g id="j"><use transform="matrix(0.06172839506172839,0,0,0.06172839506172839,0,0)" xlink:href="#C"/><use transform="matrix(0.06172839506172839,0,0,0.06172839506172839,12.345679012345679,0)" xlink:href="#D"/><use transform="matrix(0.06172839506172839,0,0,0.06172839506172839,24.691358024691358,0)" xlink:href="#D"/><use transform="matrix(0.06172839506172839,0,0,0.06172839506172839,37.03703703703704,0)" xlink:href="#A"/><use transform="matrix(0.06172839506172839,0,0,0.06172839506172839,53.02469135802469,0)" xlink:href="#F"/><use transform="matrix(0.06172839506172839,0,0,0.06172839506172839,65.37037037037037,0)" xlink:href="#M"/><use transform="matrix(0.06172839506172839,0,0,0.06172839506172839,76.48148148148148,0)" xlink:href="#G"/><use transform="matrix(0.06172839506172839,0,0,0.06172839506172839,82.65432098765432,0)" xlink:href="#t"/><use transform="matrix(0.06172839506172839,0,0,0.06172839506172839,95,0)" xlink:href="#B"/><use transform="matrix(0.06172839506172839,0,0,0.06172839506172839,113.45679012345678,0)" xlink:href="#v"/><use transform="matrix(0.06172839506172839,0,0,0.06172839506172839,125.80246913580247,0)" xlink:href="#w"/><use transform="matrix(0.06172839506172839,0,0,0.06172839506172839,133.14814814814815,0)" xlink:href="#H"/><use transform="matrix(0.06172839506172839,0,0,0.06172839506172839,140.49382716049382,0)" xlink:href="#I"/></g><path fill="#3a414a" d="M205 0l-28-72H64L36 0H1l101-248h38L239 0h-34zm-38-99l-47-123c-12 45-31 82-46 123h93" id="O"/><g id="k"><use transform="matrix(0.06172839506172839,0,0,0.06172839506172839,0,0)" xlink:href="#O"/><use transform="matrix(0.06172839506172839,0,0,0.06172839506172839,14.814814814814813,0)" xlink:href="#D"/><use transform="matrix(0.06172839506172839,0,0,0.06172839506172839,27.160493827160494,0)" xlink:href="#D"/><use transform="matrix(0.06172839506172839,0,0,0.06172839506172839,39.50617283950617,0)" xlink:href="#A"/><use transform="matrix(0.06172839506172839,0,0,0.06172839506172839,55.49382716049382,0)" xlink:href="#F"/><use transform="matrix(0.06172839506172839,0,0,0.06172839506172839,67.8395061728395,0)" xlink:href="#M"/><use transform="matrix(0.06172839506172839,0,0,0.06172839506172839,78.95061728395062,0)" xlink:href="#G"/><use transform="matrix(0.06172839506172839,0,0,0.06172839506172839,85.12345679012346,0)" xlink:href="#t"/><use transform="matrix(0.06172839506172839,0,0,0.06172839506172839,97.46913580246914,0)" xlink:href="#B"/><use transform="matrix(0.06172839506172839,0,0,0.06172839506172839,115.92592592592592,0)" xlink:href="#v"/><use transform="matrix(0.06172839506172839,0,0,0.06172839506172839,128.2716049382716,0)" xlink:href="#w"/></g><g id="l"><use transform="matrix(0.06172839506172839,0,0,0.06172839506172839,0,0)" xlink:href="#v"/><use transform="matrix(0.06172839506172839,0,0,0.06172839506172839,12.345679012345679,0)" xlink:href="#E"/><use transform="matrix(0.06172839506172839,0,0,0.06172839506172839,23.45679012345679,0)" xlink:href="#v"/><use transform="matrix(0.06172839506172839,0,0,0.06172839506172839,35.80246913580247,0)" xlink:href="#y"/><use transform="matrix(0.06172839506172839,0,0,0.06172839506172839,46.91358024691358,0)" xlink:href="#F"/><use transform="matrix(0.06172839506172839,0,0,0.06172839506172839,59.25925925925926,0)" xlink:href="#G"/><use transform="matrix(0.06172839506172839,0,0,0.06172839506172839,65.4320987654321,0)" xlink:href="#v"/><use transform="matrix(0.06172839506172839,0,0,0.06172839506172839,77.77777777777779,0)" xlink:href="#H"/><use transform="matrix(0.06172839506172839,0,0,0.06172839506172839,85.12345679012347,0)" xlink:href="#I"/></g><path fill="#3a414a" d="M115-194c55 1 70 41 70 98S169 2 115 4C84 4 66-9 55-30l1 105H24l-1-265h31l2 30c10-21 28-34 59-34zm-8 174c40 0 45-34 45-75s-6-73-45-74c-42 0-51 32-51 76 0 43 10 73 51 73" id="P"/><g id="m"><use transform="matrix(0.06172839506172839,0,0,0.06172839506172839,0,0)" xlink:href="#q"/><use transform="matrix(0.06172839506172839,0,0,0.06172839506172839,6.172839506172839,0)" xlink:href="#B"/><use transform="matrix(0.06172839506172839,0,0,0.06172839506172839,24.629629629629626,0)" xlink:href="#P"/><use transform="matrix(0.06172839506172839,0,0,0.06172839506172839,36.9753086419753,0)" xlink:href="#L"/><use transform="matrix(0.06172839506172839,0,0,0.06172839506172839,41.85185185185185,0)" xlink:href="#v"/><use transform="matrix(0.06172839506172839,0,0,0.06172839506172839,54.197530864197525,0)" xlink:href="#B"/><use transform="matrix(0.06172839506172839,0,0,0.06172839506172839,72.65432098765432,0)" xlink:href="#v"/><use transform="matrix(0.06172839506172839,0,0,0.06172839506172839,85,0)" xlink:href="#r"/><use transform="matrix(0.06172839506172839,0,0,0.06172839506172839,97.34567901234568,0)" xlink:href="#G"/><use transform="matrix(0.06172839506172839,0,0,0.06172839506172839,103.51851851851852,0)" xlink:href="#M"/></g><path fill="#3a414a" d="M63-220v92h138v28H63V0H30v-248h175v28H63" id="Q"/><path fill="#3a414a" d="M206 0h-36l-40-164L89 0H53L-1-190h32L70-26l43-164h34l41 164 42-164h31" id="R"/><g id="n"><use transform="matrix(0.06172839506172839,0,0,0.06172839506172839,0,0)" xlink:href="#Q"/><use transform="matrix(0.06172839506172839,0,0,0.06172839506172839,13.518518518518517,0)" xlink:href="#w"/><use transform="matrix(0.06172839506172839,0,0,0.06172839506172839,20.864197530864196,0)" xlink:href="#C"/><use transform="matrix(0.06172839506172839,0,0,0.06172839506172839,33.20987654320987,0)" xlink:href="#B"/><use transform="matrix(0.06172839506172839,0,0,0.06172839506172839,51.66666666666666,0)" xlink:href="#R"/><use transform="matrix(0.06172839506172839,0,0,0.06172839506172839,67.65432098765432,0)" xlink:href="#t"/><use transform="matrix(0.06172839506172839,0,0,0.06172839506172839,80,0)" xlink:href="#w"/><use transform="matrix(0.06172839506172839,0,0,0.06172839506172839,87.34567901234568,0)" xlink:href="#u"/></g><g id="o"><use transform="matrix(0.06172839506172839,0,0,0.06172839506172839,0,0)" xlink:href="#O"/><use transform="matrix(0.06172839506172839,0,0,0.06172839506172839,14.814814814814813,0)" xlink:href="#P"/><use transform="matrix(0.06172839506172839,0,0,0.06172839506172839,27.160493827160494,0)" xlink:href="#P"/></g><g id="p"><use transform="matrix(0.06172839506172839,0,0,0.06172839506172839,0,0)" xlink:href="#A"/><use transform="matrix(0.06172839506172839,0,0,0.06172839506172839,15.987654320987653,0)" xlink:href="#C"/><use transform="matrix(0.06172839506172839,0,0,0.06172839506172839,28.333333333333332,0)" xlink:href="#L"/><use transform="matrix(0.06172839506172839,0,0,0.06172839506172839,33.20987654320987,0)" xlink:href="#L"/><use transform="matrix(0.06172839506172839,0,0,0.06172839506172839,38.08641975308642,0)" xlink:href="#M"/></g></defs></g></svg>