<svg xmlns="http://www.w3.org/2000/svg" xmlns:xlink="http://www.w3.org/1999/xlink" xmlns:lucid="lucid" width="1161" height="2301"><g transform="translate(-59.49999999914138 -3899.499999998289)" lucid:page-tab-id="0_0"><path d="M0 3776.5h1870.87v2581.67H0z" fill="#fff"/><path d="M60 3906a6 6 0 0 1 6-6h1148a6 6 0 0 1 6 6v2288a6 6 0 0 1-6 6H66a6 6 0 0 1-6-6z" stroke="#3a414a" fill-opacity="0"/><path d="M420 3966a6 6 0 0 1 6-6h228a6 6 0 0 1 6 6v51.33a6 6 0 0 1-6 6H426a6 6 0 0 1-6-6z" stroke="#000" stroke-opacity="0" stroke-width="3" fill="#fff" fill-opacity="0"/><use xlink:href="#a" transform="matrix(1,0,0,1,425,3965) translate(32.46913580246917 38.93055555555554)"/><path d="M415 4586a6 6 0 0 1 6-6h228a6 6 0 0 1 6 6v51.33a6 6 0 0 1-6 6H421a6 6 0 0 1-6-6z" stroke="#000" stroke-opacity="0" stroke-width="3" fill="#fff" fill-opacity="0"/><use xlink:href="#b" transform="matrix(1,0,0,1,420,4585) translate(34.87654320987659 38.93055555555554)"/><path d="M180 4086a6 6 0 0 1 6-6h208a6 6 0 0 1 6 6v148a6 6 0 0 1-6 6H186a6 6 0 0 1-6-6z" stroke="#3a414a" fill="#fff"/><path d="M180 4122.67h220m-220 58.66h220" stroke="#3a414a" fill="none"/><use xlink:href="#c" transform="matrix(1,0,0,1,188,4088) translate(68.14197530864197 17.944444444444443)"/><path d="M640 4086a6 6 0 0 1 6-6h208a6 6 0 0 1 6 6v148a6 6 0 0 1-6 6H646a6 6 0 0 1-6-6z" stroke="#3a414a" fill="#fff"/><path d="M640 4122.67h220m-220 58.66h220" stroke="#3a414a" fill="none"/><use xlink:href="#d" transform="matrix(1,0,0,1,648,4088) translate(70.51851851851852 17.944444444444443)"/><path d="M402 4160h216.88" stroke="#3a414a" stroke-width="3" fill="none"/><path d="M402.04 4161.5h-1.54v-3h1.54z" stroke="#3a414a" stroke-width=".05" fill="#3a414a"/><path d="M634.65 4160l-14.27 4.64v-9.28z" stroke="#3a414a" stroke-width="3" fill="#3a414a"/><path d="M180 4292a12 12 0 0 1 12-12h496a12 12 0 0 1 12 12v187.9a12 12 0 0 1-12 12H192a12 12 0 0 1-12-12z" stroke="#dfe3e8" stroke-width="2" fill="#fff"/><path d="M236 4353.6c0 6.63-5.37 12-12 12s-12-5.37-12-12 5.37-12 12-12 12 5.37 12 12zM236 4385.6c0 6.63-5.37 12-12 12s-12-5.37-12-12 5.37-12 12-12 12 5.37 12 12zM236 4417.6c0 6.63-5.37 12-12 12s-12-5.37-12-12 5.37-12 12-12 12 5.37 12 12z" stroke="#000" stroke-opacity=".25" fill="#e81313"/><use xlink:href="#e" transform="matrix(1,0,0,1,212,4304) translate(0 14.6)"/><use xlink:href="#f" transform="matrix(1,0,0,1,248,4341.6) translate(0 15.688888888888888)"/><use xlink:href="#g" transform="matrix(1,0,0,1,248,4341.6) translate(61.32777777777777 15.688888888888888)"/><use xlink:href="#h" transform="matrix(1,0,0,1,248,4341.6) translate(79.72098765432096 15.688888888888888)"/><use xlink:href="#i" transform="matrix(1,0,0,1,248,4341.6) translate(144.17407407407404 15.688888888888888)"/><use xlink:href="#j" transform="matrix(1,0,0,1,248,4341.6) translate(167.63950617283948 15.688888888888888)"/><use xlink:href="#k" transform="matrix(1,0,0,1,248,4341.6) translate(198.3802469135802 15.688888888888888)"/><use xlink:href="#l" transform="matrix(1,0,0,1,248,4341.6) translate(262.93580246913575 15.688888888888888)"/><use xlink:href="#m" transform="matrix(1,0,0,1,248,4373.6) translate(0 15.688888888888888)"/><use xlink:href="#n" transform="matrix(1,0,0,1,248,4373.6) translate(48.10925925925925 15.688888888888888)"/><use xlink:href="#o" transform="matrix(1,0,0,1,248,4373.6) translate(62.403703703703684 15.688888888888888)"/><use xlink:href="#p" transform="matrix(1,0,0,1,248,4373.6) translate(77.77407407407405 15.688888888888888)"/><use xlink:href="#q" transform="matrix(1,0,0,1,248,4373.6) translate(122.86049382716047 15.688888888888888)"/><use xlink:href="#r" transform="matrix(1,0,0,1,248,4373.6) translate(178.19382716049378 15.688888888888888)"/><use xlink:href="#s" transform="matrix(1,0,0,1,248,4373.6) translate(209.90802469135798 15.688888888888888)"/><use xlink:href="#t" transform="matrix(1,0,0,1,248,4405.6) translate(0 15.015555555555558)"/><use xlink:href="#u" transform="matrix(1,0,0,1,248,4405.6) translate(48.10925925925925 15.015555555555558)"/><use xlink:href="#v" transform="matrix(1,0,0,1,248,4405.6) translate(97.29444444444442 15.015555555555558)"/><use xlink:href="#w" transform="matrix(1,0,0,1,248,4405.6) translate(143.4055555555555 15.015555555555558)"/><use xlink:href="#x" transform="matrix(1,0,0,1,248,4405.6) translate(163.89938271604933 15.015555555555558)"/><use xlink:href="#y" transform="matrix(1,0,0,1,248,4405.6) translate(189.5166666666666 15.015555555555558)"/><use xlink:href="#z" transform="matrix(1,0,0,1,248,4405.6) translate(278.511111111111 15.015555555555558)"/><use xlink:href="#A" transform="matrix(1,0,0,1,248,4405.6) translate(335.8425925925925 15.015555555555558)"/><use xlink:href="#j" transform="matrix(1,0,0,1,248,4405.6) translate(0 39.36222222222222)"/><use xlink:href="#B" transform="matrix(1,0,0,1,248,4405.6) translate(30.740740740740733 39.36222222222222)"/><path d="M100 4703.67a6 6 0 0 1 6-6h208a6 6 0 0 1 6 6v148a6 6 0 0 1-6 6H106a6 6 0 0 1-6-6z" stroke="#3a414a" fill="#fff"/><path d="M100 4740.33h220M100 4799h220" stroke="#3a414a" fill="none"/><use xlink:href="#c" transform="matrix(1,0,0,1,108,4705.666666666666) translate(68.14197530864197 17.944444444444443)"/><path d="M430 4703.67a6 6 0 0 1 6-6h208a6 6 0 0 1 6 6v148a6 6 0 0 1-6 6H436a6 6 0 0 1-6-6z" stroke="#3a414a" fill="#fff"/><path d="M430 4740.33h220M430 4799h220" stroke="#3a414a" fill="none"/><use xlink:href="#C" transform="matrix(1,0,0,1,438,4705.666666666666) translate(42.154320987654316 17.944444444444443)"/><path d="M322 4777.67h86.88" stroke="#3a414a" stroke-width="3" fill="none"/><path d="M322.04 4779.17h-1.54v-3h1.54z" stroke="#3a414a" stroke-width=".05" fill="#3a414a"/><path d="M424.65 4777.67l-14.27 4.63v-9.27z" stroke="#3a414a" stroke-width="3" fill="#3a414a"/><path d="M760 4703.67a6 6 0 0 1 6-6h208a6 6 0 0 1 6 6v148a6 6 0 0 1-6 6H766a6 6 0 0 1-6-6z" stroke="#3a414a" fill="#fff"/><path d="M760 4740.33h220M760 4799h220" stroke="#3a414a" fill="none"/><use xlink:href="#d" transform="matrix(1,0,0,1,768,4705.666666666666) translate(70.51851851851852 17.944444444444443)"/><path d="M652 4777.67h86.88" stroke="#3a414a" stroke-width="3" fill="none"/><path d="M652.04 4779.17h-1.54v-3h1.54z" stroke="#3a414a" stroke-width=".05" fill="#3a414a"/><path d="M754.65 4777.67l-14.27 4.63v-9.27z" stroke="#3a414a" stroke-width="3" fill="#3a414a"/><path d="M420 4649.33a6 6 0 0 1 6-6h228a6 6 0 0 1 6 6v48a6 6 0 0 1-6 6H426a6 6 0 0 1-6-6z" stroke="#000" stroke-opacity="0" stroke-width="3" fill="#fff" fill-opacity="0"/><use xlink:href="#D" transform="matrix(1,0,0,1,425,4648.333333333333) translate(48.98148148148148 30.27777777777778)"/><use xlink:href="#E" transform="matrix(1,0,0,1,425,4648.333333333333) translate(102.0679012345679 30.27777777777778)"/><path d="M100 5069.44a6 6 0 0 1 6-6h208a6 6 0 0 1 6 6v148a6 6 0 0 1-6 6H106a6 6 0 0 1-6-6z" stroke="#3a414a" fill="#fff"/><path d="M100 5106.1h220m-220 58.67h220" stroke="#3a414a" fill="none"/><use xlink:href="#F" transform="matrix(1,0,0,1,108,5071.439999999999) translate(73.69753086419753 17.944444444444443)"/><path d="M560 5069.44a6 6 0 0 1 6-6h208a6 6 0 0 1 6 6v148a6 6 0 0 1-6 6H566a6 6 0 0 1-6-6z" stroke="#3a414a" fill="#fff"/><path d="M560 5106.1h220m-220 58.67h220" stroke="#3a414a" fill="none"/><use xlink:href="#G" transform="matrix(1,0,0,1,568,5071.439999999999) translate(64.99382716049382 17.944444444444443)"/><use xlink:href="#H" transform="matrix(1,0,0,1,572,5172.773333333333) translate(0 25.944444444444443)"/><path d="M200 5306a6 6 0 0 1 6-6h208a6 6 0 0 1 6 6v148a6 6 0 0 1-6 6H206a6 6 0 0 1-6-6z" stroke="#3a414a" fill="#fff"/><path d="M200 5342.67h220m-220 58.66h220" stroke="#3a414a" fill="none"/><use xlink:href="#I" transform="matrix(1,0,0,1,208,5308) translate(42.216049382716044 17.944444444444443)"/><use xlink:href="#H" transform="matrix(1,0,0,1,212,5409.333333333334) translate(0 25.944444444444443)"/><path d="M600 5306a6 6 0 0 1 6-6h208a6 6 0 0 1 6 6v148a6 6 0 0 1-6 6H606a6 6 0 0 1-6-6z" stroke="#3a414a" fill="#fff"/><path d="M600 5342.67h220m-220 58.66h220" stroke="#3a414a" fill="none"/><use xlink:href="#J" transform="matrix(1,0,0,1,608,5308) translate(73.6358024691358 17.944444444444443)"/><use xlink:href="#H" transform="matrix(1,0,0,1,612,5409.333333333334) translate(0 25.944444444444443)"/><path d="M310 5298v-32.5a6 6 0 0 1 6-6h388a6 6 0 0 1 6 6v32.5" stroke="#3a414a" stroke-width="3" fill="none"/><path d="M311.5 5299.5h-3v-1.54h3zM711.5 5299.5h-3v-1.54h3z" stroke="#3a414a" stroke-width=".05" fill="#3a414a"/><path d="M670 5244.56V5258" stroke="#3a414a" stroke-width="3" fill="none"/><path d="M670 5228.8l4.63 14.26h-9.26z" stroke="#3a414a" stroke-width="3" fill="#3a414a"/><path d="M670 5257.96v1.54M568.38 5380H441.1" stroke="#3a414a" stroke-width="3" fill="none"/><path d="M597.38 5380l-14.85 14.85-15.15-14.85 15.15-14.85zM425.35 5380l14.27-4.64v9.28z" stroke="#3a414a" stroke-width="3" fill="#3a414a"/><path d="M550 5009.44a6 6 0 0 1 6-6h228a6 6 0 0 1 6 6v48a6 6 0 0 1-6 6H556a6 6 0 0 1-6-6z" stroke="#000" stroke-opacity="0" stroke-width="3" fill="#fff" fill-opacity="0"/><use xlink:href="#K" transform="matrix(1,0,0,1,555,5008.439999999999) translate(71.82098765432099 30.27777777777778)"/><path d="M322 5143.44h216.88" stroke="#3a414a" stroke-width="3" fill="none"/><path d="M322.04 5144.94h-1.54v-3h1.54z" stroke="#3a414a" stroke-width=".05" fill="#3a414a"/><path d="M554.65 5143.44l-14.27 4.64v-9.27z" stroke="#3a414a" stroke-width="3" fill="#3a414a"/><path d="M860 5229.44a6 6 0 0 1 6-6h308a6 6 0 0 1 6 6v68a6 6 0 0 1-6 6H866a6 6 0 0 1-6-6z" stroke="#3a414a" stroke-width="3" fill="#fff"/><use xlink:href="#L" transform="matrix(1,0,0,1,872,5235.439999999999) translate(1.3094618055555145 35.2734375)"/><path d="M725.85 5430.24l4.94-3.88m9.9-7.78l9.88-7.77m9.9-7.76l9.9-7.78m9.88-7.77l9.9-7.78m9.9-7.78l9.9-7.77m9.88-7.77l9.9-7.78m9.9-7.77l9.88-7.78m9.9-7.77l9.9-7.77m9.9-7.78l4.93-3.88M725.88 5430.22l-1.2.95" stroke="#ced4db" stroke-width="3" fill="none"/><path d="M885.05 5307.07l-1.67-2.13h4.38z" stroke="#ced4db" stroke-width=".05" fill="#ced4db"/><path d="M100 5726a6 6 0 0 1 6-6h208a6 6 0 0 1 6 6v148a6 6 0 0 1-6 6H106a6 6 0 0 1-6-6z" stroke="#3a414a" fill="#fff"/><path d="M100 5762.67h220m-220 58.66h220" stroke="#3a414a" fill="none"/><use xlink:href="#c" transform="matrix(1,0,0,1,108,5728) translate(68.14197530864197 17.944444444444443)"/><use xlink:href="#M" transform="matrix(1,0,0,1,112,5829.333333333334) translate(0 25.944444444444443)"/><path d="M560 5726a6 6 0 0 1 6-6h208a6 6 0 0 1 6 6v148a6 6 0 0 1-6 6H566a6 6 0 0 1-6-6z" stroke="#3a414a" fill="#fff"/><path d="M560 5762.67h220m-220 58.66h220" stroke="#3a414a" fill="none"/><use xlink:href="#d" transform="matrix(1,0,0,1,568,5728) translate(70.51851851851852 17.944444444444443)"/><use xlink:href="#N" transform="matrix(1,0,0,1,572,5829.333333333334) translate(0 25.944444444444443)"/><path d="M200 5962.56a6 6 0 0 1 6-6h208a6 6 0 0 1 6 6v148a6 6 0 0 1-6 6H206a6 6 0 0 1-6-6z" stroke="#3a414a" fill="#fff"/><path d="M200 5999.23h220m-220 58.66h220" stroke="#3a414a" fill="none"/><use xlink:href="#O" transform="matrix(1,0,0,1,208,5964.560000000001) translate(47.74074074074073 17.944444444444443)"/><use xlink:href="#N" transform="matrix(1,0,0,1,212,6065.893333333335) translate(0 25.944444444444443)"/><path d="M600 5962.56a6 6 0 0 1 6-6h208a6 6 0 0 1 6 6v148a6 6 0 0 1-6 6H606a6 6 0 0 1-6-6z" stroke="#3a414a" fill="#fff"/><path d="M600 5999.23h220m-220 58.66h220" stroke="#3a414a" fill="none"/><use xlink:href="#C" transform="matrix(1,0,0,1,608,5964.560000000001) translate(42.154320987654316 17.944444444444443)"/><g><use xlink:href="#P" transform="matrix(1,0,0,1,612,6007.226666666668) translate(0 25.944444444444443)"/><use xlink:href="#Q" transform="matrix(1,0,0,1,612,6007.226666666668) translate(72.83950617283949 25.944444444444443)"/></g><g><use xlink:href="#N" transform="matrix(1,0,0,1,612,6065.893333333335) translate(0 25.944444444444443)"/></g><path d="M310 5954.56v-32.5a6 6 0 0 1 6-6h388a6 6 0 0 1 6 6v32.5" stroke="#3a414a" stroke-width="3" fill="none"/><path d="M311.5 5956.06h-3v-1.54h3zM711.5 5956.06h-3v-1.54h3z" stroke="#3a414a" stroke-width=".05" fill="#3a414a"/><path d="M670 5901.12v13.44" stroke="#3a414a" stroke-width="3" fill="none"/><path d="M670 5885.35l4.63 14.27h-9.26z" stroke="#3a414a" stroke-width="3" fill="#3a414a"/><path d="M670 5914.52v1.54M568.38 6036.56H441.1" stroke="#3a414a" stroke-width="3" fill="none"/><path d="M597.38 6036.56l-14.85 14.85-15.15-14.84 15.15-14.85zM425.35 6036.56l14.27-4.64v9.27z" stroke="#3a414a" stroke-width="3" fill="#3a414a"/><path d="M550 5666a6 6 0 0 1 6-6h228a6 6 0 0 1 6 6v48a6 6 0 0 1-6 6H556a6 6 0 0 1-6-6z" stroke="#000" stroke-opacity="0" stroke-width="3" fill="#fff" fill-opacity="0"/><g><use xlink:href="#K" transform="matrix(1,0,0,1,555,5665) translate(71.82098765432099 30.27777777777778)"/></g><path d="M322 5800h216.88" stroke="#3a414a" stroke-width="3" fill="none"/><path d="M322.04 5801.5h-1.54v-3h1.54z" stroke="#3a414a" stroke-width=".05" fill="#3a414a"/><path d="M554.65 5800l-14.27 4.64v-9.28z" stroke="#3a414a" stroke-width="3" fill="#3a414a"/><path d="M860 5869.56a6 6 0 0 1 6-6h308a6 6 0 0 1 6 6v100.88a6 6 0 0 1-6 6H866a6 6 0 0 1-6-6z" stroke="#3a414a" stroke-width="3" fill="#fff"/><g><use xlink:href="#R" transform="matrix(1,0,0,1,872,5875.555555555556) translate(0 20.5546875)"/><use xlink:href="#S" transform="matrix(1,0,0,1,872,5875.555555555556) translate(40.006510416666664 20.5546875)"/><use xlink:href="#T" transform="matrix(1,0,0,1,872,5875.555555555556) translate(133.35503472222223 20.5546875)"/><use xlink:href="#U" transform="matrix(1,0,0,1,872,5875.555555555556) translate(173.36154513888889 20.5546875)"/><use xlink:href="#V" transform="matrix(1,0,0,1,872,5875.555555555556) translate(253.37456597222223 20.5546875)"/><use xlink:href="#W" transform="matrix(1,0,0,1,872,5875.555555555556) translate(0 42.77690972222222)"/><use xlink:href="#X" transform="matrix(1,0,0,1,872,5875.555555555556) translate(26.671006944444443 42.77690972222222)"/><use xlink:href="#Y" transform="matrix(1,0,0,1,872,5875.555555555556) translate(106.68402777777779 42.77690972222222)"/><use xlink:href="#Z" transform="matrix(1,0,0,1,872,5875.555555555556) translate(133.35503472222223 42.77690972222222)"/><use xlink:href="#aa" transform="matrix(1,0,0,1,872,5875.555555555556) translate(186.69704861111111 42.77690972222222)"/><use xlink:href="#ab" transform="matrix(1,0,0,1,872,5875.555555555556) translate(0 64.99913194444444)"/><use xlink:href="#ac" transform="matrix(1,0,0,1,872,5875.555555555556) translate(0 87.22135416666666)"/></g><path d="M725.9 6086.9l5-3.4m9.97-6.74l9.98-6.76m9.97-6.76l9.98-6.76m9.97-6.75l9.98-6.76m9.97-6.75l9.98-6.76m9.97-6.76l9.98-6.75m9.97-6.76l9.98-6.77m9.97-6.75l9.98-6.76m9.97-6.76l5-3.37M725.94 6086.87l-1.27.86" stroke="#ced4db" stroke-width="3" fill="none"/><path d="M886.32 5980.05l-1.43-2.1h4.53z" stroke="#ced4db" stroke-width=".05" fill="#ced4db"/><defs><path fill="#e81313" d="M30-248c87 1 191-15 191 75 0 78-77 80-158 76V0H30v-248zm33 125c57 0 124 11 124-50 0-59-68-47-124-48v98" id="ad"/><path fill="#e81313" d="M114-163C36-179 61-72 57 0H25l-1-190h30c1 12-1 29 2 39 6-27 23-49 58-41v29" id="ae"/><path fill="#e81313" d="M100-194c62-1 85 37 85 99 1 63-27 99-86 99S16-35 15-95c0-66 28-99 85-99zM99-20c44 1 53-31 53-75 0-43-8-75-51-75s-53 32-53 75 10 74 51 75" id="af"/><path fill="#e81313" d="M115-194c53 0 69 39 70 98 0 66-23 100-70 100C84 3 66-7 56-30L54 0H23l1-261h32v101c10-23 28-34 59-34zm-8 174c40 0 45-34 45-75 0-40-5-75-45-74-42 0-51 32-51 76 0 43 10 73 51 73" id="ag"/><path fill="#e81313" d="M24 0v-261h32V0H24" id="ah"/><path fill="#e81313" d="M100-194c63 0 86 42 84 106H49c0 40 14 67 53 68 26 1 43-12 49-29l28 8c-11 28-37 45-77 45C44 4 14-33 15-96c1-61 26-98 85-98zm52 81c6-60-76-77-97-28-3 7-6 17-6 28h103" id="ai"/><path fill="#e81313" d="M210-169c-67 3-38 105-44 169h-31v-121c0-29-5-50-35-48C34-165 62-65 56 0H25l-1-190h30c1 10-1 24 2 32 10-44 99-50 107 0 11-21 27-35 58-36 85-2 47 119 55 194h-31v-121c0-29-5-49-35-48" id="aj"/><g id="a"><use transform="matrix(0.12345679012345674,0,0,0.12345679012345674,0,0)" xlink:href="#ad"/><use transform="matrix(0.12345679012345674,0,0,0.12345679012345674,29.62962962962962,0)" xlink:href="#ae"/><use transform="matrix(0.12345679012345674,0,0,0.12345679012345674,44.32098765432097,0)" xlink:href="#af"/><use transform="matrix(0.12345679012345674,0,0,0.12345679012345674,69.01234567901233,0)" xlink:href="#ag"/><use transform="matrix(0.12345679012345674,0,0,0.12345679012345674,93.70370370370367,0)" xlink:href="#ah"/><use transform="matrix(0.12345679012345674,0,0,0.12345679012345674,103.45679012345676,0)" xlink:href="#ai"/><use transform="matrix(0.12345679012345674,0,0,0.12345679012345674,128.1481481481481,0)" xlink:href="#aj"/></g><path fill="#008a0e" d="M185-189c-5-48-123-54-124 2 14 75 158 14 163 119 3 78-121 87-175 55-17-10-28-26-33-46l33-7c5 56 141 63 141-1 0-78-155-14-162-118-5-82 145-84 179-34 5 7 8 16 11 25" id="ak"/><path fill="#008a0e" d="M100-194c62-1 85 37 85 99 1 63-27 99-86 99S16-35 15-95c0-66 28-99 85-99zM99-20c44 1 53-31 53-75 0-43-8-75-51-75s-53 32-53 75 10 74 51 75" id="al"/><path fill="#008a0e" d="M24 0v-261h32V0H24" id="am"/><path fill="#008a0e" d="M84 4C-5 8 30-112 23-190h32v120c0 31 7 50 39 49 72-2 45-101 50-169h31l1 190h-30c-1-10 1-25-2-33-11 22-28 36-60 37" id="an"/><path fill="#008a0e" d="M59-47c-2 24 18 29 38 22v24C64 9 27 4 27-40v-127H5v-23h24l9-43h21v43h35v23H59v120" id="ao"/><path fill="#008a0e" d="M24-231v-30h32v30H24zM24 0v-190h32V0H24" id="ap"/><path fill="#008a0e" d="M117-194c89-4 53 116 60 194h-32v-121c0-31-8-49-39-48C34-167 62-67 57 0H25l-1-190h30c1 10-1 24 2 32 11-22 29-35 61-36" id="aq"/><g id="b"><use transform="matrix(0.12345679012345674,0,0,0.12345679012345674,0,0)" xlink:href="#ak"/><use transform="matrix(0.12345679012345674,0,0,0.12345679012345674,29.62962962962962,0)" xlink:href="#al"/><use transform="matrix(0.12345679012345674,0,0,0.12345679012345674,54.320987654320966,0)" xlink:href="#am"/><use transform="matrix(0.12345679012345674,0,0,0.12345679012345674,64.07407407407405,0)" xlink:href="#an"/><use transform="matrix(0.12345679012345674,0,0,0.12345679012345674,88.76543209876539,0)" xlink:href="#ao"/><use transform="matrix(0.12345679012345674,0,0,0.12345679012345674,101.11111111111106,0)" xlink:href="#ap"/><use transform="matrix(0.12345679012345674,0,0,0.12345679012345674,110.86419753086415,0)" xlink:href="#al"/><use transform="matrix(0.12345679012345674,0,0,0.12345679012345674,135.5555555555555,0)" xlink:href="#aq"/></g><path fill="#3a414a" d="M30 0v-248h33v221h125V0H30" id="ar"/><path fill="#3a414a" d="M24-231v-30h32v30H24zM24 0v-190h32V0H24" id="as"/><path fill="#3a414a" d="M115-194c53 0 69 39 70 98 0 66-23 100-70 100C84 3 66-7 56-30L54 0H23l1-261h32v101c10-23 28-34 59-34zm-8 174c40 0 45-34 45-75 0-40-5-75-45-74-42 0-51 32-51 76 0 43 10 73 51 73" id="at"/><path fill="#3a414a" d="M114-163C36-179 61-72 57 0H25l-1-190h30c1 12-1 29 2 39 6-27 23-49 58-41v29" id="au"/><path fill="#3a414a" d="M141-36C126-15 110 5 73 4 37 3 15-17 15-53c-1-64 63-63 125-63 3-35-9-54-41-54-24 1-41 7-42 31l-33-3c5-37 33-52 76-52 45 0 72 20 72 64v82c-1 20 7 32 28 27v20c-31 9-61-2-59-35zM48-53c0 20 12 33 32 33 41-3 63-29 60-74-43 2-92-5-92 41" id="av"/><path fill="#3a414a" d="M179-190L93 31C79 59 56 82 12 73V49c39 6 53-20 64-50L1-190h34L92-34l54-156h33" id="aw"/><g id="c"><use transform="matrix(0.06172839506172839,0,0,0.06172839506172839,0,0)" xlink:href="#ar"/><use transform="matrix(0.06172839506172839,0,0,0.06172839506172839,12.345679012345679,0)" xlink:href="#as"/><use transform="matrix(0.06172839506172839,0,0,0.06172839506172839,17.22222222222222,0)" xlink:href="#at"/><use transform="matrix(0.06172839506172839,0,0,0.06172839506172839,29.5679012345679,0)" xlink:href="#au"/><use transform="matrix(0.06172839506172839,0,0,0.06172839506172839,36.913580246913575,0)" xlink:href="#av"/><use transform="matrix(0.06172839506172839,0,0,0.06172839506172839,49.25925925925925,0)" xlink:href="#au"/><use transform="matrix(0.06172839506172839,0,0,0.06172839506172839,56.60493827160493,0)" xlink:href="#aw"/></g><path fill="#3a414a" d="M30 0v-248h187v28H63v79h144v27H63v87h162V0H30" id="ax"/><path fill="#3a414a" d="M100-194c62-1 85 37 85 99 1 63-27 99-86 99S16-35 15-95c0-66 28-99 85-99zM99-20c44 1 53-31 53-75 0-43-8-75-51-75s-53 32-53 75 10 74 51 75" id="ay"/><path fill="#3a414a" d="M143 0L79-87 56-68V0H24v-261h32v163l83-92h37l-77 82L181 0h-38" id="az"/><g id="d"><use transform="matrix(0.06172839506172839,0,0,0.06172839506172839,0,0)" xlink:href="#ax"/><use transform="matrix(0.06172839506172839,0,0,0.06172839506172839,14.814814814814813,0)" xlink:href="#at"/><use transform="matrix(0.06172839506172839,0,0,0.06172839506172839,27.160493827160494,0)" xlink:href="#ay"/><use transform="matrix(0.06172839506172839,0,0,0.06172839506172839,39.50617283950617,0)" xlink:href="#ay"/><use transform="matrix(0.06172839506172839,0,0,0.06172839506172839,51.85185185185185,0)" xlink:href="#az"/></g><path d="M24 0v-248h52V0H24" id="aA"/><path d="M137-138c1-29-70-34-71-4 15 46 118 7 119 86 1 83-164 76-172 9l43-7c4 19 20 25 44 25 33 8 57-30 24-41C81-84 22-81 20-136c-2-80 154-74 161-7" id="aB"/><path d="M85 4C-2 5 27-109 22-190h50c7 57-23 150 33 157 60-5 35-97 40-157h50l1 190h-47c-2-12 1-28-3-38-12 25-28 42-61 42" id="aC"/><path d="M185-48c-13 30-37 53-82 52C43 2 14-33 14-96s30-98 90-98c62 0 83 45 84 108H66c0 31 8 55 39 56 18 0 30-7 34-22zm-45-69c5-46-57-63-70-21-2 6-4 13-4 21h74" id="aD"/><g id="e"><use transform="matrix(0.05,0,0,0.05,0,0)" xlink:href="#aA"/><use transform="matrix(0.05,0,0,0.05,5,0)" xlink:href="#aB"/><use transform="matrix(0.05,0,0,0.05,15,0)" xlink:href="#aB"/><use transform="matrix(0.05,0,0,0.05,25,0)" xlink:href="#aC"/><use transform="matrix(0.05,0,0,0.05,35.95,0)" xlink:href="#aD"/><use transform="matrix(0.05,0,0,0.05,45.95,0)" xlink:href="#aB"/></g><path d="M30 0v-248h33v221h125V0H30" id="aE"/><path d="M24-231v-30h32v30H24zM24 0v-190h32V0H24" id="aF"/><path d="M115-194c53 0 69 39 70 98 0 66-23 100-70 100C84 3 66-7 56-30L54 0H23l1-261h32v101c10-23 28-34 59-34zm-8 174c40 0 45-34 45-75 0-40-5-75-45-74-42 0-51 32-51 76 0 43 10 73 51 73" id="aG"/><path d="M114-163C36-179 61-72 57 0H25l-1-190h30c1 12-1 29 2 39 6-27 23-49 58-41v29" id="aH"/><path d="M141-36C126-15 110 5 73 4 37 3 15-17 15-53c-1-64 63-63 125-63 3-35-9-54-41-54-24 1-41 7-42 31l-33-3c5-37 33-52 76-52 45 0 72 20 72 64v82c-1 20 7 32 28 27v20c-31 9-61-2-59-35zM48-53c0 20 12 33 32 33 41-3 63-29 60-74-43 2-92-5-92 41" id="aI"/><path d="M179-190L93 31C79 59 56 82 12 73V49c39 6 53-20 64-50L1-190h34L92-34l54-156h33" id="aJ"/><g id="f"><use transform="matrix(0.051234567901234554,0,0,0.051234567901234554,0,0)" xlink:href="#aE"/><use transform="matrix(0.051234567901234554,0,0,0.051234567901234554,10.246913580246911,0)" xlink:href="#aF"/><use transform="matrix(0.051234567901234554,0,0,0.051234567901234554,14.29444444444444,0)" xlink:href="#aG"/><use transform="matrix(0.051234567901234554,0,0,0.051234567901234554,24.541358024691352,0)" xlink:href="#aH"/><use transform="matrix(0.051234567901234554,0,0,0.051234567901234554,30.638271604938264,0)" xlink:href="#aI"/><use transform="matrix(0.051234567901234554,0,0,0.051234567901234554,40.88518518518518,0)" xlink:href="#aH"/><use transform="matrix(0.051234567901234554,0,0,0.051234567901234554,46.98209876543209,0)" xlink:href="#aJ"/></g><path d="M135-143c-3-34-86-38-87 0 15 53 115 12 119 90S17 21 10-45l28-5c4 36 97 45 98 0-10-56-113-15-118-90-4-57 82-63 122-42 12 7 21 19 24 35" id="aK"/><g id="g"><use transform="matrix(0.051234567901234554,0,0,0.051234567901234554,0,0)" xlink:href="#aF"/><use transform="matrix(0.051234567901234554,0,0,0.051234567901234554,4.04753086419753,0)" xlink:href="#aK"/></g><path d="M24 0v-261h32V0H24" id="aL"/><path d="M100-194c62-1 85 37 85 99 1 63-27 99-86 99S16-35 15-95c0-66 28-99 85-99zM99-20c44 1 53-31 53-75 0-43-8-75-51-75s-53 32-53 75 10 74 51 75" id="aM"/><path d="M85-194c31 0 48 13 60 33l-1-100h32l1 261h-30c-2-10 0-23-3-31C134-8 116 4 85 4 32 4 16-35 15-94c0-66 23-100 70-100zm9 24c-40 0-46 34-46 75 0 40 6 74 45 74 42 0 51-32 51-76 0-42-9-74-50-73" id="aN"/><path d="M117-194c89-4 53 116 60 194h-32v-121c0-31-8-49-39-48C34-167 62-67 57 0H25l-1-190h30c1 10-1 24 2 32 11-22 29-35 61-36" id="aO"/><path d="M177-190C167-65 218 103 67 71c-23-6-38-20-44-43l32-5c15 47 100 32 89-28v-30C133-14 115 1 83 1 29 1 15-40 15-95c0-56 16-97 71-98 29-1 48 16 59 35 1-10 0-23 2-32h30zM94-22c36 0 50-32 50-73 0-42-14-75-50-75-39 0-46 34-46 75s6 73 46 73" id="aP"/><g id="h"><use transform="matrix(0.051234567901234554,0,0,0.051234567901234554,0,0)" xlink:href="#aL"/><use transform="matrix(0.051234567901234554,0,0,0.051234567901234554,4.04753086419753,0)" xlink:href="#aM"/><use transform="matrix(0.051234567901234554,0,0,0.051234567901234554,14.29444444444444,0)" xlink:href="#aI"/><use transform="matrix(0.051234567901234554,0,0,0.051234567901234554,24.541358024691352,0)" xlink:href="#aN"/><use transform="matrix(0.051234567901234554,0,0,0.051234567901234554,34.78827160493826,0)" xlink:href="#aF"/><use transform="matrix(0.051234567901234554,0,0,0.051234567901234554,38.835802469135785,0)" xlink:href="#aO"/><use transform="matrix(0.051234567901234554,0,0,0.051234567901234554,49.0827160493827,0)" xlink:href="#aP"/></g><g id="i"><use transform="matrix(0.051234567901234554,0,0,0.051234567901234554,0,0)" xlink:href="#aI"/><use transform="matrix(0.051234567901234554,0,0,0.051234567901234554,10.246913580246911,0)" xlink:href="#aL"/><use transform="matrix(0.051234567901234554,0,0,0.051234567901234554,14.29444444444444,0)" xlink:href="#aL"/></g><path d="M59-47c-2 24 18 29 38 22v24C64 9 27 4 27-40v-127H5v-23h24l9-43h21v43h35v23H59v120" id="aQ"/><path d="M106-169C34-169 62-67 57 0H25v-261h32l-1 103c12-21 28-36 61-36 89 0 53 116 60 194h-32v-121c2-32-8-49-39-48" id="aR"/><path d="M100-194c63 0 86 42 84 106H49c0 40 14 67 53 68 26 1 43-12 49-29l28 8c-11 28-37 45-77 45C44 4 14-33 15-96c1-61 26-98 85-98zm52 81c6-60-76-77-97-28-3 7-6 17-6 28h103" id="aS"/><g id="j"><use transform="matrix(0.051234567901234554,0,0,0.051234567901234554,0,0)" xlink:href="#aQ"/><use transform="matrix(0.051234567901234554,0,0,0.051234567901234554,5.123456790123456,0)" xlink:href="#aR"/><use transform="matrix(0.051234567901234554,0,0,0.051234567901234554,15.370370370370367,0)" xlink:href="#aS"/></g><path d="M143 0L79-87 56-68V0H24v-261h32v163l83-92h37l-77 82L181 0h-38" id="aT"/><g id="k"><use transform="matrix(0.051234567901234554,0,0,0.051234567901234554,0,0)" xlink:href="#aS"/><use transform="matrix(0.051234567901234554,0,0,0.051234567901234554,10.246913580246911,0)" xlink:href="#aG"/><use transform="matrix(0.051234567901234554,0,0,0.051234567901234554,20.493827160493822,0)" xlink:href="#aM"/><use transform="matrix(0.051234567901234554,0,0,0.051234567901234554,30.740740740740733,0)" xlink:href="#aM"/><use transform="matrix(0.051234567901234554,0,0,0.051234567901234554,40.987654320987644,0)" xlink:href="#aT"/><use transform="matrix(0.051234567901234554,0,0,0.051234567901234554,50.209876543209866,0)" xlink:href="#aK"/></g><path d="M84 4C-5 8 30-112 23-190h32v120c0 31 7 50 39 49 72-2 45-101 50-169h31l1 190h-30c-1-10 1-25-2-33-11 22-28 36-60 37" id="aU"/><path d="M115-194c55 1 70 41 70 98S169 2 115 4C84 4 66-9 55-30l1 105H24l-1-265h31l2 30c10-21 28-34 59-34zm-8 174c40 0 45-34 45-75s-6-73-45-74c-42 0-51 32-51 76 0 43 10 73 51 73" id="aV"/><path d="M101-234c-31-9-42 10-38 44h38v23H63V0H32v-167H5v-23h27c-7-52 17-82 69-68v24" id="aW"/><g id="l"><use transform="matrix(0.051234567901234554,0,0,0.051234567901234554,0,0)" xlink:href="#aU"/><use transform="matrix(0.051234567901234554,0,0,0.051234567901234554,10.246913580246911,0)" xlink:href="#aV"/><use transform="matrix(0.051234567901234554,0,0,0.051234567901234554,20.493827160493822,0)" xlink:href="#aW"/><use transform="matrix(0.051234567901234554,0,0,0.051234567901234554,25.617283950617278,0)" xlink:href="#aH"/><use transform="matrix(0.051234567901234554,0,0,0.051234567901234554,31.71419753086419,0)" xlink:href="#aM"/><use transform="matrix(0.051234567901234554,0,0,0.051234567901234554,41.9611111111111,0)" xlink:href="#aO"/><use transform="matrix(0.051234567901234554,0,0,0.051234567901234554,52.20802469135801,0)" xlink:href="#aQ"/></g><path d="M266 0h-40l-56-210L115 0H75L2-248h35L96-30l15-64 43-154h32l59 218 59-218h35" id="aX"/><g id="m"><use transform="matrix(0.051234567901234554,0,0,0.051234567901234554,0,0)" xlink:href="#aX"/><use transform="matrix(0.051234567901234554,0,0,0.051234567901234554,17.368518518518513,0)" xlink:href="#aR"/><use transform="matrix(0.051234567901234554,0,0,0.051234567901234554,27.615432098765424,0)" xlink:href="#aI"/><use transform="matrix(0.051234567901234554,0,0,0.051234567901234554,37.862345679012336,0)" xlink:href="#aQ"/></g><g id="n"><use transform="matrix(0.051234567901234554,0,0,0.051234567901234554,0,0)" xlink:href="#aF"/><use transform="matrix(0.051234567901234554,0,0,0.051234567901234554,4.04753086419753,0)" xlink:href="#aW"/></g><use transform="matrix(0.051234567901234554,0,0,0.051234567901234554,0,0)" xlink:href="#aI" id="o"/><g id="p"><use transform="matrix(0.051234567901234554,0,0,0.051234567901234554,0,0)" xlink:href="#aG"/><use transform="matrix(0.051234567901234554,0,0,0.051234567901234554,10.246913580246911,0)" xlink:href="#aM"/><use transform="matrix(0.051234567901234554,0,0,0.051234567901234554,20.493827160493822,0)" xlink:href="#aM"/><use transform="matrix(0.051234567901234554,0,0,0.051234567901234554,30.740740740740733,0)" xlink:href="#aT"/></g><g id="q"><use transform="matrix(0.051234567901234554,0,0,0.051234567901234554,0,0)" xlink:href="#aO"/><use transform="matrix(0.051234567901234554,0,0,0.051234567901234554,10.246913580246911,0)" xlink:href="#aS"/><use transform="matrix(0.051234567901234554,0,0,0.051234567901234554,20.493827160493822,0)" xlink:href="#aS"/><use transform="matrix(0.051234567901234554,0,0,0.051234567901234554,30.740740740740733,0)" xlink:href="#aN"/><use transform="matrix(0.051234567901234554,0,0,0.051234567901234554,40.987654320987644,0)" xlink:href="#aK"/></g><g id="r"><use transform="matrix(0.051234567901234554,0,0,0.051234567901234554,0,0)" xlink:href="#aV"/><use transform="matrix(0.051234567901234554,0,0,0.051234567901234554,10.246913580246911,0)" xlink:href="#aH"/><use transform="matrix(0.051234567901234554,0,0,0.051234567901234554,16.343827160493824,0)" xlink:href="#aS"/></g><path d="M9 0v-24l116-142H16v-24h144v24L44-24h123V0H9" id="aY"/><path d="M103-251c84 0 111 97 45 133-19 10-37 24-39 52H78c0-63 77-55 77-114 0-30-21-42-52-43-32 0-53 17-56 46l-32-2c7-45 34-72 88-72zM77 0v-35h34V0H77" id="aZ"/><g id="s"><use transform="matrix(0.051234567901234554,0,0,0.051234567901234554,0,0)" xlink:href="#aI"/><use transform="matrix(0.051234567901234554,0,0,0.051234567901234554,10.246913580246911,0)" xlink:href="#aU"/><use transform="matrix(0.051234567901234554,0,0,0.051234567901234554,20.493827160493822,0)" xlink:href="#aQ"/><use transform="matrix(0.051234567901234554,0,0,0.051234567901234554,25.617283950617278,0)" xlink:href="#aR"/><use transform="matrix(0.051234567901234554,0,0,0.051234567901234554,35.86419753086419,0)" xlink:href="#aM"/><use transform="matrix(0.051234567901234554,0,0,0.051234567901234554,46.1111111111111,0)" xlink:href="#aH"/><use transform="matrix(0.051234567901234554,0,0,0.051234567901234554,52.20802469135801,0)" xlink:href="#aF"/><use transform="matrix(0.051234567901234554,0,0,0.051234567901234554,56.25555555555554,0)" xlink:href="#aY"/><use transform="matrix(0.051234567901234554,0,0,0.051234567901234554,65.47777777777776,0)" xlink:href="#aI"/><use transform="matrix(0.051234567901234554,0,0,0.051234567901234554,75.72469135802467,0)" xlink:href="#aQ"/><use transform="matrix(0.051234567901234554,0,0,0.051234567901234554,80.84814814814813,0)" xlink:href="#aF"/><use transform="matrix(0.051234567901234554,0,0,0.051234567901234554,84.89567901234565,0)" xlink:href="#aM"/><use transform="matrix(0.051234567901234554,0,0,0.051234567901234554,95.14259259259256,0)" xlink:href="#aO"/><use transform="matrix(0.051234567901234554,0,0,0.051234567901234554,105.38950617283948,0)" xlink:href="#aZ"/></g><path d="M30 0v-248h187v28H63v79h144v27H63v87h162V0H30" id="ba"/><path d="M141 0L90-78 38 0H4l68-98-65-92h35l48 74 47-74h35l-64 92 68 98h-35" id="bb"/><g id="t"><use transform="matrix(0.051234567901234554,0,0,0.051234567901234554,0,0)" xlink:href="#ba"/><use transform="matrix(0.051234567901234554,0,0,0.051234567901234554,12.296296296296292,0)" xlink:href="#bb"/><use transform="matrix(0.051234567901234554,0,0,0.051234567901234554,21.518518518518512,0)" xlink:href="#aQ"/><use transform="matrix(0.051234567901234554,0,0,0.051234567901234554,26.641975308641968,0)" xlink:href="#aH"/><use transform="matrix(0.051234567901234554,0,0,0.051234567901234554,32.73888888888888,0)" xlink:href="#aI"/></g><g id="u"><use transform="matrix(0.051234567901234554,0,0,0.051234567901234554,0,0)" xlink:href="#aK"/><use transform="matrix(0.051234567901234554,0,0,0.051234567901234554,9.22222222222222,0)" xlink:href="#aQ"/><use transform="matrix(0.051234567901234554,0,0,0.051234567901234554,14.345679012345675,0)" xlink:href="#aS"/><use transform="matrix(0.051234567901234554,0,0,0.051234567901234554,24.592592592592588,0)" xlink:href="#aV"/><use transform="matrix(0.051234567901234554,0,0,0.051234567901234554,34.8395061728395,0)" xlink:href="#aK"/></g><g id="v"><use transform="matrix(0.051234567901234554,0,0,0.051234567901234554,0,0)" xlink:href="#aO"/><use transform="matrix(0.051234567901234554,0,0,0.051234567901234554,10.246913580246911,0)" xlink:href="#aS"/><use transform="matrix(0.051234567901234554,0,0,0.051234567901234554,20.493827160493822,0)" xlink:href="#aS"/><use transform="matrix(0.051234567901234554,0,0,0.051234567901234554,30.740740740740733,0)" xlink:href="#aN"/></g><g id="w"><use transform="matrix(0.051234567901234554,0,0,0.051234567901234554,0,0)" xlink:href="#aQ"/><use transform="matrix(0.051234567901234554,0,0,0.051234567901234554,5.123456790123456,0)" xlink:href="#aM"/></g><g id="x"><use transform="matrix(0.051234567901234554,0,0,0.051234567901234554,0,0)" xlink:href="#aG"/><use transform="matrix(0.051234567901234554,0,0,0.051234567901234554,10.246913580246911,0)" xlink:href="#aS"/></g><path d="M210-169c-67 3-38 105-44 169h-31v-121c0-29-5-50-35-48C34-165 62-65 56 0H25l-1-190h30c1 10-1 24 2 32 10-44 99-50 107 0 11-21 27-35 58-36 85-2 47 119 55 194h-31v-121c0-29-5-49-35-48" id="bc"/><g id="y"><use transform="matrix(0.051234567901234554,0,0,0.051234567901234554,0,0)" xlink:href="#aV"/><use transform="matrix(0.051234567901234554,0,0,0.051234567901234554,10.246913580246911,0)" xlink:href="#aS"/><use transform="matrix(0.051234567901234554,0,0,0.051234567901234554,20.493827160493822,0)" xlink:href="#aH"/><use transform="matrix(0.051234567901234554,0,0,0.051234567901234554,26.590740740740735,0)" xlink:href="#aW"/><use transform="matrix(0.051234567901234554,0,0,0.051234567901234554,31.71419753086419,0)" xlink:href="#aM"/><use transform="matrix(0.051234567901234554,0,0,0.051234567901234554,41.9611111111111,0)" xlink:href="#aH"/><use transform="matrix(0.051234567901234554,0,0,0.051234567901234554,48.058024691358014,0)" xlink:href="#bc"/><use transform="matrix(0.051234567901234554,0,0,0.051234567901234554,63.37716049382714,0)" xlink:href="#aS"/><use transform="matrix(0.051234567901234554,0,0,0.051234567901234554,73.62407407407406,0)" xlink:href="#aN"/></g><g id="z"><use transform="matrix(0.051234567901234554,0,0,0.051234567901234554,0,0)" xlink:href="#aG"/><use transform="matrix(0.051234567901234554,0,0,0.051234567901234554,10.246913580246911,0)" xlink:href="#aS"/><use transform="matrix(0.051234567901234554,0,0,0.051234567901234554,20.493827160493822,0)" xlink:href="#aW"/><use transform="matrix(0.051234567901234554,0,0,0.051234567901234554,25.617283950617278,0)" xlink:href="#aM"/><use transform="matrix(0.051234567901234554,0,0,0.051234567901234554,35.86419753086419,0)" xlink:href="#aH"/><use transform="matrix(0.051234567901234554,0,0,0.051234567901234554,41.9611111111111,0)" xlink:href="#aS"/></g><g id="A"><use transform="matrix(0.051234567901234554,0,0,0.051234567901234554,0,0)" xlink:href="#aM"/><use transform="matrix(0.051234567901234554,0,0,0.051234567901234554,10.246913580246911,0)" xlink:href="#aV"/><use transform="matrix(0.051234567901234554,0,0,0.051234567901234554,20.493827160493822,0)" xlink:href="#aS"/><use transform="matrix(0.051234567901234554,0,0,0.051234567901234554,30.740740740740733,0)" xlink:href="#aO"/><use transform="matrix(0.051234567901234554,0,0,0.051234567901234554,40.987654320987644,0)" xlink:href="#aF"/><use transform="matrix(0.051234567901234554,0,0,0.051234567901234554,45.03518518518517,0)" xlink:href="#aO"/><use transform="matrix(0.051234567901234554,0,0,0.051234567901234554,55.28209876543208,0)" xlink:href="#aP"/></g><g id="B"><use transform="matrix(0.051234567901234554,0,0,0.051234567901234554,0,0)" xlink:href="#aS"/><use transform="matrix(0.051234567901234554,0,0,0.051234567901234554,10.246913580246911,0)" xlink:href="#aG"/><use transform="matrix(0.051234567901234554,0,0,0.051234567901234554,20.493827160493822,0)" xlink:href="#aM"/><use transform="matrix(0.051234567901234554,0,0,0.051234567901234554,30.740740740740733,0)" xlink:href="#aM"/><use transform="matrix(0.051234567901234554,0,0,0.051234567901234554,40.987654320987644,0)" xlink:href="#aT"/></g><path fill="#3a414a" d="M30-248c87 1 191-15 191 75 0 78-77 80-158 76V0H30v-248zm33 125c57 0 124 11 124-50 0-59-68-47-124-48v98" id="bd"/><path fill="#3a414a" d="M141 0L90-78 38 0H4l68-98-65-92h35l48 74 47-74h35l-64 92 68 98h-35" id="be"/><g id="C"><use transform="matrix(0.06172839506172839,0,0,0.06172839506172839,0,0)" xlink:href="#ax"/><use transform="matrix(0.06172839506172839,0,0,0.06172839506172839,14.814814814814813,0)" xlink:href="#at"/><use transform="matrix(0.06172839506172839,0,0,0.06172839506172839,27.160493827160494,0)" xlink:href="#ay"/><use transform="matrix(0.06172839506172839,0,0,0.06172839506172839,39.50617283950617,0)" xlink:href="#ay"/><use transform="matrix(0.06172839506172839,0,0,0.06172839506172839,51.85185185185185,0)" xlink:href="#az"/><use transform="matrix(0.06172839506172839,0,0,0.06172839506172839,62.96296296296296,0)" xlink:href="#bd"/><use transform="matrix(0.06172839506172839,0,0,0.06172839506172839,77.77777777777777,0)" xlink:href="#au"/><use transform="matrix(0.06172839506172839,0,0,0.06172839506172839,85.12345679012346,0)" xlink:href="#ay"/><use transform="matrix(0.06172839506172839,0,0,0.06172839506172839,97.46913580246914,0)" xlink:href="#be"/><use transform="matrix(0.06172839506172839,0,0,0.06172839506172839,108.58024691358025,0)" xlink:href="#aw"/></g><path fill="#3a414a" d="M9 0v-24l116-142H16v-24h144v24L44-24h123V0H9" id="bf"/><g id="D"><use transform="matrix(0.06172839506172839,0,0,0.06172839506172839,0,0)" xlink:href="#ar"/><use transform="matrix(0.06172839506172839,0,0,0.06172839506172839,12.345679012345679,0)" xlink:href="#av"/><use transform="matrix(0.06172839506172839,0,0,0.06172839506172839,24.691358024691358,0)" xlink:href="#bf"/><use transform="matrix(0.06172839506172839,0,0,0.06172839506172839,35.80246913580247,0)" xlink:href="#aw"/></g><path fill="#3a414a" d="M85-194c31 0 48 13 60 33l-1-100h32l1 261h-30c-2-10 0-23-3-31C134-8 116 4 85 4 32 4 16-35 15-94c0-66 23-100 70-100zm9 24c-40 0-46 34-46 75 0 40 6 74 45 74 42 0 51-32 51-76 0-42-9-74-50-73" id="bg"/><path fill="#3a414a" d="M117-194c89-4 53 116 60 194h-32v-121c0-31-8-49-39-48C34-167 62-67 57 0H25l-1-190h30c1 10-1 24 2 32 11-22 29-35 61-36" id="bh"/><path fill="#3a414a" d="M177-190C167-65 218 103 67 71c-23-6-38-20-44-43l32-5c15 47 100 32 89-28v-30C133-14 115 1 83 1 29 1 15-40 15-95c0-56 16-97 71-98 29-1 48 16 59 35 1-10 0-23 2-32h30zM94-22c36 0 50-32 50-73 0-42-14-75-50-75-39 0-46 34-46 75s6 73 46 73" id="bi"/><g id="E"><use transform="matrix(0.06172839506172839,0,0,0.06172839506172839,0,0)" xlink:href="#ar"/><use transform="matrix(0.06172839506172839,0,0,0.06172839506172839,12.345679012345679,0)" xlink:href="#ay"/><use transform="matrix(0.06172839506172839,0,0,0.06172839506172839,24.691358024691358,0)" xlink:href="#av"/><use transform="matrix(0.06172839506172839,0,0,0.06172839506172839,37.03703703703704,0)" xlink:href="#bg"/><use transform="matrix(0.06172839506172839,0,0,0.06172839506172839,49.382716049382715,0)" xlink:href="#as"/><use transform="matrix(0.06172839506172839,0,0,0.06172839506172839,54.25925925925926,0)" xlink:href="#bh"/><use transform="matrix(0.06172839506172839,0,0,0.06172839506172839,66.60493827160494,0)" xlink:href="#bi"/></g><path fill="#3a414a" d="M212-179c-10-28-35-45-73-45-59 0-87 40-87 99 0 60 29 101 89 101 43 0 62-24 78-52l27 14C228-24 195 4 139 4 59 4 22-46 18-125c-6-104 99-153 187-111 19 9 31 26 39 46" id="bj"/><path fill="#3a414a" d="M24 0v-261h32V0H24" id="bk"/><path fill="#3a414a" d="M100-194c63 0 86 42 84 106H49c0 40 14 67 53 68 26 1 43-12 49-29l28 8c-11 28-37 45-77 45C44 4 14-33 15-96c1-61 26-98 85-98zm52 81c6-60-76-77-97-28-3 7-6 17-6 28h103" id="bl"/><path fill="#3a414a" d="M59-47c-2 24 18 29 38 22v24C64 9 27 4 27-40v-127H5v-23h24l9-43h21v43h35v23H59v120" id="bm"/><g id="F"><use transform="matrix(0.06172839506172839,0,0,0.06172839506172839,0,0)" xlink:href="#bj"/><use transform="matrix(0.06172839506172839,0,0,0.06172839506172839,15.987654320987653,0)" xlink:href="#bk"/><use transform="matrix(0.06172839506172839,0,0,0.06172839506172839,20.864197530864196,0)" xlink:href="#bl"/><use transform="matrix(0.06172839506172839,0,0,0.06172839506172839,33.20987654320987,0)" xlink:href="#as"/><use transform="matrix(0.06172839506172839,0,0,0.06172839506172839,38.08641975308642,0)" xlink:href="#bh"/><use transform="matrix(0.06172839506172839,0,0,0.06172839506172839,50.432098765432094,0)" xlink:href="#bm"/></g><path fill="#3a414a" d="M185-189c-5-48-123-54-124 2 14 75 158 14 163 119 3 78-121 87-175 55-17-10-28-26-33-46l33-7c5 56 141 63 141-1 0-78-155-14-162-118-5-82 145-84 179-34 5 7 8 16 11 25" id="bn"/><path fill="#3a414a" d="M84 4C-5 8 30-112 23-190h32v120c0 31 7 50 39 49 72-2 45-101 50-169h31l1 190h-30c-1-10 1-25-2-33-11 22-28 36-60 37" id="bo"/><path fill="#3a414a" d="M24-231v-30h32v30H24zM-9 49c24 4 33-6 33-30v-209h32V24c2 40-23 58-65 49V49" id="bp"/><path fill="#3a414a" d="M96-169c-40 0-48 33-48 73s9 75 48 75c24 0 41-14 43-38l32 2c-6 37-31 61-74 61-59 0-76-41-82-99-10-93 101-131 147-64 4 7 5 14 7 22l-32 3c-4-21-16-35-41-35" id="bq"/><g id="G"><use transform="matrix(0.06172839506172839,0,0,0.06172839506172839,0,0)" xlink:href="#bn"/><use transform="matrix(0.06172839506172839,0,0,0.06172839506172839,14.814814814814813,0)" xlink:href="#bo"/><use transform="matrix(0.06172839506172839,0,0,0.06172839506172839,27.160493827160494,0)" xlink:href="#at"/><use transform="matrix(0.06172839506172839,0,0,0.06172839506172839,39.50617283950617,0)" xlink:href="#bp"/><use transform="matrix(0.06172839506172839,0,0,0.06172839506172839,44.382716049382715,0)" xlink:href="#bl"/><use transform="matrix(0.06172839506172839,0,0,0.06172839506172839,56.72839506172839,0)" xlink:href="#bq"/><use transform="matrix(0.06172839506172839,0,0,0.06172839506172839,67.8395061728395,0)" xlink:href="#bm"/></g><path fill="#3a414a" d="M145-31C134-9 116 4 85 4 32 4 16-35 15-94c0-59 17-99 70-100 32-1 48 14 60 33 0-11-1-24 2-32h30l-1 268h-32zM93-21c41 0 51-33 51-76s-8-73-50-73c-40 0-46 35-46 75s5 74 45 74" id="br"/><path fill="#3a414a" d="M135-143c-3-34-86-38-87 0 15 53 115 12 119 90S17 21 10-45l28-5c4 36 97 45 98 0-10-56-113-15-118-90-4-57 82-63 122-42 12 7 21 19 24 35" id="bs"/><path fill="#3a414a" d="M87 75C49 33 22-17 22-94c0-76 28-126 65-167h31c-38 41-64 92-64 168S80 34 118 75H87" id="bt"/><path fill="#3a414a" d="M33-261c38 41 65 92 65 168S71 34 33 75H2C39 34 66-17 66-93S39-220 2-261h31" id="bu"/><g id="H"><use transform="matrix(0.06172839506172839,0,0,0.06172839506172839,0,0)" xlink:href="#au"/><use transform="matrix(0.06172839506172839,0,0,0.06172839506172839,7.345679012345679,0)" xlink:href="#bl"/><use transform="matrix(0.06172839506172839,0,0,0.06172839506172839,19.691358024691358,0)" xlink:href="#br"/><use transform="matrix(0.06172839506172839,0,0,0.06172839506172839,32.03703703703704,0)" xlink:href="#bo"/><use transform="matrix(0.06172839506172839,0,0,0.06172839506172839,44.382716049382715,0)" xlink:href="#bl"/><use transform="matrix(0.06172839506172839,0,0,0.06172839506172839,56.72839506172839,0)" xlink:href="#bs"/><use transform="matrix(0.06172839506172839,0,0,0.06172839506172839,67.8395061728395,0)" xlink:href="#bm"/><use transform="matrix(0.06172839506172839,0,0,0.06172839506172839,74.01234567901234,0)" xlink:href="#bt"/><use transform="matrix(0.06172839506172839,0,0,0.06172839506172839,81.35802469135803,0)" xlink:href="#bu"/></g><path fill="#3a414a" d="M233-177c-1 41-23 64-60 70L243 0h-38l-65-103H63V0H30v-248c88 3 205-21 203 71zM63-129c60-2 137 13 137-47 0-61-80-42-137-45v92" id="bv"/><g id="I"><use transform="matrix(0.06172839506172839,0,0,0.06172839506172839,0,0)" xlink:href="#bv"/><use transform="matrix(0.06172839506172839,0,0,0.06172839506172839,15.987654320987653,0)" xlink:href="#bl"/><use transform="matrix(0.06172839506172839,0,0,0.06172839506172839,28.333333333333332,0)" xlink:href="#av"/><use transform="matrix(0.06172839506172839,0,0,0.06172839506172839,40.67901234567901,0)" xlink:href="#bk"/><use transform="matrix(0.06172839506172839,0,0,0.06172839506172839,45.55555555555556,0)" xlink:href="#bn"/><use transform="matrix(0.06172839506172839,0,0,0.06172839506172839,60.37037037037037,0)" xlink:href="#bo"/><use transform="matrix(0.06172839506172839,0,0,0.06172839506172839,72.71604938271605,0)" xlink:href="#at"/><use transform="matrix(0.06172839506172839,0,0,0.06172839506172839,85.06172839506173,0)" xlink:href="#bp"/><use transform="matrix(0.06172839506172839,0,0,0.06172839506172839,89.93827160493828,0)" xlink:href="#bl"/><use transform="matrix(0.06172839506172839,0,0,0.06172839506172839,102.28395061728396,0)" xlink:href="#bq"/><use transform="matrix(0.06172839506172839,0,0,0.06172839506172839,113.39506172839508,0)" xlink:href="#bm"/></g><g id="J"><use transform="matrix(0.06172839506172839,0,0,0.06172839506172839,0,0)" xlink:href="#bd"/><use transform="matrix(0.06172839506172839,0,0,0.06172839506172839,14.814814814814813,0)" xlink:href="#au"/><use transform="matrix(0.06172839506172839,0,0,0.06172839506172839,22.160493827160494,0)" xlink:href="#ay"/><use transform="matrix(0.06172839506172839,0,0,0.06172839506172839,34.50617283950617,0)" xlink:href="#be"/><use transform="matrix(0.06172839506172839,0,0,0.06172839506172839,45.61728395061728,0)" xlink:href="#aw"/></g><path fill="#3a414a" d="M33 0v-248h34V0H33" id="bw"/><path fill="#3a414a" d="M101-234c-31-9-42 10-38 44h38v23H63V0H32v-167H5v-23h27c-7-52 17-82 69-68v24" id="bx"/><g id="K"><use transform="matrix(0.06172839506172839,0,0,0.06172839506172839,0,0)" xlink:href="#bw"/><use transform="matrix(0.06172839506172839,0,0,0.06172839506172839,6.172839506172839,0)" xlink:href="#bh"/><use transform="matrix(0.06172839506172839,0,0,0.06172839506172839,18.51851851851852,0)" xlink:href="#bm"/><use transform="matrix(0.06172839506172839,0,0,0.06172839506172839,24.691358024691358,0)" xlink:href="#bl"/><use transform="matrix(0.06172839506172839,0,0,0.06172839506172839,37.03703703703704,0)" xlink:href="#au"/><use transform="matrix(0.06172839506172839,0,0,0.06172839506172839,44.382716049382715,0)" xlink:href="#bx"/><use transform="matrix(0.06172839506172839,0,0,0.06172839506172839,50.55555555555556,0)" xlink:href="#av"/><use transform="matrix(0.06172839506172839,0,0,0.06172839506172839,62.901234567901234,0)" xlink:href="#bq"/><use transform="matrix(0.06172839506172839,0,0,0.06172839506172839,74.01234567901234,0)" xlink:href="#bl"/></g><path fill="#3a414a" d="M839-1102c70 0 148 7 206 17v167c-112-18-268-36-363 15-129 69-208 203-208 395V0H294c-10-367 32-789-52-1082h171c21 75 41 161 48 250h5c67-152 152-270 373-270" id="by"/><path fill="#3a414a" d="M617-1102c355 0 481 238 477 599H322c5 222 84 388 301 388 144 0 244-59 284-166l158 45C1002-72 854 20 623 20c-342 0-490-220-490-568 0-346 151-554 484-554zm291 461c-18-192-90-328-289-328-194 0-287 128-295 328h584" id="bz"/><path fill="#3a414a" d="M1000-272c3 95 12 159 101 161 21 0 41-3 59-7V-6c-44 10-86 16-139 16-141 2-191-84-197-217h-6C748-76 648 20 446 20c-207 0-318-120-318-322 0-266 194-348 454-354l236-4c12-191-40-305-222-305-140 0-220 47-232 172l-188-17c33-204 181-292 423-292 255 0 401 118 401 364v466zm-683-27c0 109 63 184 175 182 166-3 259-96 306-217 24-65 20-120 20-200-232 7-501-28-501 235" id="bA"/><path fill="#3a414a" d="M736-142h380V0H134v-142h422v-1200H267v-142h469v1342" id="bB"/><path fill="#3a414a" d="M614-1226c-167 1-283 53-283 213 0 183 186 193 334 234 230 63 463 120 463 409 0 286-219 387-518 390C309 23 131-98 79-338l185-37c34 165 149 248 351 246 184-2 324-58 324-238 0-203-207-221-372-266-210-57-422-111-422-377 0-267 201-356 470-360 279-5 430 101 480 324l-188 33c-28-141-121-215-293-213" id="bC"/><path fill="#3a414a" d="M528 20c-247 0-343-132-343-381v-721h180v686c-4 177 45 284 224 277 194-8 279-136 279-336v-627h181c3 360-6 732 6 1082H885c-4-54-7-126-8-185h-3C809-64 714 20 528 20" id="bD"/><path fill="#3a414a" d="M365-904c58-129 161-200 334-200 130 0 228 46 293 138s98 233 98 420c0 189-34 331-102 425S824 20 698 20c-170 0-275-64-336-184 0 55-3 116-9 164H179c5-68 6-147 6-223v-1261h180c-2 193 4 394-4 580h4zm283 791c221 0 256-197 256-427 0-229-34-425-254-425-236 0-285 195-285 441 0 237 53 411 283 411" id="bE"/><path fill="#3a414a" d="M390 276c167 0 266-82 266-251v-965H249v-142h587V28c-4 270-165 397-431 397-107 0-208-16-288-43V242c80 18 173 34 273 34zm246-1568v-192h200v192H636" id="bF"/><path fill="#3a414a" d="M631 20c-350 0-501-215-501-562 0-355 162-560 502-560 250 0 399 118 446 323l-192 14c-23-124-109-196-262-196-242 0-305 171-305 415 1 245 61 427 304 427 151 0 248-77 267-215l190 12C1039-107 883 20 631 20" id="bG"/><path fill="#3a414a" d="M682 16c-209 0-323-80-324-285v-671H190v-142h170l58-282h120v282h432v142H538v652c2 114 60 155 182 155 106 0 209-16 297-34v137C921-4 806 16 682 16" id="bH"/><path fill="#3a414a" d="M496 0v-299h235V0H496" id="bI"/><path fill="#3a414a" d="M530 26c-303-6-392-228-392-558 0-187 33-329 98-424s162-142 293-142c178 0 273 69 334 184 1-56 3-122 12-169h175c-6 88-6 180-6 282V425H863c1-202-4-411 4-607h-2C805-59 713 29 530 26zm47-139c234 0 286-193 286-441 0-238-55-411-284-411-223 0-255 198-255 427 0 227 33 425 253 425" id="bJ"/><path fill="#3a414a" d="M873-819c-18-114-119-146-250-146-163 0-245 50-245 151 0 151 170 148 294 185 182 54 388 94 388 320 0 240-189 325-439 329-245 4-410-69-454-268l159-31c24 133 136 168 295 165 144-2 270-31 270-171 0-164-195-160-331-202-167-52-350-87-350-299 0-218 173-315 413-313 220 2 373 77 412 260" id="bK"/><path fill="#3a414a" d="M891-1484c-201 251-362 514-362 954 0 441 161 704 362 955H701C500 176 342-90 342-532c0-440 159-704 359-952h190" id="bL"/><path fill="#3a414a" d="M528-1484c201 248 357 511 357 952 0 442-156 709-357 957H336C537 174 700-89 700-530c0-440-163-703-364-954h192" id="bM"/><path fill="#3a414a" d="M496-783v-299h235v299H496zM352 363l169-662h265L475 363H352" id="bN"/><g id="L"><use transform="matrix(0.010850694444444444,0,0,0.010850694444444444,0,0)" xlink:href="#by"/><use transform="matrix(0.010850694444444444,0,0,0.010850694444444444,13.335503472222221,0)" xlink:href="#bz"/><use transform="matrix(0.010850694444444444,0,0,0.010850694444444444,26.671006944444443,0)" xlink:href="#bA"/><use transform="matrix(0.010850694444444444,0,0,0.010850694444444444,40.006510416666664,0)" xlink:href="#bB"/><use transform="matrix(0.010850694444444444,0,0,0.010850694444444444,53.342013888888886,0)" xlink:href="#bC"/><use transform="matrix(0.010850694444444444,0,0,0.010850694444444444,66.67751736111111,0)" xlink:href="#bD"/><use transform="matrix(0.010850694444444444,0,0,0.010850694444444444,80.01302083333334,0)" xlink:href="#bE"/><use transform="matrix(0.010850694444444444,0,0,0.010850694444444444,93.34852430555557,0)" xlink:href="#bF"/><use transform="matrix(0.010850694444444444,0,0,0.010850694444444444,106.6840277777778,0)" xlink:href="#bz"/><use transform="matrix(0.010850694444444444,0,0,0.010850694444444444,120.01953125000003,0)" xlink:href="#bG"/><use transform="matrix(0.010850694444444444,0,0,0.010850694444444444,133.35503472222226,0)" xlink:href="#bH"/><use transform="matrix(0.010850694444444444,0,0,0.010850694444444444,146.69053819444449,0)" xlink:href="#bI"/><use transform="matrix(0.010850694444444444,0,0,0.010850694444444444,160.0260416666667,0)" xlink:href="#by"/><use transform="matrix(0.010850694444444444,0,0,0.010850694444444444,173.36154513888894,0)" xlink:href="#bz"/><use transform="matrix(0.010850694444444444,0,0,0.010850694444444444,186.69704861111117,0)" xlink:href="#bJ"/><use transform="matrix(0.010850694444444444,0,0,0.010850694444444444,200.0325520833334,0)" xlink:href="#bD"/><use transform="matrix(0.010850694444444444,0,0,0.010850694444444444,213.36805555555563,0)" xlink:href="#bz"/><use transform="matrix(0.010850694444444444,0,0,0.010850694444444444,226.70355902777786,0)" xlink:href="#bK"/><use transform="matrix(0.010850694444444444,0,0,0.010850694444444444,240.03906250000006,0)" xlink:href="#bH"/><use transform="matrix(0.010850694444444444,0,0,0.010850694444444444,253.37456597222234,0)" xlink:href="#bL"/><use transform="matrix(0.010850694444444444,0,0,0.010850694444444444,266.7100694444445,0)" xlink:href="#bM"/><use transform="matrix(0.010850694444444444,0,0,0.010850694444444444,280.04557291666674,0)" xlink:href="#bN"/></g><g id="M"><use transform="matrix(0.06172839506172839,0,0,0.06172839506172839,0,0)" xlink:href="#av"/><use transform="matrix(0.06172839506172839,0,0,0.06172839506172839,12.345679012345679,0)" xlink:href="#bg"/><use transform="matrix(0.06172839506172839,0,0,0.06172839506172839,24.691358024691358,0)" xlink:href="#bg"/><use transform="matrix(0.06172839506172839,0,0,0.06172839506172839,37.03703703703704,0)" xlink:href="#bt"/><use transform="matrix(0.06172839506172839,0,0,0.06172839506172839,44.382716049382715,0)" xlink:href="#bl"/><use transform="matrix(0.06172839506172839,0,0,0.06172839506172839,56.72839506172839,0)" xlink:href="#at"/><use transform="matrix(0.06172839506172839,0,0,0.06172839506172839,69.07407407407408,0)" xlink:href="#at"/><use transform="matrix(0.06172839506172839,0,0,0.06172839506172839,81.41975308641976,0)" xlink:href="#ay"/><use transform="matrix(0.06172839506172839,0,0,0.06172839506172839,93.76543209876544,0)" xlink:href="#az"/><use transform="matrix(0.06172839506172839,0,0,0.06172839506172839,104.87654320987656,0)" xlink:href="#bu"/></g><path fill="#3a414a" d="M106-169C34-169 62-67 57 0H25v-261h32l-1 103c12-21 28-36 61-36 89 0 53 116 60 194h-32v-121c2-32-8-49-39-48" id="bO"/><path fill="#3a414a" d="M206 0h-36l-40-164L89 0H53L-1-190h32L70-26l43-164h34l41 164 42-164h31" id="bP"/><g id="N"><use transform="matrix(0.06172839506172839,0,0,0.06172839506172839,0,0)" xlink:href="#bs"/><use transform="matrix(0.06172839506172839,0,0,0.06172839506172839,11.11111111111111,0)" xlink:href="#bO"/><use transform="matrix(0.06172839506172839,0,0,0.06172839506172839,23.45679012345679,0)" xlink:href="#ay"/><use transform="matrix(0.06172839506172839,0,0,0.06172839506172839,35.80246913580247,0)" xlink:href="#bP"/><use transform="matrix(0.06172839506172839,0,0,0.06172839506172839,51.79012345679012,0)" xlink:href="#bt"/><use transform="matrix(0.06172839506172839,0,0,0.06172839506172839,59.1358024691358,0)" xlink:href="#bu"/></g><g id="O"><use transform="matrix(0.06172839506172839,0,0,0.06172839506172839,0,0)" xlink:href="#bv"/><use transform="matrix(0.06172839506172839,0,0,0.06172839506172839,15.987654320987653,0)" xlink:href="#bl"/><use transform="matrix(0.06172839506172839,0,0,0.06172839506172839,28.333333333333332,0)" xlink:href="#av"/><use transform="matrix(0.06172839506172839,0,0,0.06172839506172839,40.67901234567901,0)" xlink:href="#bk"/><use transform="matrix(0.06172839506172839,0,0,0.06172839506172839,45.55555555555556,0)" xlink:href="#ax"/><use transform="matrix(0.06172839506172839,0,0,0.06172839506172839,60.37037037037037,0)" xlink:href="#at"/><use transform="matrix(0.06172839506172839,0,0,0.06172839506172839,72.71604938271605,0)" xlink:href="#ay"/><use transform="matrix(0.06172839506172839,0,0,0.06172839506172839,85.06172839506173,0)" xlink:href="#ay"/><use transform="matrix(0.06172839506172839,0,0,0.06172839506172839,97.40740740740742,0)" xlink:href="#az"/></g><path fill="#3a414a" d="M33-154v-36h34v36H33zM33 0v-36h34V0H33" id="bQ"/><g id="P"><use transform="matrix(0.06172839506172839,0,0,0.06172839506172839,0,0)" xlink:href="#bl"/><use transform="matrix(0.06172839506172839,0,0,0.06172839506172839,12.345679012345679,0)" xlink:href="#at"/><use transform="matrix(0.06172839506172839,0,0,0.06172839506172839,24.691358024691358,0)" xlink:href="#ay"/><use transform="matrix(0.06172839506172839,0,0,0.06172839506172839,37.03703703703704,0)" xlink:href="#ay"/><use transform="matrix(0.06172839506172839,0,0,0.06172839506172839,49.382716049382715,0)" xlink:href="#az"/><use transform="matrix(0.06172839506172839,0,0,0.06172839506172839,60.49382716049382,0)" xlink:href="#bQ"/></g><g id="Q"><use transform="matrix(0.06172839506172839,0,0,0.06172839506172839,0,0)" xlink:href="#bv"/><use transform="matrix(0.06172839506172839,0,0,0.06172839506172839,15.987654320987653,0)" xlink:href="#bl"/><use transform="matrix(0.06172839506172839,0,0,0.06172839506172839,28.333333333333332,0)" xlink:href="#av"/><use transform="matrix(0.06172839506172839,0,0,0.06172839506172839,40.67901234567901,0)" xlink:href="#bk"/><use transform="matrix(0.06172839506172839,0,0,0.06172839506172839,45.55555555555556,0)" xlink:href="#ax"/><use transform="matrix(0.06172839506172839,0,0,0.06172839506172839,60.37037037037037,0)" xlink:href="#at"/><use transform="matrix(0.06172839506172839,0,0,0.06172839506172839,72.71604938271605,0)" xlink:href="#ay"/><use transform="matrix(0.06172839506172839,0,0,0.06172839506172839,85.06172839506173,0)" xlink:href="#ay"/><use transform="matrix(0.06172839506172839,0,0,0.06172839506172839,97.40740740740742,0)" xlink:href="#az"/></g><path fill="#3a414a" d="M745-142h380V0H143v-142h422v-798H246v-142h499v940zM545-1292v-192h200v192H545" id="bR"/><path fill="#3a414a" d="M839-1335c-182-6-269 67-259 253h491v142H580V0H400v-940H138v-142h262c-15-293 132-408 418-402 94 2 200 7 281 21v145c-75-10-177-14-260-17" id="bS"/><g id="R"><use transform="matrix(0.010850694444444444,0,0,0.010850694444444444,0,0)" xlink:href="#bR"/><use transform="matrix(0.010850694444444444,0,0,0.010850694444444444,13.335503472222221,0)" xlink:href="#bS"/></g><path fill="#3a414a" d="M615-1102c343 0 484 203 482 560-1 347-147 562-488 562-336 0-475-219-479-562-4-349 156-560 485-560zm-8 989c240 0 301-180 301-429 0-245-55-427-290-427-236 0-299 181-299 427 0 243 61 429 288 429" id="bT"/><path fill="#3a414a" d="M914 0L548-499l-132 98V0H236v-1484h180v927l475-525h211L663-617 1125 0H914" id="bU"/><g id="S"><use transform="matrix(0.010850694444444444,0,0,0.010850694444444444,0,0)" xlink:href="#bL"/><use transform="matrix(0.010850694444444444,0,0,0.010850694444444444,13.335503472222221,0)" xlink:href="#bz"/><use transform="matrix(0.010850694444444444,0,0,0.010850694444444444,26.671006944444443,0)" xlink:href="#bE"/><use transform="matrix(0.010850694444444444,0,0,0.010850694444444444,40.006510416666664,0)" xlink:href="#bT"/><use transform="matrix(0.010850694444444444,0,0,0.010850694444444444,53.342013888888886,0)" xlink:href="#bT"/><use transform="matrix(0.010850694444444444,0,0,0.010850694444444444,66.67751736111111,0)" xlink:href="#bU"/></g><path fill="#3a414a" d="M116-856v-148h995v148H116zm0 512v-148h995v148H116" id="bV"/><g id="T"><use transform="matrix(0.010850694444444444,0,0,0.010850694444444444,0,0)" xlink:href="#bV"/><use transform="matrix(0.010850694444444444,0,0,0.010850694444444444,13.335503472222221,0)" xlink:href="#bV"/></g><path fill="#3a414a" d="M706-1102c241 0 344 136 343 381V0H868v-695c1-168-57-273-220-268-190 6-283 138-283 336V0H185c-3-360 6-732-6-1082h170c4 54 7 126 8 185h3c63-121 164-204 346-205" id="bW"/><g id="U"><use transform="matrix(0.010850694444444444,0,0,0.010850694444444444,0,0)" xlink:href="#bW"/><use transform="matrix(0.010850694444444444,0,0,0.010850694444444444,13.335503472222221,0)" xlink:href="#bD"/><use transform="matrix(0.010850694444444444,0,0,0.010850694444444444,26.671006944444443,0)" xlink:href="#bB"/><use transform="matrix(0.010850694444444444,0,0,0.010850694444444444,40.006510416666664,0)" xlink:href="#bB"/><use transform="matrix(0.010850694444444444,0,0,0.010850694444444444,53.342013888888886,0)" xlink:href="#bM"/></g><path fill="#3a414a" d="M677 91c1 136 41 195 171 195h213v139H796c-186-8-294-116-294-303v-351c-3-164-120-222-275-232v-137c155-10 275-69 275-231v-352c6-189 106-303 294-303h265v139H848c-126-3-171 67-171 195v346c-5 158-108 234-231 274 128 36 231 115 231 274V91" id="bX"/><use transform="matrix(0.010850694444444444,0,0,0.010850694444444444,0,0)" xlink:href="#bX" id="V"/><g id="X"><use transform="matrix(0.010850694444444444,0,0,0.010850694444444444,0,0)" xlink:href="#bz"/><use transform="matrix(0.010850694444444444,0,0,0.010850694444444444,13.335503472222221,0)" xlink:href="#bE"/><use transform="matrix(0.010850694444444444,0,0,0.010850694444444444,26.671006944444443,0)" xlink:href="#bT"/><use transform="matrix(0.010850694444444444,0,0,0.010850694444444444,40.006510416666664,0)" xlink:href="#bT"/><use transform="matrix(0.010850694444444444,0,0,0.010850694444444444,53.342013888888886,0)" xlink:href="#bU"/></g><use transform="matrix(0.010850694444444444,0,0,0.010850694444444444,0,0)" xlink:href="#bV" id="Y"/><path fill="#3a414a" d="M1018 0H814c-67-224-138-444-200-673C552-442 476-224 407 0H204L21-1082h178c43 310 105 601 126 933 54-225 128-425 193-638h193c63 212 134 415 185 638 22-336 90-622 136-933h176" id="bY"/><g id="Z"><use transform="matrix(0.010850694444444444,0,0,0.010850694444444444,0,0)" xlink:href="#bW"/><use transform="matrix(0.010850694444444444,0,0,0.010850694444444444,13.335503472222221,0)" xlink:href="#bz"/><use transform="matrix(0.010850694444444444,0,0,0.010850694444444444,26.671006944444443,0)" xlink:href="#bY"/></g><path fill="#3a414a" d="M162 0v-1349h919v156H353v422h668v154H353v461h769V0H162" id="bZ"/><g id="aa"><use transform="matrix(0.010850694444444444,0,0,0.010850694444444444,0,0)" xlink:href="#bZ"/><use transform="matrix(0.010850694444444444,0,0,0.010850694444444444,13.335503472222221,0)" xlink:href="#bE"/><use transform="matrix(0.010850694444444444,0,0,0.010850694444444444,26.671006944444443,0)" xlink:href="#bT"/><use transform="matrix(0.010850694444444444,0,0,0.010850694444444444,40.006510416666664,0)" xlink:href="#bT"/><use transform="matrix(0.010850694444444444,0,0,0.010850694444444444,53.342013888888886,0)" xlink:href="#bU"/><use transform="matrix(0.010850694444444444,0,0,0.010850694444444444,66.67751736111111,0)" xlink:href="#bL"/><use transform="matrix(0.010850694444444444,0,0,0.010850694444444444,80.01302083333334,0)" xlink:href="#bM"/><use transform="matrix(0.010850694444444444,0,0,0.010850694444444444,93.34852430555557,0)" xlink:href="#bN"/></g><path fill="#3a414a" d="M726 122c-7 187-108 303-294 303H167V286h213c129-2 172-59 172-195v-347c5-160 106-236 230-276-125-36-230-116-230-272v-346c2-128-45-195-172-195H167v-139h265c187 7 294 114 294 303v352c4 162 120 221 275 231v137c-155 10-275 68-275 232v351" id="ca"/><use transform="matrix(0.010850694444444444,0,0,0.010850694444444444,0,0)" xlink:href="#ca" id="ab"/><path fill="#3a414a" d="M648-963c-190 6-283 138-283 336V0H185v-1484h181c-2 197 6 404-9 587h3c62-120 159-205 339-205 242 0 351 135 350 381V0H868v-695c1-168-57-273-220-268" id="cb"/><g id="ac"><use transform="matrix(0.010850694444444444,0,0,0.010850694444444444,0,0)" xlink:href="#bz"/><use transform="matrix(0.010850694444444444,0,0,0.010850694444444444,13.335503472222221,0)" xlink:href="#bE"/><use transform="matrix(0.010850694444444444,0,0,0.010850694444444444,26.671006944444443,0)" xlink:href="#bT"/><use transform="matrix(0.010850694444444444,0,0,0.010850694444444444,40.006510416666664,0)" xlink:href="#bT"/><use transform="matrix(0.010850694444444444,0,0,0.010850694444444444,53.342013888888886,0)" xlink:href="#bU"/><use transform="matrix(0.010850694444444444,0,0,0.010850694444444444,66.67751736111111,0)" xlink:href="#bI"/><use transform="matrix(0.010850694444444444,0,0,0.010850694444444444,80.01302083333334,0)" xlink:href="#bK"/><use transform="matrix(0.010850694444444444,0,0,0.010850694444444444,93.34852430555557,0)" xlink:href="#cb"/><use transform="matrix(0.010850694444444444,0,0,0.010850694444444444,106.6840277777778,0)" xlink:href="#bT"/><use transform="matrix(0.010850694444444444,0,0,0.010850694444444444,120.01953125000003,0)" xlink:href="#bY"/><use transform="matrix(0.010850694444444444,0,0,0.010850694444444444,133.35503472222226,0)" xlink:href="#bL"/><use transform="matrix(0.010850694444444444,0,0,0.010850694444444444,146.69053819444449,0)" xlink:href="#bM"/><use transform="matrix(0.010850694444444444,0,0,0.010850694444444444,160.0260416666667,0)" xlink:href="#bN"/></g></defs></g></svg>