<svg xmlns="http://www.w3.org/2000/svg" xmlns:xlink="http://www.w3.org/1999/xlink" xmlns:lucid="lucid" width="1481" height="1997.67"><g transform="translate(-179.49999999901016 -4002.8333333319956)" lucid:page-tab-id="0_0"><path d="M0 3776.5h1870.87v2581.67H0z" fill="#fff"/><path d="M180 4009.33a6 6 0 0 1 6-6h1468a6 6 0 0 1 6 6V5994a6 6 0 0 1-6 6H186a6 6 0 0 1-6-6z" stroke="#3a414a" fill-opacity="0"/><path d="M260 4406a6 6 0 0 1 6-6h228a6 6 0 0 1 6 6v159a6 6 0 0 1-6 6H266a6 6 0 0 1-6-6z" stroke="#3a414a" fill="#fff"/><path d="M260 4442.67h240m-240 64.16h240" stroke="#3a414a" fill="none"/><use xlink:href="#a" transform="matrix(1,0,0,1,268,4408) translate(13.3888888888889 17.944444444444443)"/><use xlink:href="#b" transform="matrix(1,0,0,1,272,4514.833333333334) translate(0 28.944444444444443)"/><path d="M260 4106a6 6 0 0 1 6-6h228a6 6 0 0 1 6 6v159a6 6 0 0 1-6 6H266a6 6 0 0 1-6-6z" stroke="#3a414a" fill="#fff"/><path d="M260 4142.67h240m-240 64.16h240" stroke="#3a414a" fill="none"/><use xlink:href="#c" transform="matrix(1,0,0,1,268,4108) translate(60.85802469135802 17.944444444444443)"/><use xlink:href="#d" transform="matrix(1,0,0,1,272,4214.833333333334) translate(0 28.944444444444443)"/><path d="M520 4146a6 6 0 0 1 6-6h148a6 6 0 0 1 6 6v48a6 6 0 0 1-6 6H526a6 6 0 0 1-6-6z" stroke="#000" stroke-opacity="0" stroke-width="3" fill="#fff" fill-opacity="0"/><use xlink:href="#e" transform="matrix(1,0,0,1,525,4145) translate(31.820987654320987 30.27777777777778)"/><path d="M520 4461.5a6 6 0 0 1 6-6h148a6 6 0 0 1 6 6v48a6 6 0 0 1-6 6H526a6 6 0 0 1-6-6z" stroke="#000" stroke-opacity="0" stroke-width="3" fill="#fff" fill-opacity="0"/><use xlink:href="#e" transform="matrix(1,0,0,1,525,4460.5) translate(31.820987654320987 30.27777777777778)"/><path d="M260 4706a6 6 0 0 1 6-6h228a6 6 0 0 1 6 6v186a6 6 0 0 1-6 6H266a6 6 0 0 1-6-6z" stroke="#3a414a" fill="#fff"/><path d="M260 4742.67h240m-240 64.16h240" stroke="#3a414a" fill="none"/><use xlink:href="#f" transform="matrix(1,0,0,1,268,4708) translate(38.66666666666667 17.944444444444443)"/><use xlink:href="#g" transform="matrix(1,0,0,1,272,4814.833333333334) translate(0 28.611111111111114)"/><use xlink:href="#b" transform="matrix(1,0,0,1,272,4814.833333333334) translate(0 55.27777777777778)"/><path d="M380 4398v-105.88" stroke="#3a414a" stroke-width="3" fill="none"/><path d="M381.5 4399.5h-3v-1.54h3z" stroke="#3a414a" stroke-width=".05" fill="#3a414a"/><path d="M380 4276.35l4.63 14.27h-9.26z" stroke="#3a414a" stroke-width="3" fill="#3a414a"/><path d="M380 4698v-105.88" stroke="#3a414a" stroke-width="3" fill="none"/><path d="M381.5 4699.5h-3v-1.54h3z" stroke="#3a414a" stroke-width=".05" fill="#3a414a"/><path d="M380 4576.35l4.63 14.27h-9.26z" stroke="#3a414a" stroke-width="3" fill="#3a414a"/><path d="M260 5284a6 6 0 0 1 6-6h228a6 6 0 0 1 6 6v186a6 6 0 0 1-6 6H266a6 6 0 0 1-6-6z" stroke="#3a414a" fill="#fff"/><path d="M260 5320.67h240m-240 64.16h240" stroke="#3a414a" fill="none"/><use xlink:href="#f" transform="matrix(1,0,0,1,268,5286) translate(38.66666666666667 17.944444444444443)"/><use xlink:href="#h" transform="matrix(1,0,0,1,272,5328.666666666667) translate(0 28.944444444444443)"/><use xlink:href="#i" transform="matrix(1,0,0,1,272,5328.666666666667) translate(133.20987654320987 28.944444444444443)"/><use xlink:href="#g" transform="matrix(1,0,0,1,272,5392.833333333334) translate(0 28.611111111111114)"/><use xlink:href="#b" transform="matrix(1,0,0,1,272,5392.833333333334) translate(0 55.27777777777778)"/><path d="M240.75 5061.5a.75.75 0 0 1 .75-.75h1347a.75.75 0 0 1 .75.75.75.75 0 0 1-.75.75h-1347a.75.75 0 0 1-.75-.75z" fill="none"/><path d="M241.5 5061.5c0 .4-.34.75-.75.75-.4 0-.75-.34-.75-.75 0-.4.34-.75.75-.75.4 0 .75.34.75.75zm6.74-.75c0 .4-.34.75-.75.75-.43 0-.76-.34-.76-.75 0-.4.33-.75.75-.75.4 0 .74.34.74.75zm5.98 0c0 .4-.33.75-.75.75-.4 0-.75-.34-.75-.75 0-.4.34-.75.75-.75.42 0 .75.34.75.75zm6 0c0 .4-.35.75-.76.75-.4 0-.75-.34-.75-.75 0-.4.35-.75.76-.75.4 0 .75.34.75.75zm5.98 0c0 .4-.34.75-.75.75-.42 0-.75-.34-.75-.75 0-.4.33-.75.75-.75.4 0 .75.34.75.75zm5.98 0c0 .4-.33.75-.75.75-.4 0-.75-.34-.75-.75 0-.4.34-.75.75-.75.42 0 .75.34.75.75zm6 0c0 .4-.35.75-.76.75-.4 0-.75-.34-.75-.75 0-.4.34-.75.75-.75.4 0 .75.34.75.75zm5.98 0c0 .4-.34.75-.75.75-.4 0-.74-.34-.74-.75 0-.4.33-.75.75-.75s.76.34.76.75zm5.98 0c0 .4-.33.75-.75.75s-.76-.34-.76-.75c0-.4.34-.75.75-.75.4 0 .74.34.74.75zm6 0c0 .4-.35.75-.76.75-.4 0-.75-.34-.75-.75 0-.4.34-.75.75-.75.4 0 .75.34.75.75zm5.98 0c0 .4-.34.75-.75.75-.42 0-.75-.34-.75-.75 0-.4.33-.75.75-.75.4 0 .75.34.75.75zm5.98 0c0 .4-.33.75-.75.75-.4 0-.75-.34-.75-.75 0-.4.34-.75.75-.75.42 0 .75.34.75.75zm6 0c0 .4-.35.75-.76.75-.4 0-.75-.34-.75-.75 0-.4.33-.75.74-.75.4 0 .75.34.75.75zm5.98 0c0 .4-.34.75-.75.75-.42 0-.75-.34-.75-.75 0-.4.33-.75.75-.75.4 0 .75.34.75.75zm5.98 0c0 .4-.33.75-.75.75-.4 0-.74-.34-.74-.75 0-.4.34-.75.75-.75.43 0 .76.34.76.75zm6 0c0 .4-.35.75-.76.75-.4 0-.75-.34-.75-.75 0-.4.34-.75.75-.75.4 0 .75.34.75.75zm5.98 0c0 .4-.34.75-.75.75-.43 0-.76-.34-.76-.75 0-.4.33-.75.75-.75.4 0 .74.34.74.75zm5.98 0c0 .4-.33.75-.75.75-.4 0-.75-.34-.75-.75 0-.4.34-.75.75-.75.42 0 .75.34.75.75zm6 0c0 .4-.35.75-.76.75-.4 0-.75-.34-.75-.75 0-.4.35-.75.76-.75.4 0 .75.34.75.75zm5.98 0c0 .4-.34.75-.75.75-.42 0-.75-.34-.75-.75 0-.4.33-.75.75-.75.4 0 .75.34.75.75zm5.98 0c0 .4-.33.75-.75.75-.4 0-.75-.34-.75-.75 0-.4.34-.75.75-.75.42 0 .75.34.75.75zm6 0c0 .4-.35.75-.76.75-.4 0-.75-.34-.75-.75 0-.4.34-.75.75-.75.4 0 .75.34.75.75zm5.98 0c0 .4-.34.75-.75.75-.4 0-.74-.34-.74-.75 0-.4.33-.75.75-.75s.76.34.76.75zm5.98 0c0 .4-.33.75-.75.75s-.76-.34-.76-.75c0-.4.34-.75.75-.75.4 0 .74.34.74.75zm6 0c0 .4-.35.75-.76.75-.4 0-.75-.34-.75-.75 0-.4.34-.75.75-.75.4 0 .75.34.75.75zm5.98 0c0 .4-.34.75-.75.75-.42 0-.75-.34-.75-.75 0-.4.33-.75.75-.75.4 0 .75.34.75.75zm5.98 0c0 .4-.33.75-.75.75-.4 0-.75-.34-.75-.75 0-.4.34-.75.75-.75.42 0 .75.34.75.75zm6 0c0 .4-.35.75-.76.75-.4 0-.75-.34-.75-.75 0-.4.33-.75.74-.75.4 0 .75.34.75.75zm5.98 0c0 .4-.34.75-.75.75-.42 0-.75-.34-.75-.75 0-.4.33-.75.75-.75.4 0 .75.34.75.75zm5.98 0c0 .4-.33.75-.75.75-.4 0-.74-.34-.74-.75 0-.4.34-.75.75-.75.43 0 .76.34.76.75zm6 0c0 .4-.35.75-.76.75-.4 0-.75-.34-.75-.75 0-.4.34-.75.75-.75.4 0 .75.34.75.75zm5.98 0c0 .4-.34.75-.75.75-.43 0-.76-.34-.76-.75 0-.4.33-.75.75-.75.4 0 .74.34.74.75zm5.98 0c0 .4-.33.75-.75.75-.4 0-.75-.34-.75-.75 0-.4.34-.75.75-.75.42 0 .75.34.75.75zm6 0c0 .4-.35.75-.76.75-.4 0-.75-.34-.75-.75 0-.4.35-.75.76-.75.4 0 .75.34.75.75zm5.98 0c0 .4-.34.75-.75.75-.42 0-.75-.34-.75-.75 0-.4.33-.75.75-.75.4 0 .75.34.75.75zm5.98 0c0 .4-.33.75-.75.75-.4 0-.75-.34-.75-.75 0-.4.34-.75.75-.75.42 0 .75.34.75.75zm6 0c0 .4-.35.75-.76.75-.4 0-.75-.34-.75-.75 0-.4.34-.75.75-.75.4 0 .75.34.75.75zm5.98 0c0 .4-.34.75-.75.75-.4 0-.74-.34-.74-.75 0-.4.33-.75.75-.75s.76.34.76.75zm5.98 0c0 .4-.33.75-.75.75s-.76-.34-.76-.75c0-.4.34-.75.75-.75.4 0 .74.34.74.75zm6 0c0 .4-.35.75-.76.75-.4 0-.75-.34-.75-.75 0-.4.34-.75.75-.75.4 0 .75.34.75.75zm5.98 0c0 .4-.34.75-.75.75-.42 0-.75-.34-.75-.75 0-.4.33-.75.75-.75.4 0 .75.34.75.75zm5.98 0c0 .4-.33.75-.75.75-.4 0-.75-.34-.75-.75 0-.4.34-.75.75-.75.42 0 .75.34.75.75zm6 0c0 .4-.35.75-.76.75-.4 0-.75-.34-.75-.75 0-.4.33-.75.74-.75.4 0 .75.34.75.75zm5.98 0c0 .4-.34.75-.75.75-.42 0-.75-.34-.75-.75 0-.4.33-.75.75-.75.4 0 .75.34.75.75zm5.98 0c0 .4-.33.75-.75.75-.4 0-.74-.34-.74-.75 0-.4.34-.75.75-.75.43 0 .76.34.76.75zm6 0c0 .4-.35.75-.76.75-.4 0-.75-.34-.75-.75 0-.4.34-.75.75-.75.4 0 .75.34.75.75zm5.98 0c0 .4-.34.75-.75.75-.43 0-.76-.34-.76-.75 0-.4.33-.75.75-.75.4 0 .74.34.74.75zm5.98 0c0 .4-.33.75-.75.75-.4 0-.75-.34-.75-.75 0-.4.34-.75.75-.75.42 0 .75.34.75.75zm6 0c0 .4-.35.75-.76.75-.4 0-.75-.34-.75-.75 0-.4.35-.75.76-.75.4 0 .75.34.75.75zm5.98 0c0 .4-.34.75-.75.75-.42 0-.75-.34-.75-.75 0-.4.33-.75.75-.75.4 0 .75.34.75.75zm5.98 0c0 .4-.33.75-.75.75-.4 0-.75-.34-.75-.75 0-.4.34-.75.75-.75.42 0 .75.34.75.75zm6 0c0 .4-.35.75-.76.75-.4 0-.75-.34-.75-.75 0-.4.34-.75.75-.75.4 0 .75.34.75.75zm5.98 0c0 .4-.34.75-.75.75-.4 0-.74-.34-.74-.75 0-.4.33-.75.75-.75s.76.34.76.75zm5.98 0c0 .4-.33.75-.75.75s-.76-.34-.76-.75c0-.4.34-.75.75-.75.4 0 .74.34.74.75zm6 0c0 .4-.35.75-.76.75-.4 0-.75-.34-.75-.75 0-.4.34-.75.75-.75.4 0 .75.34.75.75zm5.98 0c0 .4-.34.75-.75.75-.42 0-.75-.34-.75-.75 0-.4.33-.75.75-.75.4 0 .75.34.75.75zm5.98 0c0 .4-.33.75-.75.75-.4 0-.75-.34-.75-.75 0-.4.34-.75.75-.75.42 0 .75.34.75.75zm6 0c0 .4-.35.75-.76.75-.4 0-.75-.34-.75-.75 0-.4.33-.75.74-.75.4 0 .75.34.75.75zm5.98 0c0 .4-.34.75-.75.75-.42 0-.75-.34-.75-.75 0-.4.33-.75.75-.75.4 0 .75.34.75.75zm5.98 0c0 .4-.33.75-.75.75-.4 0-.74-.34-.74-.75 0-.4.34-.75.75-.75.43 0 .76.34.76.75zm6 0c0 .4-.35.75-.76.75-.4 0-.75-.34-.75-.75 0-.4.34-.75.75-.75.4 0 .75.34.75.75zm5.98 0c0 .4-.34.75-.75.75-.43 0-.76-.34-.76-.75 0-.4.33-.75.75-.75.4 0 .74.34.74.75zm5.98 0c0 .4-.33.75-.75.75-.4 0-.75-.34-.75-.75 0-.4.34-.75.75-.75.42 0 .75.34.75.75zm6 0c0 .4-.35.75-.76.75-.4 0-.75-.34-.75-.75 0-.4.35-.75.76-.75.4 0 .75.34.75.75zm5.98 0c0 .4-.34.75-.75.75-.42 0-.75-.34-.75-.75 0-.4.33-.75.75-.75.4 0 .75.34.75.75zm5.98 0c0 .4-.33.75-.75.75-.4 0-.75-.34-.75-.75 0-.4.34-.75.75-.75.42 0 .75.34.75.75zm6 0c0 .4-.35.75-.76.75-.4 0-.75-.34-.75-.75 0-.4.34-.75.75-.75.4 0 .75.34.75.75zm5.98 0c0 .4-.34.75-.75.75-.4 0-.74-.34-.74-.75 0-.4.33-.75.75-.75s.76.34.76.75zm5.98 0c0 .4-.33.75-.75.75s-.76-.34-.76-.75c0-.4.34-.75.75-.75.4 0 .74.34.74.75zm6 0c0 .4-.35.75-.76.75-.4 0-.75-.34-.75-.75 0-.4.34-.75.75-.75.4 0 .75.34.75.75zm5.98 0c0 .4-.34.75-.75.75-.42 0-.75-.34-.75-.75 0-.4.33-.75.75-.75.4 0 .75.34.75.75zm5.98 0c0 .4-.33.75-.75.75-.4 0-.75-.34-.75-.75 0-.4.34-.75.75-.75.42 0 .75.34.75.75zm6 0c0 .4-.35.75-.76.75-.4 0-.75-.34-.75-.75 0-.4.33-.75.74-.75.4 0 .75.34.75.75zm5.98 0c0 .4-.34.75-.75.75-.42 0-.75-.34-.75-.75 0-.4.33-.75.75-.75.4 0 .75.34.75.75zm5.98 0c0 .4-.33.75-.75.75-.4 0-.74-.34-.74-.75 0-.4.34-.75.75-.75.43 0 .76.34.76.75zm6 0c0 .4-.35.75-.76.75-.4 0-.75-.34-.75-.75 0-.4.34-.75.75-.75.4 0 .75.34.75.75zm5.98 0c0 .4-.34.75-.75.75-.43 0-.76-.34-.76-.75 0-.4.33-.75.75-.75.4 0 .74.34.74.75zm5.98 0c0 .4-.33.75-.75.75-.4 0-.75-.34-.75-.75 0-.4.34-.75.75-.75.42 0 .75.34.75.75zm6 0c0 .4-.35.75-.76.75-.4 0-.75-.34-.75-.75 0-.4.35-.75.76-.75.4 0 .75.34.75.75zm5.98 0c0 .4-.34.75-.75.75-.42 0-.75-.34-.75-.75 0-.4.33-.75.75-.75.4 0 .75.34.75.75zm5.98 0c0 .4-.33.75-.75.75-.4 0-.75-.34-.75-.75 0-.4.34-.75.75-.75.42 0 .75.34.75.75zm6 0c0 .4-.35.75-.76.75-.4 0-.75-.34-.75-.75 0-.4.34-.75.75-.75.4 0 .75.34.75.75zm5.98 0c0 .4-.34.75-.75.75-.4 0-.74-.34-.74-.75 0-.4.33-.75.75-.75s.76.34.76.75zm5.98 0c0 .4-.33.75-.75.75s-.76-.34-.76-.75c0-.4.34-.75.75-.75.4 0 .74.34.74.75zm6 0c0 .4-.35.75-.76.75-.4 0-.75-.34-.75-.75 0-.4.34-.75.75-.75.4 0 .75.34.75.75zm5.98 0c0 .4-.34.75-.75.75-.42 0-.75-.34-.75-.75 0-.4.33-.75.75-.75.4 0 .75.34.75.75zm5.98 0c0 .4-.33.75-.75.75-.4 0-.75-.34-.75-.75 0-.4.34-.75.75-.75.42 0 .75.34.75.75zm6 0c0 .4-.35.75-.76.75-.4 0-.75-.34-.75-.75 0-.4.33-.75.74-.75.4 0 .75.34.75.75zm5.98 0c0 .4-.34.75-.75.75-.42 0-.75-.34-.75-.75 0-.4.33-.75.75-.75.4 0 .75.34.75.75zm5.98 0c0 .4-.33.75-.75.75-.4 0-.74-.34-.74-.75 0-.4.34-.75.75-.75.43 0 .76.34.76.75zm6 0c0 .4-.35.75-.76.75-.4 0-.75-.34-.75-.75 0-.4.34-.75.75-.75.4 0 .75.34.75.75zm5.98 0c0 .4-.34.75-.75.75-.43 0-.76-.34-.76-.75 0-.4.33-.75.75-.75.4 0 .74.34.74.75zm5.98 0c0 .4-.33.75-.75.75-.4 0-.75-.34-.75-.75 0-.4.34-.75.75-.75.42 0 .75.34.75.75zm6 0c0 .4-.35.75-.76.75-.4 0-.75-.34-.75-.75 0-.4.35-.75.76-.75.4 0 .75.34.75.75zm5.98 0c0 .4-.34.75-.75.75-.42 0-.75-.34-.75-.75 0-.4.33-.75.75-.75.4 0 .75.34.75.75zm5.98 0c0 .4-.33.75-.75.75-.4 0-.75-.34-.75-.75 0-.4.34-.75.75-.75.42 0 .75.34.75.75zm6 0c0 .4-.35.75-.76.75-.4 0-.75-.34-.75-.75 0-.4.34-.75.75-.75.4 0 .75.34.75.75zm5.98 0c0 .4-.34.75-.75.75-.4 0-.74-.34-.74-.75 0-.4.33-.75.75-.75s.76.34.76.75zm5.98 0c0 .4-.33.75-.75.75s-.76-.34-.76-.75c0-.4.34-.75.75-.75.4 0 .74.34.74.75zm6 0c0 .4-.35.75-.76.75-.4 0-.75-.34-.75-.75 0-.4.34-.75.75-.75.4 0 .75.34.75.75zm5.98 0c0 .4-.34.75-.75.75-.42 0-.75-.34-.75-.75 0-.4.33-.75.75-.75.4 0 .75.34.75.75zm5.98 0c0 .4-.33.75-.75.75-.4 0-.75-.34-.75-.75 0-.4.34-.75.75-.75.42 0 .75.34.75.75zm6 0c0 .4-.35.75-.76.75-.4 0-.75-.34-.75-.75 0-.4.33-.75.74-.75.4 0 .75.34.75.75zm5.98 0c0 .4-.34.75-.75.75-.42 0-.75-.34-.75-.75 0-.4.33-.75.75-.75.4 0 .75.34.75.75zm5.98 0c0 .4-.33.75-.75.75-.4 0-.74-.34-.74-.75 0-.4.34-.75.75-.75.43 0 .76.34.76.75zm6 0c0 .4-.35.75-.76.75-.4 0-.75-.34-.75-.75 0-.4.34-.75.75-.75.4 0 .75.34.75.75zm5.98 0c0 .4-.34.75-.75.75-.43 0-.76-.34-.76-.75 0-.4.33-.75.75-.75.4 0 .74.34.74.75zm5.98 0c0 .4-.33.75-.75.75-.4 0-.75-.34-.75-.75 0-.4.34-.75.75-.75.42 0 .75.34.75.75zm6 0c0 .4-.35.75-.76.75-.4 0-.75-.34-.75-.75 0-.4.35-.75.76-.75.4 0 .75.34.75.75zm5.98 0c0 .4-.34.75-.75.75-.42 0-.75-.34-.75-.75 0-.4.33-.75.75-.75.4 0 .75.34.75.75zm5.98 0c0 .4-.33.75-.75.75-.4 0-.75-.34-.75-.75 0-.4.34-.75.75-.75.42 0 .75.34.75.75zm6 0c0 .4-.35.75-.76.75-.4 0-.75-.34-.75-.75 0-.4.34-.75.75-.75.4 0 .75.34.75.75zm5.98 0c0 .4-.34.75-.75.75-.4 0-.74-.34-.74-.75 0-.4.33-.75.75-.75s.76.34.76.75zm5.98 0c0 .4-.33.75-.75.75s-.76-.34-.76-.75c0-.4.34-.75.75-.75.4 0 .74.34.74.75zm6 0c0 .4-.35.75-.76.75-.4 0-.75-.34-.75-.75 0-.4.34-.75.75-.75.4 0 .75.34.75.75zm5.98 0c0 .4-.34.75-.75.75-.42 0-.75-.34-.75-.75 0-.4.33-.75.75-.75.4 0 .75.34.75.75zm5.98 0c0 .4-.33.75-.75.75-.4 0-.75-.34-.75-.75 0-.4.34-.75.75-.75.42 0 .75.34.75.75zm6 0c0 .4-.35.75-.76.75-.4 0-.75-.34-.75-.75 0-.4.33-.75.74-.75.4 0 .75.34.75.75zm5.98 0c0 .4-.34.75-.75.75-.42 0-.75-.34-.75-.75 0-.4.33-.75.75-.75.4 0 .75.34.75.75zm5.98 0c0 .4-.33.75-.75.75-.4 0-.74-.34-.74-.75 0-.4.34-.75.75-.75.43 0 .76.34.76.75zm6 0c0 .4-.35.75-.76.75-.4 0-.75-.34-.75-.75 0-.4.34-.75.75-.75.4 0 .75.34.75.75zm5.98 0c0 .4-.34.75-.75.75-.43 0-.76-.34-.76-.75 0-.4.33-.75.75-.75.4 0 .74.34.74.75zm5.98 0c0 .4-.33.75-.75.75-.4 0-.75-.34-.75-.75 0-.4.34-.75.75-.75.42 0 .75.34.75.75zm6 0c0 .4-.35.75-.76.75-.4 0-.75-.34-.75-.75 0-.4.35-.75.76-.75.4 0 .75.34.75.75zm5.98 0c0 .4-.34.75-.75.75-.42 0-.75-.34-.75-.75 0-.4.33-.75.75-.75.4 0 .75.34.75.75zm5.98 0c0 .4-.33.75-.75.75-.4 0-.75-.34-.75-.75 0-.4.34-.75.75-.75.42 0 .75.34.75.75zm6 0c0 .4-.35.75-.76.75-.4 0-.75-.34-.75-.75 0-.4.34-.75.75-.75.4 0 .75.34.75.75zm5.98 0c0 .4-.34.75-.75.75-.4 0-.74-.34-.74-.75 0-.4.33-.75.75-.75s.76.34.76.75zm5.98 0c0 .4-.33.75-.75.75s-.76-.34-.76-.75c0-.4.34-.75.75-.75.4 0 .74.34.74.75zm6 0c0 .4-.35.75-.76.75-.4 0-.75-.34-.75-.75 0-.4.34-.75.75-.75.4 0 .75.34.75.75zm5.98 0c0 .4-.34.75-.75.75-.42 0-.75-.34-.75-.75 0-.4.33-.75.75-.75.4 0 .75.34.75.75zm5.98 0c0 .4-.33.75-.75.75-.4 0-.75-.34-.75-.75 0-.4.34-.75.75-.75.42 0 .75.34.75.75zm6 0c0 .4-.35.75-.76.75-.4 0-.75-.34-.75-.75 0-.4.33-.75.74-.75.4 0 .75.34.75.75zm5.98 0c0 .4-.34.75-.75.75-.42 0-.75-.34-.75-.75 0-.4.33-.75.75-.75.4 0 .75.34.75.75zm5.98 0c0 .4-.33.75-.75.75-.4 0-.74-.34-.74-.75 0-.4.34-.75.75-.75.43 0 .76.34.76.75zm6 0c0 .4-.35.75-.76.75-.4 0-.75-.34-.75-.75 0-.4.34-.75.75-.75.4 0 .75.34.75.75zm5.98 0c0 .4-.34.75-.75.75-.43 0-.76-.34-.76-.75 0-.4.33-.75.75-.75.4 0 .74.34.74.75zm5.98 0c0 .4-.33.75-.75.75-.4 0-.75-.34-.75-.75 0-.4.34-.75.75-.75.42 0 .75.34.75.75zm6 0c0 .4-.35.75-.76.75-.4 0-.75-.34-.75-.75 0-.4.35-.75.76-.75.4 0 .75.34.75.75zm5.98 0c0 .4-.34.75-.75.75-.42 0-.75-.34-.75-.75 0-.4.33-.75.75-.75.4 0 .75.34.75.75zm5.98 0c0 .4-.33.75-.75.75-.4 0-.75-.34-.75-.75 0-.4.34-.75.75-.75.42 0 .75.34.75.75zm6 0c0 .4-.35.75-.76.75-.4 0-.75-.34-.75-.75 0-.4.34-.75.75-.75.4 0 .75.34.75.75zm5.98 0c0 .4-.34.75-.75.75-.4 0-.74-.34-.74-.75 0-.4.33-.75.75-.75s.76.34.76.75zm5.98 0c0 .4-.33.75-.75.75s-.76-.34-.76-.75c0-.4.34-.75.75-.75.4 0 .74.34.74.75zm6 0c0 .4-.35.75-.76.75-.4 0-.75-.34-.75-.75 0-.4.34-.75.75-.75.4 0 .75.34.75.75zm5.98 0c0 .4-.34.75-.75.75-.42 0-.75-.34-.75-.75 0-.4.33-.75.75-.75.4 0 .75.34.75.75zm5.98 0c0 .4-.33.75-.75.75-.4 0-.75-.34-.75-.75 0-.4.34-.75.75-.75.42 0 .75.34.75.75zm6 0c0 .4-.35.75-.76.75-.4 0-.75-.34-.75-.75 0-.4.33-.75.74-.75.4 0 .75.34.75.75zm5.98 0c0 .4-.34.75-.75.75-.42 0-.75-.34-.75-.75 0-.4.33-.75.75-.75.4 0 .75.34.75.75zm5.98 0c0 .4-.33.75-.75.75-.4 0-.74-.34-.74-.75 0-.4.34-.75.75-.75.43 0 .76.34.76.75zm6 0c0 .4-.35.75-.76.75-.4 0-.75-.34-.75-.75 0-.4.34-.75.75-.75.4 0 .75.34.75.75zm5.98 0c0 .4-.34.75-.75.75-.43 0-.76-.34-.76-.75 0-.4.33-.75.75-.75.4 0 .74.34.74.75zm5.98 0c0 .4-.33.75-.75.75-.4 0-.75-.34-.75-.75 0-.4.34-.75.75-.75.42 0 .75.34.75.75zm6 0c0 .4-.35.75-.76.75-.4 0-.75-.34-.75-.75 0-.4.35-.75.76-.75.4 0 .75.34.75.75zm5.98 0c0 .4-.34.75-.75.75-.42 0-.75-.34-.75-.75 0-.4.33-.75.75-.75.4 0 .75.34.75.75zm5.98 0c0 .4-.33.75-.75.75-.4 0-.75-.34-.75-.75 0-.4.34-.75.75-.75.42 0 .75.34.75.75zm6 0c0 .4-.35.75-.76.75-.4 0-.75-.34-.75-.75 0-.4.34-.75.75-.75.4 0 .75.34.75.75zm5.98 0c0 .4-.34.75-.75.75-.4 0-.74-.34-.74-.75 0-.4.33-.75.75-.75s.76.34.76.75zm5.98 0c0 .4-.33.75-.75.75s-.76-.34-.76-.75c0-.4.34-.75.75-.75.4 0 .74.34.74.75zm6 0c0 .4-.35.75-.76.75-.4 0-.75-.34-.75-.75 0-.4.34-.75.75-.75.4 0 .75.34.75.75zm5.98 0c0 .4-.34.75-.75.75-.42 0-.75-.34-.75-.75 0-.4.33-.75.75-.75.4 0 .75.34.75.75zm5.98 0c0 .4-.33.75-.75.75-.4 0-.75-.34-.75-.75 0-.4.34-.75.75-.75.42 0 .75.34.75.75zm6 0c0 .4-.35.75-.76.75-.4 0-.75-.34-.75-.75 0-.4.33-.75.74-.75.4 0 .75.34.75.75zm5.98 0c0 .4-.34.75-.75.75-.42 0-.75-.34-.75-.75 0-.4.33-.75.75-.75.4 0 .75.34.75.75zm5.98 0c0 .4-.33.75-.75.75-.4 0-.74-.34-.74-.75 0-.4.34-.75.75-.75.43 0 .76.34.76.75zm6 0c0 .4-.35.75-.76.75-.4 0-.75-.34-.75-.75 0-.4.34-.75.75-.75.4 0 .75.34.75.75zm5.98 0c0 .4-.34.75-.75.75-.43 0-.76-.34-.76-.75 0-.4.33-.75.75-.75.4 0 .74.34.74.75zm5.98 0c0 .4-.33.75-.75.75-.4 0-.75-.34-.75-.75 0-.4.34-.75.75-.75.42 0 .75.34.75.75zm6 0c0 .4-.35.75-.76.75-.4 0-.75-.34-.75-.75 0-.4.35-.75.76-.75.4 0 .75.34.75.75zm5.98 0c0 .4-.34.75-.75.75-.42 0-.75-.34-.75-.75 0-.4.33-.75.75-.75.4 0 .75.34.75.75zm5.98 0c0 .4-.33.75-.75.75-.4 0-.75-.34-.75-.75 0-.4.34-.75.75-.75.42 0 .75.34.75.75zm6 0c0 .4-.35.75-.76.75-.4 0-.75-.34-.75-.75 0-.4.34-.75.75-.75.4 0 .75.34.75.75zm5.98 0c0 .4-.34.75-.75.75-.4 0-.74-.34-.74-.75 0-.4.33-.75.75-.75s.76.34.76.75zm5.98 0c0 .4-.33.75-.75.75s-.76-.34-.76-.75c0-.4.34-.75.75-.75.4 0 .74.34.74.75zm6 0c0 .4-.35.75-.76.75-.4 0-.75-.34-.75-.75 0-.4.34-.75.75-.75.4 0 .75.34.75.75zm5.98 0c0 .4-.34.75-.75.75-.42 0-.75-.34-.75-.75 0-.4.33-.75.75-.75.4 0 .75.34.75.75zm5.98 0c0 .4-.33.75-.75.75-.4 0-.75-.34-.75-.75 0-.4.34-.75.75-.75.42 0 .75.34.75.75zm6 0c0 .4-.35.75-.76.75-.4 0-.75-.34-.75-.75 0-.4.33-.75.74-.75.4 0 .75.34.75.75zm5.98 0c0 .4-.34.75-.75.75-.42 0-.75-.34-.75-.75 0-.4.33-.75.75-.75.4 0 .75.34.75.75zm5.98 0c0 .4-.33.75-.75.75-.4 0-.74-.34-.74-.75 0-.4.34-.75.75-.75.43 0 .76.34.76.75zm6 0c0 .4-.35.75-.76.75-.4 0-.75-.34-.75-.75 0-.4.34-.75.75-.75.4 0 .75.34.75.75zm5.98 0c0 .4-.34.75-.75.75-.43 0-.76-.34-.76-.75 0-.4.33-.75.75-.75.4 0 .74.34.74.75zm5.98 0c0 .4-.33.75-.75.75-.4 0-.75-.34-.75-.75 0-.4.34-.75.75-.75.42 0 .75.34.75.75zm6 0c0 .4-.35.75-.76.75-.4 0-.75-.34-.75-.75 0-.4.35-.75.76-.75.4 0 .75.34.75.75zm5.98 0c0 .4-.34.75-.75.75-.42 0-.75-.34-.75-.75 0-.4.33-.75.75-.75.4 0 .75.34.75.75zm5.98 0c0 .4-.33.75-.75.75-.4 0-.75-.34-.75-.75 0-.4.34-.75.75-.75.42 0 .75.34.75.75zm6 0c0 .4-.35.75-.76.75-.4 0-.75-.34-.75-.75 0-.4.34-.75.75-.75.4 0 .75.34.75.75zm5.98 0c0 .4-.34.75-.75.75-.4 0-.74-.34-.74-.75 0-.4.33-.75.75-.75s.76.34.76.75zm5.98 0c0 .4-.33.75-.75.75s-.76-.34-.76-.75c0-.4.34-.75.75-.75.4 0 .74.34.74.75zm6 0c0 .4-.35.75-.76.75-.4 0-.75-.34-.75-.75 0-.4.34-.75.75-.75.4 0 .75.34.75.75zm5.98 0c0 .4-.34.75-.75.75-.42 0-.75-.34-.75-.75 0-.4.33-.75.75-.75.4 0 .75.34.75.75zm5.98 0c0 .4-.33.75-.75.75-.4 0-.75-.34-.75-.75 0-.4.34-.75.75-.75.42 0 .75.34.75.75zm6 0c0 .4-.35.75-.76.75-.4 0-.75-.34-.75-.75 0-.4.33-.75.74-.75.4 0 .75.34.75.75zm5.98 0c0 .4-.34.75-.75.75-.42 0-.75-.34-.75-.75 0-.4.33-.75.75-.75.4 0 .75.34.75.75zm5.98 0c0 .4-.33.75-.75.75-.4 0-.74-.34-.74-.75 0-.4.34-.75.75-.75.43 0 .76.34.76.75zm6 0c0 .4-.35.75-.76.75-.4 0-.75-.34-.75-.75 0-.4.34-.75.75-.75.4 0 .75.34.75.75zm5.98 0c0 .4-.34.75-.75.75-.43 0-.76-.34-.76-.75 0-.4.33-.75.75-.75.4 0 .74.34.74.75zm5.98 0c0 .4-.33.75-.75.75-.4 0-.75-.34-.75-.75 0-.4.34-.75.75-.75.42 0 .75.34.75.75zm6 0c0 .4-.35.75-.76.75-.4 0-.75-.34-.75-.75 0-.4.35-.75.76-.75.4 0 .75.34.75.75zm5.98 0c0 .4-.34.75-.75.75-.42 0-.75-.34-.75-.75 0-.4.33-.75.75-.75.4 0 .75.34.75.75zm5.98 0c0 .4-.33.75-.75.75-.4 0-.75-.34-.75-.75 0-.4.34-.75.75-.75.42 0 .75.34.75.75zm6 0c0 .4-.35.75-.76.75-.4 0-.75-.34-.75-.75 0-.4.34-.75.75-.75.4 0 .75.34.75.75zm5.98 0c0 .4-.34.75-.75.75-.4 0-.74-.34-.74-.75 0-.4.33-.75.75-.75s.76.34.76.75zm5.98 0c0 .4-.33.75-.75.75s-.76-.34-.76-.75c0-.4.34-.75.75-.75.4 0 .74.34.74.75zm6 0c0 .4-.35.75-.76.75-.4 0-.75-.34-.75-.75 0-.4.34-.75.75-.75.4 0 .75.34.75.75zm5.98 0c0 .4-.34.75-.75.75-.42 0-.75-.34-.75-.75 0-.4.33-.75.75-.75.4 0 .75.34.75.75zm5.98 0c0 .4-.33.75-.75.75-.4 0-.75-.34-.75-.75 0-.4.34-.75.75-.75.42 0 .75.34.75.75zm6 0c0 .4-.35.75-.76.75-.4 0-.75-.34-.75-.75 0-.4.33-.75.74-.75.4 0 .75.34.75.75zm5.98 0c0 .4-.34.75-.75.75-.42 0-.75-.34-.75-.75 0-.4.33-.75.75-.75.4 0 .75.34.75.75zm5.98 0c0 .4-.33.75-.75.75-.4 0-.74-.34-.74-.75 0-.4.34-.75.75-.75.43 0 .76.34.76.75zm6 0c0 .4-.35.75-.76.75-.4 0-.75-.34-.75-.75 0-.4.34-.75.75-.75.4 0 .75.34.75.75zm5.98 0c0 .4-.34.75-.75.75-.43 0-.76-.34-.76-.75 0-.4.33-.75.75-.75.4 0 .74.34.74.75zm5.98 0c0 .4-.33.75-.75.75-.4 0-.75-.34-.75-.75 0-.4.34-.75.75-.75.42 0 .75.34.75.75zm6 0c0 .4-.35.75-.76.75-.4 0-.75-.34-.75-.75 0-.4.35-.75.76-.75.4 0 .75.34.75.75zm5.98 0c0 .4-.34.75-.75.75-.42 0-.75-.34-.75-.75 0-.4.33-.75.75-.75.4 0 .75.34.75.75zm5.98 0c0 .4-.33.75-.75.75-.4 0-.75-.34-.75-.75 0-.4.34-.75.75-.75.42 0 .75.34.75.75zm6 0c0 .4-.35.75-.76.75-.4 0-.75-.34-.75-.75 0-.4.34-.75.75-.75.4 0 .75.34.75.75zm5.98 0c0 .4-.34.75-.75.75-.4 0-.74-.34-.74-.75 0-.4.33-.75.75-.75s.76.34.76.75zm5.98 0c0 .4-.33.75-.75.75s-.76-.34-.76-.75c0-.4.34-.75.75-.75.4 0 .74.34.74.75zm6 0c0 .4-.35.75-.76.75-.4 0-.75-.34-.75-.75 0-.4.34-.75.75-.75.4 0 .75.34.75.75zm5.98 0c0 .4-.34.75-.75.75-.42 0-.75-.34-.75-.75 0-.4.33-.75.75-.75.4 0 .75.34.75.75zm5.98 0c0 .4-.33.75-.75.75-.4 0-.75-.34-.75-.75 0-.4.34-.75.75-.75.42 0 .75.34.75.75zm6 0c0 .4-.35.75-.76.75-.4 0-.75-.34-.75-.75 0-.4.33-.75.74-.75.4 0 .75.34.75.75zm5.98 0c0 .4-.34.75-.75.75-.42 0-.75-.34-.75-.75 0-.4.33-.75.75-.75.4 0 .75.34.75.75zm5.98 0c0 .4-.33.75-.75.75-.4 0-.74-.34-.74-.75 0-.4.34-.75.75-.75.43 0 .76.34.76.75zm6 0c0 .4-.35.75-.76.75-.4 0-.75-.34-.75-.75 0-.4.34-.75.75-.75.4 0 .75.34.75.75zm-6 1.5c0 .4-.33.75-.75.75-.4 0-.74-.34-.74-.75 0-.4.34-.75.75-.75.43 0 .76.34.76.75zm-5.98 0c0 .4-.34.75-.75.75-.42 0-.75-.34-.75-.75 0-.4.33-.75.75-.75.4 0 .75.34.75.75zm-6 0c0 .4-.33.75-.74.75-.4 0-.75-.34-.75-.75 0-.4.33-.75.74-.75.4 0 .75.34.75.75zm-5.98 0c0 .4-.33.75-.75.75-.4 0-.75-.34-.75-.75 0-.4.34-.75.75-.75.42 0 .75.34.75.75zm-5.98 0c0 .4-.34.75-.75.75-.42 0-.75-.34-.75-.75 0-.4.33-.75.75-.75.4 0 .75.34.75.75zm-6 0c0 .4-.33.75-.74.75-.4 0-.75-.34-.75-.75 0-.4.34-.75.75-.75.4 0 .75.34.75.75zm-5.98 0c0 .4-.33.75-.75.75s-.76-.34-.76-.75c0-.4.34-.75.75-.75.4 0 .74.34.74.75zm-5.98 0c0 .4-.34.75-.75.75-.4 0-.74-.34-.74-.75 0-.4.33-.75.75-.75s.76.34.76.75zm-6 0c0 .4-.33.75-.74.75-.4 0-.75-.34-.75-.75 0-.4.34-.75.75-.75.4 0 .75.34.75.75zm-5.98 0c0 .4-.33.75-.75.75-.4 0-.75-.34-.75-.75 0-.4.34-.75.75-.75.42 0 .75.34.75.75zm-5.98 0c0 .4-.34.75-.75.75-.42 0-.75-.34-.75-.75 0-.4.33-.75.75-.75.4 0 .75.34.75.75zm-6 0c0 .4-.33.75-.74.75-.4 0-.75-.34-.75-.75 0-.4.35-.75.76-.75.4 0 .75.34.75.75zm-5.98 0c0 .4-.33.75-.75.75-.4 0-.75-.34-.75-.75 0-.4.34-.75.75-.75.42 0 .75.34.75.75zm-5.98 0c0 .4-.34.75-.75.75-.43 0-.76-.34-.76-.75 0-.4.33-.75.75-.75.4 0 .74.34.74.75zm-6 0c0 .4-.33.75-.74.75-.4 0-.75-.34-.75-.75 0-.4.34-.75.75-.75.4 0 .75.34.75.75zm-5.98 0c0 .4-.33.75-.75.75-.4 0-.74-.34-.74-.75 0-.4.34-.75.75-.75.43 0 .76.34.76.75zm-5.98 0c0 .4-.34.75-.75.75-.42 0-.75-.34-.75-.75 0-.4.33-.75.75-.75.4 0 .75.34.75.75zm-6 0c0 .4-.33.75-.74.75-.4 0-.75-.34-.75-.75 0-.4.33-.75.74-.75.4 0 .75.34.75.75zm-5.98 0c0 .4-.33.75-.75.75-.4 0-.75-.34-.75-.75 0-.4.34-.75.75-.75.42 0 .75.34.75.75zm-5.98 0c0 .4-.34.75-.75.75-.42 0-.75-.34-.75-.75 0-.4.33-.75.75-.75.4 0 .75.34.75.75zm-6 0c0 .4-.33.75-.74.75-.4 0-.75-.34-.75-.75 0-.4.34-.75.75-.75.4 0 .75.34.75.75zm-5.98 0c0 .4-.33.75-.75.75s-.76-.34-.76-.75c0-.4.34-.75.75-.75.4 0 .74.34.74.75zm-5.98 0c0 .4-.34.75-.75.75-.4 0-.74-.34-.74-.75 0-.4.33-.75.75-.75s.76.34.76.75zm-6 0c0 .4-.33.75-.74.75-.4 0-.75-.34-.75-.75 0-.4.34-.75.75-.75.4 0 .75.34.75.75zm-5.98 0c0 .4-.33.75-.75.75-.4 0-.75-.34-.75-.75 0-.4.34-.75.75-.75.42 0 .75.34.75.75zm-5.98 0c0 .4-.34.75-.75.75-.42 0-.75-.34-.75-.75 0-.4.33-.75.75-.75.4 0 .75.34.75.75zm-6 0c0 .4-.33.75-.74.75-.4 0-.75-.34-.75-.75 0-.4.35-.75.76-.75.4 0 .75.34.75.75zm-5.98 0c0 .4-.33.75-.75.75-.4 0-.75-.34-.75-.75 0-.4.34-.75.75-.75.42 0 .75.34.75.75zm-5.98 0c0 .4-.34.75-.75.75-.43 0-.76-.34-.76-.75 0-.4.33-.75.75-.75.4 0 .74.34.74.75zm-6 0c0 .4-.33.75-.74.75-.4 0-.75-.34-.75-.75 0-.4.34-.75.75-.75.4 0 .75.34.75.75zm-5.98 0c0 .4-.33.75-.75.75-.4 0-.74-.34-.74-.75 0-.4.34-.75.75-.75.43 0 .76.34.76.75zm-5.98 0c0 .4-.34.75-.75.75-.42 0-.75-.34-.75-.75 0-.4.33-.75.75-.75.4 0 .75.34.75.75zm-6 0c0 .4-.33.75-.74.75-.4 0-.75-.34-.75-.75 0-.4.33-.75.74-.75.4 0 .75.34.75.75zm-5.98 0c0 .4-.33.75-.75.75-.4 0-.75-.34-.75-.75 0-.4.34-.75.75-.75.42 0 .75.34.75.75zm-5.98 0c0 .4-.34.75-.75.75-.42 0-.75-.34-.75-.75 0-.4.33-.75.75-.75.4 0 .75.34.75.75zm-6 0c0 .4-.33.75-.74.75-.4 0-.75-.34-.75-.75 0-.4.34-.75.75-.75.4 0 .75.34.75.75zm-5.98 0c0 .4-.33.75-.75.75s-.76-.34-.76-.75c0-.4.34-.75.75-.75.4 0 .74.34.74.75zm-5.98 0c0 .4-.34.75-.75.75-.4 0-.74-.34-.74-.75 0-.4.33-.75.75-.75s.76.34.76.75zm-6 0c0 .4-.33.75-.74.75-.4 0-.75-.34-.75-.75 0-.4.34-.75.75-.75.4 0 .75.34.75.75zm-5.98 0c0 .4-.33.75-.75.75-.4 0-.75-.34-.75-.75 0-.4.34-.75.75-.75.42 0 .75.34.75.75zm-5.98 0c0 .4-.34.75-.75.75-.42 0-.75-.34-.75-.75 0-.4.33-.75.75-.75.4 0 .75.34.75.75zm-6 0c0 .4-.33.75-.74.75-.4 0-.75-.34-.75-.75 0-.4.35-.75.76-.75.4 0 .75.34.75.75zm-5.98 0c0 .4-.33.75-.75.75-.4 0-.75-.34-.75-.75 0-.4.34-.75.75-.75.42 0 .75.34.75.75zm-5.98 0c0 .4-.34.75-.75.75-.43 0-.76-.34-.76-.75 0-.4.33-.75.75-.75.4 0 .74.34.74.75zm-6 0c0 .4-.33.75-.74.75-.4 0-.75-.34-.75-.75 0-.4.34-.75.75-.75.4 0 .75.34.75.75zm-5.98 0c0 .4-.33.75-.75.75-.4 0-.74-.34-.74-.75 0-.4.34-.75.75-.75.43 0 .76.34.76.75zm-5.98 0c0 .4-.34.75-.75.75-.42 0-.75-.34-.75-.75 0-.4.33-.75.75-.75.4 0 .75.34.75.75zm-6 0c0 .4-.33.75-.74.75-.4 0-.75-.34-.75-.75 0-.4.33-.75.74-.75.4 0 .75.34.75.75zm-5.98 0c0 .4-.33.75-.75.75-.4 0-.75-.34-.75-.75 0-.4.34-.75.75-.75.42 0 .75.34.75.75zm-5.98 0c0 .4-.34.75-.75.75-.42 0-.75-.34-.75-.75 0-.4.33-.75.75-.75.4 0 .75.34.75.75zm-6 0c0 .4-.33.75-.74.75-.4 0-.75-.34-.75-.75 0-.4.34-.75.75-.75.4 0 .75.34.75.75zm-5.98 0c0 .4-.33.75-.75.75s-.76-.34-.76-.75c0-.4.34-.75.75-.75.4 0 .74.34.74.75zm-5.98 0c0 .4-.34.75-.75.75-.4 0-.74-.34-.74-.75 0-.4.33-.75.75-.75s.76.34.76.75zm-6 0c0 .4-.33.75-.74.75-.4 0-.75-.34-.75-.75 0-.4.34-.75.75-.75.4 0 .75.34.75.75zm-5.98 0c0 .4-.33.75-.75.75-.4 0-.75-.34-.75-.75 0-.4.34-.75.75-.75.42 0 .75.34.75.75zm-5.98 0c0 .4-.34.75-.75.75-.42 0-.75-.34-.75-.75 0-.4.33-.75.75-.75.4 0 .75.34.75.75zm-6 0c0 .4-.33.75-.74.75-.4 0-.75-.34-.75-.75 0-.4.35-.75.76-.75.4 0 .75.34.75.75zm-5.98 0c0 .4-.33.75-.75.75-.4 0-.75-.34-.75-.75 0-.4.34-.75.75-.75.42 0 .75.34.75.75zm-5.98 0c0 .4-.34.75-.75.75-.43 0-.76-.34-.76-.75 0-.4.33-.75.75-.75.4 0 .74.34.74.75zm-6 0c0 .4-.33.75-.74.75-.4 0-.75-.34-.75-.75 0-.4.34-.75.75-.75.4 0 .75.34.75.75zm-5.98 0c0 .4-.33.75-.75.75-.4 0-.74-.34-.74-.75 0-.4.34-.75.75-.75.43 0 .76.34.76.75zm-5.98 0c0 .4-.34.75-.75.75-.42 0-.75-.34-.75-.75 0-.4.33-.75.75-.75.4 0 .75.34.75.75zm-6 0c0 .4-.33.75-.74.75-.4 0-.75-.34-.75-.75 0-.4.33-.75.74-.75.4 0 .75.34.75.75zm-5.98 0c0 .4-.33.75-.75.75-.4 0-.75-.34-.75-.75 0-.4.34-.75.75-.75.42 0 .75.34.75.75zm-5.98 0c0 .4-.34.75-.75.75-.42 0-.75-.34-.75-.75 0-.4.33-.75.75-.75.4 0 .75.34.75.75zm-6 0c0 .4-.33.75-.74.75-.4 0-.75-.34-.75-.75 0-.4.34-.75.75-.75.4 0 .75.34.75.75zm-5.98 0c0 .4-.33.75-.75.75s-.76-.34-.76-.75c0-.4.34-.75.75-.75.4 0 .74.34.74.75zm-5.98 0c0 .4-.34.75-.75.75-.4 0-.74-.34-.74-.75 0-.4.33-.75.75-.75s.76.34.76.75zm-6 0c0 .4-.33.75-.74.75-.4 0-.75-.34-.75-.75 0-.4.34-.75.75-.75.4 0 .75.34.75.75zm-5.98 0c0 .4-.33.75-.75.75-.4 0-.75-.34-.75-.75 0-.4.34-.75.75-.75.42 0 .75.34.75.75zm-5.98 0c0 .4-.34.75-.75.75-.42 0-.75-.34-.75-.75 0-.4.33-.75.75-.75.4 0 .75.34.75.75zm-6 0c0 .4-.33.75-.74.75-.4 0-.75-.34-.75-.75 0-.4.35-.75.76-.75.4 0 .75.34.75.75zm-5.98 0c0 .4-.33.75-.75.75-.4 0-.75-.34-.75-.75 0-.4.34-.75.75-.75.42 0 .75.34.75.75zm-5.98 0c0 .4-.34.75-.75.75-.43 0-.76-.34-.76-.75 0-.4.33-.75.75-.75.4 0 .74.34.74.75zm-6 0c0 .4-.33.75-.74.75-.4 0-.75-.34-.75-.75 0-.4.34-.75.75-.75.4 0 .75.34.75.75zm-5.98 0c0 .4-.33.75-.75.75-.4 0-.74-.34-.74-.75 0-.4.34-.75.75-.75.43 0 .76.34.76.75zm-5.98 0c0 .4-.34.75-.75.75-.42 0-.75-.34-.75-.75 0-.4.33-.75.75-.75.4 0 .75.34.75.75zm-6 0c0 .4-.33.75-.74.75-.4 0-.75-.34-.75-.75 0-.4.33-.75.74-.75.4 0 .75.34.75.75zm-5.98 0c0 .4-.33.75-.75.75-.4 0-.75-.34-.75-.75 0-.4.34-.75.75-.75.42 0 .75.34.75.75zm-5.98 0c0 .4-.34.75-.75.75-.42 0-.75-.34-.75-.75 0-.4.33-.75.75-.75.4 0 .75.34.75.75zm-6 0c0 .4-.33.75-.74.75-.4 0-.75-.34-.75-.75 0-.4.34-.75.75-.75.4 0 .75.34.75.75zm-5.98 0c0 .4-.33.75-.75.75s-.76-.34-.76-.75c0-.4.34-.75.75-.75.4 0 .74.34.74.75zm-5.98 0c0 .4-.34.75-.75.75-.4 0-.74-.34-.74-.75 0-.4.33-.75.75-.75s.76.34.76.75zm-6 0c0 .4-.33.75-.74.75-.4 0-.75-.34-.75-.75 0-.4.34-.75.75-.75.4 0 .75.34.75.75zm-5.98 0c0 .4-.33.75-.75.75-.4 0-.75-.34-.75-.75 0-.4.34-.75.75-.75.42 0 .75.34.75.75zm-5.98 0c0 .4-.34.75-.75.75-.42 0-.75-.34-.75-.75 0-.4.33-.75.75-.75.4 0 .75.34.75.75zm-6 0c0 .4-.33.75-.74.75-.4 0-.75-.34-.75-.75 0-.4.35-.75.76-.75.4 0 .75.34.75.75zm-5.98 0c0 .4-.33.75-.75.75-.4 0-.75-.34-.75-.75 0-.4.34-.75.75-.75.42 0 .75.34.75.75zm-5.98 0c0 .4-.34.75-.75.75-.43 0-.76-.34-.76-.75 0-.4.33-.75.75-.75.4 0 .74.34.74.75zm-6 0c0 .4-.33.75-.74.75-.4 0-.75-.34-.75-.75 0-.4.34-.75.75-.75.4 0 .75.34.75.75zm-5.98 0c0 .4-.33.75-.75.75-.4 0-.74-.34-.74-.75 0-.4.34-.75.75-.75.43 0 .76.34.76.75zm-5.98 0c0 .4-.34.75-.75.75-.42 0-.75-.34-.75-.75 0-.4.33-.75.75-.75.4 0 .75.34.75.75zm-6 0c0 .4-.33.75-.74.75-.4 0-.75-.34-.75-.75 0-.4.33-.75.74-.75.4 0 .75.34.75.75zm-5.98 0c0 .4-.33.75-.75.75-.4 0-.75-.34-.75-.75 0-.4.34-.75.75-.75.42 0 .75.34.75.75zm-5.98 0c0 .4-.34.75-.75.75-.42 0-.75-.34-.75-.75 0-.4.33-.75.75-.75.4 0 .75.34.75.75zm-6 0c0 .4-.33.75-.74.75-.4 0-.75-.34-.75-.75 0-.4.34-.75.75-.75.4 0 .75.34.75.75zm-5.98 0c0 .4-.33.75-.75.75s-.76-.34-.76-.75c0-.4.34-.75.75-.75.4 0 .74.34.74.75zm-5.98 0c0 .4-.34.75-.75.75-.4 0-.74-.34-.74-.75 0-.4.33-.75.75-.75s.76.34.76.75zm-6 0c0 .4-.33.75-.74.75-.4 0-.75-.34-.75-.75 0-.4.34-.75.75-.75.4 0 .75.34.75.75zm-5.98 0c0 .4-.33.75-.75.75-.4 0-.75-.34-.75-.75 0-.4.34-.75.75-.75.42 0 .75.34.75.75zm-5.98 0c0 .4-.34.75-.75.75-.42 0-.75-.34-.75-.75 0-.4.33-.75.75-.75.4 0 .75.34.75.75zm-6 0c0 .4-.33.75-.74.75-.4 0-.75-.34-.75-.75 0-.4.35-.75.76-.75.4 0 .75.34.75.75zm-5.98 0c0 .4-.33.75-.75.75-.4 0-.75-.34-.75-.75 0-.4.34-.75.75-.75.42 0 .75.34.75.75zm-5.98 0c0 .4-.34.75-.75.75-.43 0-.76-.34-.76-.75 0-.4.33-.75.75-.75.4 0 .74.34.74.75zm-6 0c0 .4-.33.75-.74.75-.4 0-.75-.34-.75-.75 0-.4.34-.75.75-.75.4 0 .75.34.75.75zm-5.98 0c0 .4-.33.75-.75.75-.4 0-.74-.34-.74-.75 0-.4.34-.75.75-.75.43 0 .76.34.76.75zm-5.98 0c0 .4-.34.75-.75.75-.42 0-.75-.34-.75-.75 0-.4.33-.75.75-.75.4 0 .75.34.75.75zm-6 0c0 .4-.33.75-.74.75-.4 0-.75-.34-.75-.75 0-.4.33-.75.74-.75.4 0 .75.34.75.75zm-5.98 0c0 .4-.33.75-.75.75-.4 0-.75-.34-.75-.75 0-.4.34-.75.75-.75.42 0 .75.34.75.75zm-5.98 0c0 .4-.34.75-.75.75-.42 0-.75-.34-.75-.75 0-.4.33-.75.75-.75.4 0 .75.34.75.75zm-6 0c0 .4-.33.75-.74.75-.4 0-.75-.34-.75-.75 0-.4.34-.75.75-.75.4 0 .75.34.75.75zm-5.98 0c0 .4-.33.75-.75.75s-.76-.34-.76-.75c0-.4.34-.75.75-.75.4 0 .74.34.74.75zm-5.98 0c0 .4-.34.75-.75.75-.4 0-.74-.34-.74-.75 0-.4.33-.75.75-.75s.76.34.76.75zm-6 0c0 .4-.33.75-.74.75-.4 0-.75-.34-.75-.75 0-.4.34-.75.75-.75.4 0 .75.34.75.75zm-5.98 0c0 .4-.33.75-.75.75-.4 0-.75-.34-.75-.75 0-.4.34-.75.75-.75.42 0 .75.34.75.75zm-5.98 0c0 .4-.34.75-.75.75-.42 0-.75-.34-.75-.75 0-.4.33-.75.75-.75.4 0 .75.34.75.75zm-6 0c0 .4-.33.75-.74.75-.4 0-.75-.34-.75-.75 0-.4.35-.75.76-.75.4 0 .75.34.75.75zm-5.98 0c0 .4-.33.75-.75.75-.4 0-.75-.34-.75-.75 0-.4.34-.75.75-.75.42 0 .75.34.75.75zm-5.98 0c0 .4-.34.75-.75.75-.43 0-.76-.34-.76-.75 0-.4.33-.75.75-.75.4 0 .74.34.74.75zm-6 0c0 .4-.33.75-.74.75-.4 0-.75-.34-.75-.75 0-.4.34-.75.75-.75.4 0 .75.34.75.75zm-5.98 0c0 .4-.33.75-.75.75-.4 0-.74-.34-.74-.75 0-.4.34-.75.75-.75.43 0 .76.34.76.75zm-5.98 0c0 .4-.34.75-.75.75-.42 0-.75-.34-.75-.75 0-.4.33-.75.75-.75.4 0 .75.34.75.75zm-6 0c0 .4-.33.75-.74.75-.4 0-.75-.34-.75-.75 0-.4.33-.75.74-.75.4 0 .75.34.75.75zm-5.98 0c0 .4-.33.75-.75.75-.4 0-.75-.34-.75-.75 0-.4.34-.75.75-.75.42 0 .75.34.75.75zm-5.98 0c0 .4-.34.75-.75.75-.42 0-.75-.34-.75-.75 0-.4.33-.75.75-.75.4 0 .75.34.75.75zm-6 0c0 .4-.33.75-.74.75-.4 0-.75-.34-.75-.75 0-.4.34-.75.75-.75.4 0 .75.34.75.75zm-5.98 0c0 .4-.33.75-.75.75s-.76-.34-.76-.75c0-.4.34-.75.75-.75.4 0 .74.34.74.75zm-5.98 0c0 .4-.34.75-.75.75-.4 0-.74-.34-.74-.75 0-.4.33-.75.75-.75s.76.34.76.75zm-6 0c0 .4-.33.75-.74.75-.4 0-.75-.34-.75-.75 0-.4.34-.75.75-.75.4 0 .75.34.75.75zm-5.98 0c0 .4-.33.75-.75.75-.4 0-.75-.34-.75-.75 0-.4.34-.75.75-.75.42 0 .75.34.75.75zm-5.98 0c0 .4-.34.75-.75.75-.42 0-.75-.34-.75-.75 0-.4.33-.75.75-.75.4 0 .75.34.75.75zm-6 0c0 .4-.33.75-.74.75-.4 0-.75-.34-.75-.75 0-.4.35-.75.76-.75.4 0 .75.34.75.75zm-5.98 0c0 .4-.33.75-.75.75-.4 0-.75-.34-.75-.75 0-.4.34-.75.75-.75.42 0 .75.34.75.75zm-5.98 0c0 .4-.34.75-.75.75-.43 0-.76-.34-.76-.75 0-.4.33-.75.75-.75.4 0 .74.34.74.75zm-6 0c0 .4-.33.75-.74.75-.4 0-.75-.34-.75-.75 0-.4.34-.75.75-.75.4 0 .75.34.75.75zm-5.98 0c0 .4-.33.75-.75.75-.4 0-.74-.34-.74-.75 0-.4.34-.75.75-.75.43 0 .76.34.76.75zm-5.98 0c0 .4-.34.75-.75.75-.42 0-.75-.34-.75-.75 0-.4.33-.75.75-.75.4 0 .75.34.75.75zm-6 0c0 .4-.33.75-.74.75-.4 0-.75-.34-.75-.75 0-.4.33-.75.74-.75.4 0 .75.34.75.75zm-5.98 0c0 .4-.33.75-.75.75-.4 0-.75-.34-.75-.75 0-.4.34-.75.75-.75.42 0 .75.34.75.75zm-5.98 0c0 .4-.34.75-.75.75-.42 0-.75-.34-.75-.75 0-.4.33-.75.75-.75.4 0 .75.34.75.75zm-6 0c0 .4-.33.75-.74.75-.4 0-.75-.34-.75-.75 0-.4.34-.75.75-.75.4 0 .75.34.75.75zm-5.98 0c0 .4-.33.75-.75.75s-.76-.34-.76-.75c0-.4.34-.75.75-.75.4 0 .74.34.74.75zm-5.98 0c0 .4-.34.75-.75.75-.4 0-.74-.34-.74-.75 0-.4.33-.75.75-.75s.76.34.76.75zm-6 0c0 .4-.33.75-.74.75-.4 0-.75-.34-.75-.75 0-.4.34-.75.75-.75.4 0 .75.34.75.75zm-5.98 0c0 .4-.33.75-.75.75-.4 0-.75-.34-.75-.75 0-.4.34-.75.75-.75.42 0 .75.34.75.75zm-5.98 0c0 .4-.34.75-.75.75-.42 0-.75-.34-.75-.75 0-.4.33-.75.75-.75.4 0 .75.34.75.75zm-6 0c0 .4-.33.75-.74.75-.4 0-.75-.34-.75-.75 0-.4.35-.75.76-.75.4 0 .75.34.75.75zm-5.98 0c0 .4-.33.75-.75.75-.4 0-.75-.34-.75-.75 0-.4.34-.75.75-.75.42 0 .75.34.75.75zm-5.98 0c0 .4-.34.75-.75.75-.43 0-.76-.34-.76-.75 0-.4.33-.75.75-.75.4 0 .74.34.74.75zm-6 0c0 .4-.33.75-.74.75-.4 0-.75-.34-.75-.75 0-.4.34-.75.75-.75.4 0 .75.34.75.75zm-5.98 0c0 .4-.33.75-.75.75-.4 0-.74-.34-.74-.75 0-.4.34-.75.75-.75.43 0 .76.34.76.75zm-5.98 0c0 .4-.34.75-.75.75-.42 0-.75-.34-.75-.75 0-.4.33-.75.75-.75.4 0 .75.34.75.75zm-6 0c0 .4-.33.75-.74.75-.4 0-.75-.34-.75-.75 0-.4.33-.75.74-.75.4 0 .75.34.75.75zm-5.98 0c0 .4-.33.75-.75.75-.4 0-.75-.34-.75-.75 0-.4.34-.75.75-.75.42 0 .75.34.75.75zm-5.98 0c0 .4-.34.75-.75.75-.42 0-.75-.34-.75-.75 0-.4.33-.75.75-.75.4 0 .75.34.75.75zm-6 0c0 .4-.33.75-.74.75-.4 0-.75-.34-.75-.75 0-.4.34-.75.75-.75.4 0 .75.34.75.75zm-5.98 0c0 .4-.33.75-.75.75s-.76-.34-.76-.75c0-.4.34-.75.75-.75.4 0 .74.34.74.75zm-5.98 0c0 .4-.34.75-.75.75-.4 0-.74-.34-.74-.75 0-.4.33-.75.75-.75s.76.34.76.75zm-6 0c0 .4-.33.75-.74.75-.4 0-.75-.34-.75-.75 0-.4.34-.75.75-.75.4 0 .75.34.75.75zm-5.98 0c0 .4-.33.75-.75.75-.4 0-.75-.34-.75-.75 0-.4.34-.75.75-.75.42 0 .75.34.75.75zm-5.98 0c0 .4-.34.75-.75.75-.42 0-.75-.34-.75-.75 0-.4.33-.75.75-.75.4 0 .75.34.75.75zm-6 0c0 .4-.33.75-.74.75-.4 0-.75-.34-.75-.75 0-.4.35-.75.76-.75.4 0 .75.34.75.75zm-5.98 0c0 .4-.33.75-.75.75-.4 0-.75-.34-.75-.75 0-.4.34-.75.75-.75.42 0 .75.34.75.75zm-5.98 0c0 .4-.34.75-.75.75-.43 0-.76-.34-.76-.75 0-.4.33-.75.75-.75.4 0 .74.34.74.75zm-6 0c0 .4-.33.75-.74.75-.4 0-.75-.34-.75-.75 0-.4.34-.75.75-.75.4 0 .75.34.75.75zm-5.98 0c0 .4-.33.75-.75.75-.4 0-.74-.34-.74-.75 0-.4.34-.75.75-.75.43 0 .76.34.76.75zm-5.98 0c0 .4-.34.75-.75.75-.42 0-.75-.34-.75-.75 0-.4.33-.75.75-.75.4 0 .75.34.75.75zm-6 0c0 .4-.33.75-.74.75-.4 0-.75-.34-.75-.75 0-.4.33-.75.74-.75.4 0 .75.34.75.75zm-5.98 0c0 .4-.33.75-.75.75-.4 0-.75-.34-.75-.75 0-.4.34-.75.75-.75.42 0 .75.34.75.75zm-5.98 0c0 .4-.34.75-.75.75-.42 0-.75-.34-.75-.75 0-.4.33-.75.75-.75.4 0 .75.34.75.75zm-6 0c0 .4-.33.75-.74.75-.4 0-.75-.34-.75-.75 0-.4.34-.75.75-.75.4 0 .75.34.75.75zm-5.98 0c0 .4-.33.75-.75.75s-.76-.34-.76-.75c0-.4.34-.75.75-.75.4 0 .74.34.74.75zm-5.98 0c0 .4-.34.75-.75.75-.4 0-.74-.34-.74-.75 0-.4.33-.75.75-.75s.76.34.76.75zm-6 0c0 .4-.33.75-.74.75-.4 0-.75-.34-.75-.75 0-.4.34-.75.75-.75.4 0 .75.34.75.75zm-5.98 0c0 .4-.33.75-.75.75-.4 0-.75-.34-.75-.75 0-.4.34-.75.75-.75.42 0 .75.34.75.75zm-5.98 0c0 .4-.34.75-.75.75-.42 0-.75-.34-.75-.75 0-.4.33-.75.75-.75.4 0 .75.34.75.75zm-6 0c0 .4-.33.75-.74.75-.4 0-.75-.34-.75-.75 0-.4.35-.75.76-.75.4 0 .75.34.75.75zm-5.98 0c0 .4-.33.75-.75.75-.4 0-.75-.34-.75-.75 0-.4.34-.75.75-.75.42 0 .75.34.75.75zm-5.98 0c0 .4-.34.75-.75.75-.43 0-.76-.34-.76-.75 0-.4.33-.75.75-.75.4 0 .74.34.74.75zm-6 0c0 .4-.33.75-.74.75-.4 0-.75-.34-.75-.75 0-.4.34-.75.75-.75.4 0 .75.34.75.75zm-5.98 0c0 .4-.33.75-.75.75-.4 0-.74-.34-.74-.75 0-.4.34-.75.75-.75.43 0 .76.34.76.75zm-5.98 0c0 .4-.34.75-.75.75-.42 0-.75-.34-.75-.75 0-.4.33-.75.75-.75.4 0 .75.34.75.75zm-6 0c0 .4-.33.75-.74.75-.4 0-.75-.34-.75-.75 0-.4.33-.75.74-.75.4 0 .75.34.75.75zm-5.98 0c0 .4-.33.75-.75.75-.4 0-.75-.34-.75-.75 0-.4.34-.75.75-.75.42 0 .75.34.75.75zm-5.98 0c0 .4-.34.75-.75.75-.42 0-.75-.34-.75-.75 0-.4.33-.75.75-.75.4 0 .75.34.75.75zm-6 0c0 .4-.33.75-.74.75-.4 0-.75-.34-.75-.75 0-.4.34-.75.75-.75.4 0 .75.34.75.75zm-5.98 0c0 .4-.33.75-.75.75s-.76-.34-.76-.75c0-.4.34-.75.75-.75.4 0 .74.34.74.75zm-5.98 0c0 .4-.34.75-.75.75-.4 0-.74-.34-.74-.75 0-.4.33-.75.75-.75s.76.34.76.75zm-6 0c0 .4-.33.75-.74.75-.4 0-.75-.34-.75-.75 0-.4.34-.75.75-.75.4 0 .75.34.75.75zm-5.98 0c0 .4-.33.75-.75.75-.4 0-.75-.34-.75-.75 0-.4.34-.75.75-.75.42 0 .75.34.75.75zm-5.98 0c0 .4-.34.75-.75.75-.42 0-.75-.34-.75-.75 0-.4.33-.75.75-.75.4 0 .75.34.75.75zm-6 0c0 .4-.33.75-.74.75-.4 0-.75-.34-.75-.75 0-.4.35-.75.76-.75.4 0 .75.34.75.75zm-5.98 0c0 .4-.33.75-.75.75-.4 0-.75-.34-.75-.75 0-.4.34-.75.75-.75.42 0 .75.34.75.75zm-5.98 0c0 .4-.34.75-.75.75-.43 0-.76-.34-.76-.75 0-.4.33-.75.75-.75.4 0 .74.34.74.75zm-6 0c0 .4-.33.75-.74.75-.4 0-.75-.34-.75-.75 0-.4.34-.75.75-.75.4 0 .75.34.75.75zm-5.98 0c0 .4-.33.75-.75.75-.4 0-.74-.34-.74-.75 0-.4.34-.75.75-.75.43 0 .76.34.76.75zm-5.98 0c0 .4-.34.75-.75.75-.42 0-.75-.34-.75-.75 0-.4.33-.75.75-.75.4 0 .75.34.75.75zm-6 0c0 .4-.33.75-.74.75-.4 0-.75-.34-.75-.75 0-.4.33-.75.74-.75.4 0 .75.34.75.75zm-5.98 0c0 .4-.33.75-.75.75-.4 0-.75-.34-.75-.75 0-.4.34-.75.75-.75.42 0 .75.34.75.75zm-5.98 0c0 .4-.34.75-.75.75-.42 0-.75-.34-.75-.75 0-.4.33-.75.75-.75.4 0 .75.34.75.75zm-6 0c0 .4-.33.75-.74.75-.4 0-.75-.34-.75-.75 0-.4.34-.75.75-.75.4 0 .75.34.75.75zm-5.98 0c0 .4-.33.75-.75.75s-.76-.34-.76-.75c0-.4.34-.75.75-.75.4 0 .74.34.74.75zm-5.98 0c0 .4-.34.75-.75.75-.4 0-.74-.34-.74-.75 0-.4.33-.75.75-.75s.76.34.76.75zm-6 0c0 .4-.33.75-.74.75-.4 0-.75-.34-.75-.75 0-.4.34-.75.75-.75.4 0 .75.34.75.75zm-5.98 0c0 .4-.33.75-.75.75-.4 0-.75-.34-.75-.75 0-.4.34-.75.75-.75.42 0 .75.34.75.75zm-5.98 0c0 .4-.34.75-.75.75-.42 0-.75-.34-.75-.75 0-.4.33-.75.75-.75.4 0 .75.34.75.75zm-6 0c0 .4-.33.75-.74.75-.4 0-.75-.34-.75-.75 0-.4.35-.75.76-.75.4 0 .75.34.75.75zm-5.98 0c0 .4-.33.75-.75.75-.4 0-.75-.34-.75-.75 0-.4.34-.75.75-.75.42 0 .75.34.75.75zm-5.98 0c0 .4-.34.75-.75.75-.43 0-.76-.34-.76-.75 0-.4.33-.75.75-.75.4 0 .74.34.74.75zm-6 0c0 .4-.33.75-.74.75-.4 0-.75-.34-.75-.75 0-.4.34-.75.75-.75.4 0 .75.34.75.75zm-5.98 0c0 .4-.33.75-.75.75-.4 0-.74-.34-.74-.75 0-.4.34-.75.75-.75.43 0 .76.34.76.75zm-5.98 0c0 .4-.34.75-.75.75-.42 0-.75-.34-.75-.75 0-.4.33-.75.75-.75.4 0 .75.34.75.75zm-6 0c0 .4-.33.75-.74.75-.4 0-.75-.34-.75-.75 0-.4.33-.75.74-.75.4 0 .75.34.75.75zm-5.98 0c0 .4-.33.75-.75.75-.4 0-.75-.34-.75-.75 0-.4.34-.75.75-.75.42 0 .75.34.75.75zm-5.98 0c0 .4-.34.75-.75.75-.42 0-.75-.34-.75-.75 0-.4.33-.75.75-.75.4 0 .75.34.75.75zm-6 0c0 .4-.33.75-.74.75-.4 0-.75-.34-.75-.75 0-.4.34-.75.75-.75.4 0 .75.34.75.75zm-5.98 0c0 .4-.33.75-.75.75s-.76-.34-.76-.75c0-.4.34-.75.75-.75.4 0 .74.34.74.75zm-5.98 0c0 .4-.34.75-.75.75-.4 0-.74-.34-.74-.75 0-.4.33-.75.75-.75s.76.34.76.75zm-6 0c0 .4-.33.75-.74.75-.4 0-.75-.34-.75-.75 0-.4.34-.75.75-.75.4 0 .75.34.75.75zm-5.98 0c0 .4-.33.75-.75.75-.4 0-.75-.34-.75-.75 0-.4.34-.75.75-.75.42 0 .75.34.75.75zm-5.98 0c0 .4-.34.75-.75.75-.42 0-.75-.34-.75-.75 0-.4.33-.75.75-.75.4 0 .75.34.75.75zm-6 0c0 .4-.33.75-.74.75-.4 0-.75-.34-.75-.75 0-.4.35-.75.76-.75.4 0 .75.34.75.75zm-5.98 0c0 .4-.33.75-.75.75-.4 0-.75-.34-.75-.75 0-.4.34-.75.75-.75.42 0 .75.34.75.75zm-5.98 0c0 .4-.34.75-.75.75-.43 0-.76-.34-.76-.75 0-.4.33-.75.75-.75.4 0 .74.34.74.75zm-6 0c0 .4-.33.75-.74.75-.4 0-.75-.34-.75-.75 0-.4.34-.75.75-.75.4 0 .75.34.75.75z" fill="#3a414a"/><path d="M800 5086a6 6 0 0 1 6-6h228a6 6 0 0 1 6 6v159a6 6 0 0 1-6 6H806a6 6 0 0 1-6-6z" stroke="#3a414a" fill="#fff"/><path d="M800 5122.67h240m-240 64.16h240" stroke="#3a414a" fill="none"/><use xlink:href="#j" transform="matrix(1,0,0,1,808,5088) translate(61.44444444444444 17.944444444444443)"/><use xlink:href="#k" transform="matrix(1,0,0,1,812,5194.833333333334) translate(0 28.944444444444443)"/><path d="M531.63 5324.5H644a6 6 0 0 0 6-6v-147a6 6 0 0 1 6-6h122.88" stroke="#3a414a" stroke-width="3" fill="none"/><path d="M502.62 5324.5l14.85-14.85 15.15 14.85-15.15 14.85zM794.65 5165.5l-14.27 4.64v-9.28z" stroke="#3a414a" stroke-width="3" fill="#3a414a"/><path d="M800 5486a6 6 0 0 1 6-6h228a6 6 0 0 1 6 6v159a6 6 0 0 1-6 6H806a6 6 0 0 1-6-6z" stroke="#3a414a" fill="#fff"/><path d="M800 5522.67h240m-240 64.16h240" stroke="#3a414a" fill="none"/><use xlink:href="#l" transform="matrix(1,0,0,1,808,5488) translate(77.5246913580247 17.944444444444443)"/><path d="M531.63 5435.17H644a6 6 0 0 1 6 6v118.33a6 6 0 0 0 6 6h122.88" stroke="#3a414a" stroke-width="3" fill="none"/><path d="M502.62 5435.17l14.85-14.85 15.15 14.85-15.15 14.85zM794.65 5565.5l-14.27 4.64v-9.28z" stroke="#3a414a" stroke-width="3" fill="#3a414a"/><path d="M246.66 5686a6 6 0 0 1 6-6h432.07a6 6 0 0 1 6 6v115.13a6 6 0 0 1-6 6H252.65a6 6 0 0 1-6-6z" fill="#fff"/><path d="M270.66 5680h12m12 0h12m12 0h12m12 0h12m12.02 0h12m12 0h12m12 0h12m12 0h12m12 0h12m12.02 0h12m12 0h12m12 0h12m12 0h12m12 0h12.02m12 0h12m12 0h12m12 0h12m12 0h6l.95.07.92.22.86.35.8.5.72.6.6.72.5.8.36.88.22.9.07.95v5.76m0 11.5v11.52m0 11.52v11.5m0 11.52v11.52m0 11.5v11.52m0 11.52v5.75l-.07.94-.22.92-.36.86-.5.8-.6.72-.72.6-.8.5-.87.36-.93.22-.94.07h-6m-12 0h-12m-12 0h-12m-12 0h-12m-12 0H582.7m-12 0h-12m-12 0h-12m-12 0h-12m-12 0h-12m-12 0h-12m-12 0h-12m-12 0h-12.02m-12 0h-12m-12 0h-12m-12 0h-12m-12 0h-12m-12 0h-12.02m-12 0h-12m-12 0h-6l-.94-.07-.92-.22-.87-.36-.8-.5-.72-.6-.6-.72-.5-.8-.35-.87-.22-.93-.07-.94v-5.75m0-11.52v-11.5m0-11.52v-11.52m0-11.5v-11.52m0-11.52v-11.5m0-11.52V5686l.07-.94.22-.9.36-.88.5-.8.6-.72.73-.6.8-.5.87-.37.92-.23.94-.07h6" stroke="#3a414a" stroke-width="3" fill="none"/><use xlink:href="#m" transform="matrix(1,0,0,1,251.65547231167713,5685) translate(0 29.552083333333332)"/><use xlink:href="#n" transform="matrix(1,0,0,1,251.65547231167713,5685) translate(40.006510416666664 29.552083333333332)"/><use xlink:href="#o" transform="matrix(1,0,0,1,251.65547231167713,5685) translate(0 52.978732638888886)"/><use xlink:href="#p" transform="matrix(1,0,0,1,251.65547231167713,5685) translate(160.0260416666667 52.978732638888886)"/><use xlink:href="#q" transform="matrix(1,0,0,1,251.65547231167713,5685) translate(186.69704861111114 52.978732638888886)"/><use xlink:href="#r" transform="matrix(1,0,0,1,251.65547231167713,5685) translate(0 76.40538194444444)"/><use xlink:href="#s" transform="matrix(1,0,0,1,251.65547231167713,5685) translate(0 99.83203125)"/><path d="M246.66 5866a6 6 0 0 1 6-6h432.07a6 6 0 0 1 6 6v68a6 6 0 0 1-6 6H252.65a6 6 0 0 1-6-6z" fill="#fff"/><path d="M270.66 5860h12m12 0h12m12 0h12m12 0h12m12.02 0h12m12 0h12m12 0h12m12 0h12m12 0h12m12.02 0h12m12 0h12m12 0h12m12 0h12m12 0h12.02m12 0h12m12 0h12m12 0h12m12 0h6l.95.07.92.22.86.35.8.5.72.6.6.72.5.8.36.88.22.9.07.95v5.67m0 11.33v11.33m0 11.34V5917m0 11.33v5.67l-.07.94-.22.9-.36.88-.5.8-.6.72-.72.6-.8.5-.87.37-.93.23-.94.07h-6m-12 0h-12m-12 0h-12m-12 0h-12m-12 0H582.7m-12 0h-12m-12 0h-12m-12 0h-12m-12 0h-12m-12 0h-12m-12 0h-12m-12 0h-12.02m-12 0h-12m-12 0h-12m-12 0h-12m-12 0h-12m-12 0h-12.02m-12 0h-12m-12 0h-6l-.94-.07-.92-.22-.87-.35-.8-.5-.72-.6-.6-.72-.5-.8-.35-.88-.22-.9-.07-.95v-5.67m0-11.33v-11.33m0-11.34V5883m0-11.33V5866l.07-.94.22-.9.36-.88.5-.8.6-.72.73-.6.8-.5.87-.37.92-.23.94-.07h6" stroke="#3a414a" stroke-width="3" fill="none"/><use xlink:href="#m" transform="matrix(1,0,0,1,251.65547231167713,5865) translate(0 29.583333333333332)"/><use xlink:href="#t" transform="matrix(1,0,0,1,251.65547231167713,5865) translate(40.006510416666664 29.583333333333332)"/><use xlink:href="#u" transform="matrix(1,0,0,1,251.65547231167713,5865) translate(0 53.009982638888886)"/><path d="M1220 5284a6 6 0 0 1 6-6h228a6 6 0 0 1 6 6v159a6 6 0 0 1-6 6h-228a6 6 0 0 1-6-6z" stroke="#3a414a" fill="#fff"/><path d="M1220 5320.67h240m-240 64.16h240" stroke="#3a414a" fill="none"/><g><use xlink:href="#v" transform="matrix(1,0,0,1,1228,5286) translate(34.3456790123457 17.944444444444443)"/></g><g><use xlink:href="#d" transform="matrix(1,0,0,1,1232,5392.833333333334) translate(0 28.944444444444443)"/></g><path d="M1188.38 5363.5H1136a6 6 0 0 0-6 6v190a6 6 0 0 1-6 6h-62.88" stroke="#3a414a" stroke-width="3" fill="none"/><path d="M1217.38 5363.5l-14.85 14.85-15.15-14.85 15.15-14.85zM1045.35 5565.5l14.27-4.64v9.28z" stroke="#3a414a" stroke-width="3" fill="#3a414a"/><path d="M1140 5686a6 6 0 0 1 6-6h432.08a6 6 0 0 1 6 6v115.13a6 6 0 0 1-6 6H1146a6 6 0 0 1-6-6z" fill="#fff"/><path d="M1164 5680h12m12 0h12m12 0h12m12.02 0h12m12 0h12m12 0h12m12 0h12m12 0h12.02m12 0h12m12 0h12m12 0h12m12 0h12m12 0h12.02m12 0h12m12 0h12m12 0h12m12 0h12m12.02 0h6l.94.07.9.22.88.35.8.5.72.6.6.72.5.8.36.88.22.9.08.95v5.76m0 11.5v11.52m0 11.52v11.5m0 11.52v11.52m0 11.5v11.52m0 11.52v5.75l-.08.94-.22.92-.36.86-.5.8-.6.72-.72.6-.8.5-.87.36-.9.22-.95.07h-6m-12 0h-12m-12 0h-12m-12 0h-12.02m-12 0h-12m-12 0h-12m-12 0h-12m-12 0h-12m-12.02 0h-12m-12 0h-12m-12 0h-12m-12 0h-12m-12 0H1284m-12 0h-12m-12 0h-12m-12 0h-12m-12 0h-12m-12 0H1164m-12 0h-6l-.94-.07-.9-.22-.88-.36-.8-.5-.72-.6-.6-.72-.5-.8-.37-.87-.23-.93-.07-.94v-5.75m0-11.52v-11.5m0-11.52v-11.52m0-11.5v-11.52m0-11.52v-11.5m0-11.52V5686l.07-.94.22-.9.35-.88.5-.8.6-.72.72-.6.8-.5.88-.37.9-.23.95-.07h6" stroke="#3a414a" stroke-width="3" fill="none"/><g><use xlink:href="#m" transform="matrix(1,0,0,1,1145,5685) translate(0 29.552083333333332)"/><use xlink:href="#n" transform="matrix(1,0,0,1,1145,5685) translate(40.006510416666664 29.552083333333332)"/><use xlink:href="#w" transform="matrix(1,0,0,1,1145,5685) translate(0 52.978732638888886)"/><use xlink:href="#p" transform="matrix(1,0,0,1,1145,5685) translate(66.67751736111111 52.978732638888886)"/><use xlink:href="#x" transform="matrix(1,0,0,1,1145,5685) translate(93.34852430555556 52.978732638888886)"/><use xlink:href="#y" transform="matrix(1,0,0,1,1145,5685) translate(0 76.40538194444444)"/><use xlink:href="#z" transform="matrix(1,0,0,1,1145,5685) translate(0 99.83203125)"/></g><defs><path fill="#3a414a" d="M232-93c-1 65-40 97-104 97C67 4 28-28 28-90v-158h33c8 89-33 224 67 224 102 0 64-133 71-224h33v155" id="A"/><path fill="#3a414a" d="M117-194c89-4 53 116 60 194h-32v-121c0-31-8-49-39-48C34-167 62-67 57 0H25l-1-190h30c1 10-1 24 2 32 11-22 29-35 61-36" id="B"/><path fill="#3a414a" d="M85-194c31 0 48 13 60 33l-1-100h32l1 261h-30c-2-10 0-23-3-31C134-8 116 4 85 4 32 4 16-35 15-94c0-66 23-100 70-100zm9 24c-40 0-46 34-46 75 0 40 6 74 45 74 42 0 51-32 51-76 0-42-9-74-50-73" id="C"/><path fill="#3a414a" d="M100-194c62-1 85 37 85 99 1 63-27 99-86 99S16-35 15-95c0-66 28-99 85-99zM99-20c44 1 53-31 53-75 0-43-8-75-51-75s-53 32-53 75 10 74 51 75" id="D"/><path fill="#3a414a" d="M141-36C126-15 110 5 73 4 37 3 15-17 15-53c-1-64 63-63 125-63 3-35-9-54-41-54-24 1-41 7-42 31l-33-3c5-37 33-52 76-52 45 0 72 20 72 64v82c-1 20 7 32 28 27v20c-31 9-61-2-59-35zM48-53c0 20 12 33 32 33 41-3 63-29 60-74-43 2-92-5-92 41" id="E"/><path fill="#3a414a" d="M115-194c53 0 69 39 70 98 0 66-23 100-70 100C84 3 66-7 56-30L54 0H23l1-261h32v101c10-23 28-34 59-34zm-8 174c40 0 45-34 45-75 0-40-5-75-45-74-42 0-51 32-51 76 0 43 10 73 51 73" id="F"/><path fill="#3a414a" d="M24 0v-261h32V0H24" id="G"/><path fill="#3a414a" d="M100-194c63 0 86 42 84 106H49c0 40 14 67 53 68 26 1 43-12 49-29l28 8c-11 28-37 45-77 45C44 4 14-33 15-96c1-61 26-98 85-98zm52 81c6-60-76-77-97-28-3 7-6 17-6 28h103" id="H"/><path fill="#3a414a" d="M212-179c-10-28-35-45-73-45-59 0-87 40-87 99 0 60 29 101 89 101 43 0 62-24 78-52l27 14C228-24 195 4 139 4 59 4 22-46 18-125c-6-104 99-153 187-111 19 9 31 26 39 46" id="I"/><path fill="#3a414a" d="M210-169c-67 3-38 105-44 169h-31v-121c0-29-5-50-35-48C34-165 62-65 56 0H25l-1-190h30c1 10-1 24 2 32 10-44 99-50 107 0 11-21 27-35 58-36 85-2 47 119 55 194h-31v-121c0-29-5-49-35-48" id="J"/><g id="a"><use transform="matrix(0.06172839506172839,0,0,0.06172839506172839,0,0)" xlink:href="#A"/><use transform="matrix(0.06172839506172839,0,0,0.06172839506172839,15.987654320987653,0)" xlink:href="#B"/><use transform="matrix(0.06172839506172839,0,0,0.06172839506172839,28.333333333333332,0)" xlink:href="#C"/><use transform="matrix(0.06172839506172839,0,0,0.06172839506172839,40.67901234567901,0)" xlink:href="#D"/><use transform="matrix(0.06172839506172839,0,0,0.06172839506172839,53.02469135802469,0)" xlink:href="#E"/><use transform="matrix(0.06172839506172839,0,0,0.06172839506172839,65.37037037037037,0)" xlink:href="#F"/><use transform="matrix(0.06172839506172839,0,0,0.06172839506172839,77.71604938271605,0)" xlink:href="#G"/><use transform="matrix(0.06172839506172839,0,0,0.06172839506172839,82.5925925925926,0)" xlink:href="#H"/><use transform="matrix(0.06172839506172839,0,0,0.06172839506172839,94.93827160493828,0)" xlink:href="#I"/><use transform="matrix(0.06172839506172839,0,0,0.06172839506172839,110.92592592592594,0)" xlink:href="#D"/><use transform="matrix(0.06172839506172839,0,0,0.06172839506172839,123.27160493827162,0)" xlink:href="#J"/><use transform="matrix(0.06172839506172839,0,0,0.06172839506172839,141.7283950617284,0)" xlink:href="#J"/><use transform="matrix(0.06172839506172839,0,0,0.06172839506172839,160.1851851851852,0)" xlink:href="#E"/><use transform="matrix(0.06172839506172839,0,0,0.06172839506172839,172.53086419753086,0)" xlink:href="#B"/><use transform="matrix(0.06172839506172839,0,0,0.06172839506172839,184.87654320987653,0)" xlink:href="#C"/></g><path fill="#3a414a" d="M84 4C-5 8 30-112 23-190h32v120c0 31 7 50 39 49 72-2 45-101 50-169h31l1 190h-30c-1-10 1-25-2-33-11 22-28 36-60 37" id="K"/><path fill="#3a414a" d="M141 0L90-78 38 0H4l68-98-65-92h35l48 74 47-74h35l-64 92 68 98h-35" id="L"/><path fill="#3a414a" d="M96-169c-40 0-48 33-48 73s9 75 48 75c24 0 41-14 43-38l32 2c-6 37-31 61-74 61-59 0-76-41-82-99-10-93 101-131 147-64 4 7 5 14 7 22l-32 3c-4-21-16-35-41-35" id="M"/><path fill="#3a414a" d="M59-47c-2 24 18 29 38 22v24C64 9 27 4 27-40v-127H5v-23h24l9-43h21v43h35v23H59v120" id="N"/><path fill="#3a414a" d="M87 75C49 33 22-17 22-94c0-76 28-126 65-167h31c-38 41-64 92-64 168S80 34 118 75H87" id="O"/><path fill="#3a414a" d="M33-261c38 41 65 92 65 168S71 34 33 75H2C39 34 66-17 66-93S39-220 2-261h31" id="P"/><g id="b"><use transform="matrix(0.06172839506172839,0,0,0.06172839506172839,0,0)" xlink:href="#K"/><use transform="matrix(0.06172839506172839,0,0,0.06172839506172839,12.345679012345679,0)" xlink:href="#B"/><use transform="matrix(0.06172839506172839,0,0,0.06172839506172839,24.691358024691358,0)" xlink:href="#H"/><use transform="matrix(0.06172839506172839,0,0,0.06172839506172839,37.03703703703704,0)" xlink:href="#L"/><use transform="matrix(0.06172839506172839,0,0,0.06172839506172839,48.14814814814815,0)" xlink:href="#H"/><use transform="matrix(0.06172839506172839,0,0,0.06172839506172839,60.49382716049383,0)" xlink:href="#M"/><use transform="matrix(0.06172839506172839,0,0,0.06172839506172839,71.60493827160494,0)" xlink:href="#K"/><use transform="matrix(0.06172839506172839,0,0,0.06172839506172839,83.95061728395062,0)" xlink:href="#N"/><use transform="matrix(0.06172839506172839,0,0,0.06172839506172839,90.12345679012346,0)" xlink:href="#H"/><use transform="matrix(0.06172839506172839,0,0,0.06172839506172839,102.46913580246914,0)" xlink:href="#O"/><use transform="matrix(0.06172839506172839,0,0,0.06172839506172839,109.81481481481482,0)" xlink:href="#P"/></g><g id="c"><use transform="matrix(0.06172839506172839,0,0,0.06172839506172839,0,0)" xlink:href="#I"/><use transform="matrix(0.06172839506172839,0,0,0.06172839506172839,15.987654320987653,0)" xlink:href="#D"/><use transform="matrix(0.06172839506172839,0,0,0.06172839506172839,28.333333333333332,0)" xlink:href="#J"/><use transform="matrix(0.06172839506172839,0,0,0.06172839506172839,46.79012345679012,0)" xlink:href="#J"/><use transform="matrix(0.06172839506172839,0,0,0.06172839506172839,65.24691358024691,0)" xlink:href="#E"/><use transform="matrix(0.06172839506172839,0,0,0.06172839506172839,77.5925925925926,0)" xlink:href="#B"/><use transform="matrix(0.06172839506172839,0,0,0.06172839506172839,89.93827160493828,0)" xlink:href="#C"/></g><g id="d"><use transform="matrix(0.06172839506172839,0,0,0.06172839506172839,0,0)" xlink:href="#H"/><use transform="matrix(0.06172839506172839,0,0,0.06172839506172839,12.345679012345679,0)" xlink:href="#L"/><use transform="matrix(0.06172839506172839,0,0,0.06172839506172839,23.45679012345679,0)" xlink:href="#H"/><use transform="matrix(0.06172839506172839,0,0,0.06172839506172839,35.80246913580247,0)" xlink:href="#M"/><use transform="matrix(0.06172839506172839,0,0,0.06172839506172839,46.91358024691358,0)" xlink:href="#K"/><use transform="matrix(0.06172839506172839,0,0,0.06172839506172839,59.25925925925926,0)" xlink:href="#N"/><use transform="matrix(0.06172839506172839,0,0,0.06172839506172839,65.4320987654321,0)" xlink:href="#H"/><use transform="matrix(0.06172839506172839,0,0,0.06172839506172839,77.77777777777779,0)" xlink:href="#O"/><use transform="matrix(0.06172839506172839,0,0,0.06172839506172839,85.12345679012347,0)" xlink:href="#P"/></g><path fill="#3a414a" d="M33 0v-248h34V0H33" id="Q"/><path fill="#3a414a" d="M114-163C36-179 61-72 57 0H25l-1-190h30c1 12-1 29 2 39 6-27 23-49 58-41v29" id="R"/><path fill="#3a414a" d="M101-234c-31-9-42 10-38 44h38v23H63V0H32v-167H5v-23h27c-7-52 17-82 69-68v24" id="S"/><g id="e"><use transform="matrix(0.06172839506172839,0,0,0.06172839506172839,0,0)" xlink:href="#Q"/><use transform="matrix(0.06172839506172839,0,0,0.06172839506172839,6.172839506172839,0)" xlink:href="#B"/><use transform="matrix(0.06172839506172839,0,0,0.06172839506172839,18.51851851851852,0)" xlink:href="#N"/><use transform="matrix(0.06172839506172839,0,0,0.06172839506172839,24.691358024691358,0)" xlink:href="#H"/><use transform="matrix(0.06172839506172839,0,0,0.06172839506172839,37.03703703703704,0)" xlink:href="#R"/><use transform="matrix(0.06172839506172839,0,0,0.06172839506172839,44.382716049382715,0)" xlink:href="#S"/><use transform="matrix(0.06172839506172839,0,0,0.06172839506172839,50.55555555555556,0)" xlink:href="#E"/><use transform="matrix(0.06172839506172839,0,0,0.06172839506172839,62.901234567901234,0)" xlink:href="#M"/><use transform="matrix(0.06172839506172839,0,0,0.06172839506172839,74.01234567901234,0)" xlink:href="#H"/></g><path fill="#3a414a" d="M160-131c35 5 61 23 61 61C221 17 115-2 30 0v-248c76 3 177-17 177 60 0 33-19 50-47 57zm-97-11c50-1 110 9 110-42 0-47-63-36-110-37v79zm0 115c55-2 124 14 124-45 0-56-70-42-124-44v89" id="T"/><g id="f"><use transform="matrix(0.06172839506172839,0,0,0.06172839506172839,0,0)" xlink:href="#T"/><use transform="matrix(0.06172839506172839,0,0,0.06172839506172839,14.814814814814813,0)" xlink:href="#D"/><use transform="matrix(0.06172839506172839,0,0,0.06172839506172839,27.160493827160494,0)" xlink:href="#G"/><use transform="matrix(0.06172839506172839,0,0,0.06172839506172839,32.03703703703704,0)" xlink:href="#C"/><use transform="matrix(0.06172839506172839,0,0,0.06172839506172839,44.382716049382715,0)" xlink:href="#I"/><use transform="matrix(0.06172839506172839,0,0,0.06172839506172839,60.37037037037037,0)" xlink:href="#D"/><use transform="matrix(0.06172839506172839,0,0,0.06172839506172839,72.71604938271605,0)" xlink:href="#J"/><use transform="matrix(0.06172839506172839,0,0,0.06172839506172839,91.17283950617283,0)" xlink:href="#J"/><use transform="matrix(0.06172839506172839,0,0,0.06172839506172839,109.62962962962962,0)" xlink:href="#E"/><use transform="matrix(0.06172839506172839,0,0,0.06172839506172839,121.9753086419753,0)" xlink:href="#B"/><use transform="matrix(0.06172839506172839,0,0,0.06172839506172839,134.320987654321,0)" xlink:href="#C"/></g><g id="g"><use transform="matrix(0.06172839506172839,0,0,0.06172839506172839,0,0)" xlink:href="#H"/><use transform="matrix(0.06172839506172839,0,0,0.06172839506172839,12.345679012345679,0)" xlink:href="#L"/><use transform="matrix(0.06172839506172839,0,0,0.06172839506172839,23.45679012345679,0)" xlink:href="#H"/><use transform="matrix(0.06172839506172839,0,0,0.06172839506172839,35.80246913580247,0)" xlink:href="#M"/><use transform="matrix(0.06172839506172839,0,0,0.06172839506172839,46.91358024691358,0)" xlink:href="#K"/><use transform="matrix(0.06172839506172839,0,0,0.06172839506172839,59.25925925925926,0)" xlink:href="#N"/><use transform="matrix(0.06172839506172839,0,0,0.06172839506172839,65.4320987654321,0)" xlink:href="#H"/><use transform="matrix(0.06172839506172839,0,0,0.06172839506172839,77.77777777777779,0)" xlink:href="#O"/><use transform="matrix(0.06172839506172839,0,0,0.06172839506172839,85.12345679012347,0)" xlink:href="#P"/></g><path fill="#3a414a" d="M115-194c55 1 70 41 70 98S169 2 115 4C84 4 66-9 55-30l1 105H24l-1-265h31l2 30c10-21 28-34 59-34zm-8 174c40 0 45-34 45-75s-6-73-45-74c-42 0-51 32-51 76 0 43 10 73 51 73" id="U"/><path fill="#3a414a" d="M108 0H70L1-190h34L89-25l56-165h34" id="V"/><path fill="#3a414a" d="M33-154v-36h34v36H33zM33 0v-36h34V0H33" id="W"/><g id="h"><use transform="matrix(0.06172839506172839,0,0,0.06172839506172839,0,0)" xlink:href="#U"/><use transform="matrix(0.06172839506172839,0,0,0.06172839506172839,12.345679012345679,0)" xlink:href="#R"/><use transform="matrix(0.06172839506172839,0,0,0.06172839506172839,19.691358024691358,0)" xlink:href="#H"/><use transform="matrix(0.06172839506172839,0,0,0.06172839506172839,32.03703703703704,0)" xlink:href="#V"/><use transform="matrix(0.06172839506172839,0,0,0.06172839506172839,43.14814814814815,0)" xlink:href="#I"/><use transform="matrix(0.06172839506172839,0,0,0.06172839506172839,59.135802469135804,0)" xlink:href="#D"/><use transform="matrix(0.06172839506172839,0,0,0.06172839506172839,71.48148148148148,0)" xlink:href="#B"/><use transform="matrix(0.06172839506172839,0,0,0.06172839506172839,83.82716049382717,0)" xlink:href="#N"/><use transform="matrix(0.06172839506172839,0,0,0.06172839506172839,90,0)" xlink:href="#H"/><use transform="matrix(0.06172839506172839,0,0,0.06172839506172839,102.34567901234568,0)" xlink:href="#B"/><use transform="matrix(0.06172839506172839,0,0,0.06172839506172839,114.69135802469137,0)" xlink:href="#N"/><use transform="matrix(0.06172839506172839,0,0,0.06172839506172839,120.8641975308642,0)" xlink:href="#W"/></g><path fill="#3a414a" d="M185-189c-5-48-123-54-124 2 14 75 158 14 163 119 3 78-121 87-175 55-17-10-28-26-33-46l33-7c5 56 141 63 141-1 0-78-155-14-162-118-5-82 145-84 179-34 5 7 8 16 11 25" id="X"/><path fill="#3a414a" d="M24-231v-30h32v30H24zM24 0v-190h32V0H24" id="Y"/><path fill="#3a414a" d="M177-190C167-65 218 103 67 71c-23-6-38-20-44-43l32-5c15 47 100 32 89-28v-30C133-14 115 1 83 1 29 1 15-40 15-95c0-56 16-97 71-98 29-1 48 16 59 35 1-10 0-23 2-32h30zM94-22c36 0 50-32 50-73 0-42-14-75-50-75-39 0-46 34-46 75s6 73 46 73" id="Z"/><g id="i"><use transform="matrix(0.06172839506172839,0,0,0.06172839506172839,0,0)" xlink:href="#X"/><use transform="matrix(0.06172839506172839,0,0,0.06172839506172839,14.814814814814813,0)" xlink:href="#N"/><use transform="matrix(0.06172839506172839,0,0,0.06172839506172839,20.98765432098765,0)" xlink:href="#R"/><use transform="matrix(0.06172839506172839,0,0,0.06172839506172839,28.33333333333333,0)" xlink:href="#Y"/><use transform="matrix(0.06172839506172839,0,0,0.06172839506172839,33.20987654320987,0)" xlink:href="#B"/><use transform="matrix(0.06172839506172839,0,0,0.06172839506172839,45.55555555555555,0)" xlink:href="#Z"/></g><path fill="#3a414a" d="M30-248c118-7 216 8 213 122C240-48 200 0 122 0H30v-248zM63-27c89 8 146-16 146-99s-60-101-146-95v194" id="aa"/><g id="j"><use transform="matrix(0.06172839506172839,0,0,0.06172839506172839,0,0)" xlink:href="#aa"/><use transform="matrix(0.06172839506172839,0,0,0.06172839506172839,15.987654320987653,0)" xlink:href="#D"/><use transform="matrix(0.06172839506172839,0,0,0.06172839506172839,28.333333333333332,0)" xlink:href="#M"/><use transform="matrix(0.06172839506172839,0,0,0.06172839506172839,39.44444444444444,0)" xlink:href="#K"/><use transform="matrix(0.06172839506172839,0,0,0.06172839506172839,51.79012345679012,0)" xlink:href="#J"/><use transform="matrix(0.06172839506172839,0,0,0.06172839506172839,70.24691358024691,0)" xlink:href="#H"/><use transform="matrix(0.06172839506172839,0,0,0.06172839506172839,82.5925925925926,0)" xlink:href="#B"/><use transform="matrix(0.06172839506172839,0,0,0.06172839506172839,94.93827160493828,0)" xlink:href="#N"/></g><path fill="#3a414a" d="M143 0L79-87 56-68V0H24v-261h32v163l83-92h37l-77 82L181 0h-38" id="ab"/><g id="k"><use transform="matrix(0.06172839506172839,0,0,0.06172839506172839,0,0)" xlink:href="#J"/><use transform="matrix(0.06172839506172839,0,0,0.06172839506172839,18.456790123456788,0)" xlink:href="#E"/><use transform="matrix(0.06172839506172839,0,0,0.06172839506172839,30.80246913580247,0)" xlink:href="#ab"/><use transform="matrix(0.06172839506172839,0,0,0.06172839506172839,41.91358024691358,0)" xlink:href="#H"/><use transform="matrix(0.06172839506172839,0,0,0.06172839506172839,54.25925925925926,0)" xlink:href="#T"/><use transform="matrix(0.06172839506172839,0,0,0.06172839506172839,69.07407407407408,0)" xlink:href="#D"/><use transform="matrix(0.06172839506172839,0,0,0.06172839506172839,81.41975308641976,0)" xlink:href="#G"/><use transform="matrix(0.06172839506172839,0,0,0.06172839506172839,86.2962962962963,0)" xlink:href="#C"/><use transform="matrix(0.06172839506172839,0,0,0.06172839506172839,98.64197530864199,0)" xlink:href="#O"/><use transform="matrix(0.06172839506172839,0,0,0.06172839506172839,105.98765432098767,0)" xlink:href="#P"/></g><path fill="#3a414a" d="M197 0v-115H63V0H30v-248h33v105h134v-105h34V0h-34" id="ac"/><path fill="#3a414a" d="M135-143c-3-34-86-38-87 0 15 53 115 12 119 90S17 21 10-45l28-5c4 36 97 45 98 0-10-56-113-15-118-90-4-57 82-63 122-42 12 7 21 19 24 35" id="ad"/><path fill="#3a414a" d="M179-190L93 31C79 59 56 82 12 73V49c39 6 53-20 64-50L1-190h34L92-34l54-156h33" id="ae"/><g id="l"><use transform="matrix(0.06172839506172839,0,0,0.06172839506172839,0,0)" xlink:href="#ac"/><use transform="matrix(0.06172839506172839,0,0,0.06172839506172839,15.987654320987653,0)" xlink:href="#Y"/><use transform="matrix(0.06172839506172839,0,0,0.06172839506172839,20.864197530864196,0)" xlink:href="#ad"/><use transform="matrix(0.06172839506172839,0,0,0.06172839506172839,31.975308641975307,0)" xlink:href="#N"/><use transform="matrix(0.06172839506172839,0,0,0.06172839506172839,38.148148148148145,0)" xlink:href="#D"/><use transform="matrix(0.06172839506172839,0,0,0.06172839506172839,50.49382716049382,0)" xlink:href="#R"/><use transform="matrix(0.06172839506172839,0,0,0.06172839506172839,57.8395061728395,0)" xlink:href="#ae"/></g><path fill="#3a414a" d="M114 20l821-1504h178L296 20H114" id="af"/><g id="m"><use transform="matrix(0.010850694444444444,0,0,0.010850694444444444,0,0)" xlink:href="#af"/><use transform="matrix(0.010850694444444444,0,0,0.010850694444444444,13.335503472222221,0)" xlink:href="#af"/></g><path fill="#3a414a" d="M617-1102c355 0 481 238 477 599H322c5 222 84 388 301 388 144 0 244-59 284-166l158 45C1002-72 854 20 623 20c-342 0-490-220-490-568 0-346 151-554 484-554zm291 461c-18-192-90-328-289-328-194 0-287 128-295 328h584" id="ag"/><path fill="#3a414a" d="M932 0L611-444 288 0H94l415-556-397-526h199l300 421 298-421h201L713-558 1133 0H932" id="ah"/><path fill="#3a414a" d="M631 20c-350 0-501-215-501-562 0-355 162-560 502-560 250 0 399 118 446 323l-192 14c-23-124-109-196-262-196-242 0-305 171-305 415 1 245 61 427 304 427 151 0 248-77 267-215l190 12C1039-107 883 20 631 20" id="ai"/><path fill="#3a414a" d="M528 20c-247 0-343-132-343-381v-721h180v686c-4 177 45 284 224 277 194-8 279-136 279-336v-627h181c3 360-6 732 6 1082H885c-4-54-7-126-8-185h-3C809-64 714 20 528 20" id="aj"/><path fill="#3a414a" d="M682 16c-209 0-323-80-324-285v-671H190v-142h170l58-282h120v282h432v142H538v652c2 114 60 155 182 155 106 0 209-16 297-34v137C921-4 806 16 682 16" id="ak"/><g id="n"><use transform="matrix(0.010850694444444444,0,0,0.010850694444444444,0,0)" xlink:href="#ag"/><use transform="matrix(0.010850694444444444,0,0,0.010850694444444444,13.335503472222221,0)" xlink:href="#ah"/><use transform="matrix(0.010850694444444444,0,0,0.010850694444444444,26.671006944444443,0)" xlink:href="#ag"/><use transform="matrix(0.010850694444444444,0,0,0.010850694444444444,40.006510416666664,0)" xlink:href="#ai"/><use transform="matrix(0.010850694444444444,0,0,0.010850694444444444,53.342013888888886,0)" xlink:href="#aj"/><use transform="matrix(0.010850694444444444,0,0,0.010850694444444444,66.67751736111111,0)" xlink:href="#ak"/><use transform="matrix(0.010850694444444444,0,0,0.010850694444444444,80.01302083333334,0)" xlink:href="#ag"/></g><path fill="#3a414a" d="M698-1104c312 3 392 244 392 558 0 315-82 566-392 566-169 0-277-65-331-184h-5c8 188 2 394 4 589H185V-858c0-76-1-156-6-224h175c6 52 9 120 10 178h4c58-122 150-202 330-200zm-49 991c225 0 255-203 255-433 0-225-32-419-253-419-236 0-285 192-285 441 0 237 53 411 283 411" id="al"/><path fill="#3a414a" d="M839-1102c70 0 148 7 206 17v167c-112-18-268-36-363 15-129 69-208 203-208 395V0H294c-10-367 32-789-52-1082h171c21 75 41 161 48 250h5c67-152 152-270 373-270" id="am"/><path fill="#3a414a" d="M715 0H502L69-1082h202c94 253 197 500 285 758 19 57 36 126 52 183 96-335 234-626 350-941h201" id="an"/><path fill="#3a414a" d="M650-1214c-281 0-336 244-336 533 0 295 60 546 347 546 188 0 263-142 322-282l159 65C1058-155 935 20 659 20c-401 0-546-295-546-701 0-407 135-689 536-689 264 0 391 146 466 335l-168 65c-47-129-127-244-297-244" id="ao"/><path fill="#3a414a" d="M615-1102c343 0 484 203 482 560-1 347-147 562-488 562-336 0-475-219-479-562-4-349 156-560 485-560zm-8 989c240 0 301-180 301-429 0-245-55-427-290-427-236 0-299 181-299 427 0 243 61 429 288 429" id="ap"/><path fill="#3a414a" d="M706-1102c241 0 344 136 343 381V0H868v-695c1-168-57-273-220-268-190 6-283 138-283 336V0H185c-3-360 6-732-6-1082h170c4 54 7 126 8 185h3c63-121 164-204 346-205" id="aq"/><g id="o"><use transform="matrix(0.010850694444444444,0,0,0.010850694444444444,0,0)" xlink:href="#al"/><use transform="matrix(0.010850694444444444,0,0,0.010850694444444444,13.335503472222221,0)" xlink:href="#am"/><use transform="matrix(0.010850694444444444,0,0,0.010850694444444444,26.671006944444443,0)" xlink:href="#ag"/><use transform="matrix(0.010850694444444444,0,0,0.010850694444444444,40.006510416666664,0)" xlink:href="#an"/><use transform="matrix(0.010850694444444444,0,0,0.010850694444444444,53.342013888888886,0)" xlink:href="#ao"/><use transform="matrix(0.010850694444444444,0,0,0.010850694444444444,66.67751736111111,0)" xlink:href="#ap"/><use transform="matrix(0.010850694444444444,0,0,0.010850694444444444,80.01302083333334,0)" xlink:href="#aq"/><use transform="matrix(0.010850694444444444,0,0,0.010850694444444444,93.34852430555557,0)" xlink:href="#ak"/><use transform="matrix(0.010850694444444444,0,0,0.010850694444444444,106.6840277777778,0)" xlink:href="#ag"/><use transform="matrix(0.010850694444444444,0,0,0.010850694444444444,120.01953125000003,0)" xlink:href="#aq"/><use transform="matrix(0.010850694444444444,0,0,0.010850694444444444,133.35503472222226,0)" xlink:href="#ak"/></g><path fill="#3a414a" d="M116-856v-148h995v148H116zm0 512v-148h995v148H116" id="ar"/><use transform="matrix(0.010850694444444444,0,0,0.010850694444444444,0,0)" xlink:href="#ar" id="p"/><path fill="#3a414a" d="M865-914c-3-187-2-380-2-570h180v1261c0 76 1 155 6 223H877c-8-49-9-116-10-174h-5C801-44 708 26 530 26c-135 0-234-46-297-139s-95-232-95-419c0-377 131-566 392-566 176 0 271 63 335 184zm-286-51c-222 0-255 197-255 427 0 229 31 425 253 425 237 0 286-195 286-441 0-238-52-411-284-411" id="as"/><path fill="#3a414a" d="M496 0v-299h235V0H496" id="at"/><path fill="#3a414a" d="M1048-32c-2 300-135 456-433 456-222-1-358-88-400-267l184-25c22 99 100 157 222 156 184-2 248-125 248-315 0-64 3-133-2-194C807-100 706-13 524-12c-306 0-381-228-381-537 0-318 85-550 400-550 164 0 271 83 325 202h3c1-60 3-134 12-185h171c-13 339-4 702-6 1050zM585-145c210-8 284-178 284-406 0-192-52-331-177-392-33-16-69-22-104-22-223 2-259 184-259 414 0 229 31 415 256 406" id="au"/><path fill="#3a414a" d="M891-1484c-201 251-362 514-362 954 0 441 161 704 362 955H701C500 176 342-90 342-532c0-440 159-704 359-952h190" id="av"/><path fill="#3a414a" d="M528-1484c201 248 357 511 357 952 0 442-156 709-357 957H336C537 174 700-89 700-530c0-440-163-703-364-954h192" id="aw"/><path fill="#3a414a" d="M387-205c6 188-6 358-80 466H182c51-74 97-148 97-262h-91v-205h199zM188-876v-205h199v205H188" id="ax"/><g id="q"><use transform="matrix(0.010850694444444444,0,0,0.010850694444444444,0,0)" xlink:href="#as"/><use transform="matrix(0.010850694444444444,0,0,0.010850694444444444,13.335503472222221,0)" xlink:href="#ap"/><use transform="matrix(0.010850694444444444,0,0,0.010850694444444444,26.671006944444443,0)" xlink:href="#ai"/><use transform="matrix(0.010850694444444444,0,0,0.010850694444444444,40.006510416666664,0)" xlink:href="#at"/><use transform="matrix(0.010850694444444444,0,0,0.010850694444444444,53.342013888888886,0)" xlink:href="#au"/><use transform="matrix(0.010850694444444444,0,0,0.010850694444444444,66.67751736111111,0)" xlink:href="#ag"/><use transform="matrix(0.010850694444444444,0,0,0.010850694444444444,80.01302083333334,0)" xlink:href="#ak"/><use transform="matrix(0.010850694444444444,0,0,0.010850694444444444,93.34852430555557,0)" xlink:href="#ao"/><use transform="matrix(0.010850694444444444,0,0,0.010850694444444444,106.6840277777778,0)" xlink:href="#ap"/><use transform="matrix(0.010850694444444444,0,0,0.010850694444444444,120.01953125000003,0)" xlink:href="#aq"/><use transform="matrix(0.010850694444444444,0,0,0.010850694444444444,133.35503472222226,0)" xlink:href="#ak"/><use transform="matrix(0.010850694444444444,0,0,0.010850694444444444,146.69053819444449,0)" xlink:href="#ag"/><use transform="matrix(0.010850694444444444,0,0,0.010850694444444444,160.0260416666667,0)" xlink:href="#aq"/><use transform="matrix(0.010850694444444444,0,0,0.010850694444444444,173.36154513888894,0)" xlink:href="#ak"/><use transform="matrix(0.010850694444444444,0,0,0.010850694444444444,186.69704861111117,0)" xlink:href="#av"/><use transform="matrix(0.010850694444444444,0,0,0.010850694444444444,200.0325520833334,0)" xlink:href="#aw"/><use transform="matrix(0.010850694444444444,0,0,0.010850694444444444,213.36805555555563,0)" xlink:href="#ax"/></g><path fill="#3a414a" d="M904-1102c199 0 220 177 220 381V0H956v-686c-3-114 0-215-60-264-70-33-125-4-158 71-26 56-39 140-39 252V0H531v-686c-3-114-1-215-61-264-78-41-136 24-157 84-24 69-39 159-39 259V0H105c-3-360 6-732-6-1082h149c6 50 3 123 8 175 36-100 83-195 216-195 135 0 166 79 196 196 42-105 93-196 236-196" id="ay"/><path fill="#3a414a" d="M1000-272c3 95 12 159 101 161 21 0 41-3 59-7V-6c-44 10-86 16-139 16-141 2-191-84-197-217h-6C748-76 648 20 446 20c-207 0-318-120-318-322 0-266 194-348 454-354l236-4c12-191-40-305-222-305-140 0-220 47-232 172l-188-17c33-204 181-292 423-292 255 0 401 118 401 364v466zm-683-27c0 109 63 184 175 182 166-3 259-96 306-217 24-65 20-120 20-200-232 7-501-28-501 235" id="az"/><path fill="#3a414a" d="M914 0L548-499l-132 98V0H236v-1484h180v927l475-525h211L663-617 1125 0H914" id="aA"/><path fill="#3a414a" d="M802-711c201 25 350 118 350 331C1152-95 921 0 634 0H162v-1349c401 9 908-74 908 327 0 184-111 275-268 311zm-224-69c174-2 300-51 300-218 0-163-124-198-302-198H353v416h225zM353-153c281-2 612 44 606-244-5-271-329-233-606-234v478" id="aB"/><path fill="#3a414a" d="M736-142h380V0H134v-142h422v-1200H267v-142h469v1342" id="aC"/><g id="r"><use transform="matrix(0.010850694444444444,0,0,0.010850694444444444,0,0)" xlink:href="#as"/><use transform="matrix(0.010850694444444444,0,0,0.010850694444444444,13.335503472222221,0)" xlink:href="#ap"/><use transform="matrix(0.010850694444444444,0,0,0.010850694444444444,26.671006944444443,0)" xlink:href="#ai"/><use transform="matrix(0.010850694444444444,0,0,0.010850694444444444,40.006510416666664,0)" xlink:href="#aj"/><use transform="matrix(0.010850694444444444,0,0,0.010850694444444444,53.342013888888886,0)" xlink:href="#ay"/><use transform="matrix(0.010850694444444444,0,0,0.010850694444444444,66.67751736111111,0)" xlink:href="#ag"/><use transform="matrix(0.010850694444444444,0,0,0.010850694444444444,80.01302083333334,0)" xlink:href="#aq"/><use transform="matrix(0.010850694444444444,0,0,0.010850694444444444,93.34852430555557,0)" xlink:href="#ak"/><use transform="matrix(0.010850694444444444,0,0,0.010850694444444444,106.6840277777778,0)" xlink:href="#at"/><use transform="matrix(0.010850694444444444,0,0,0.010850694444444444,120.01953125000003,0)" xlink:href="#ay"/><use transform="matrix(0.010850694444444444,0,0,0.010850694444444444,133.35503472222226,0)" xlink:href="#az"/><use transform="matrix(0.010850694444444444,0,0,0.010850694444444444,146.69053819444449,0)" xlink:href="#aA"/><use transform="matrix(0.010850694444444444,0,0,0.010850694444444444,160.0260416666667,0)" xlink:href="#ag"/><use transform="matrix(0.010850694444444444,0,0,0.010850694444444444,173.36154513888894,0)" xlink:href="#aB"/><use transform="matrix(0.010850694444444444,0,0,0.010850694444444444,186.69704861111117,0)" xlink:href="#ap"/><use transform="matrix(0.010850694444444444,0,0,0.010850694444444444,200.0325520833334,0)" xlink:href="#aC"/><use transform="matrix(0.010850694444444444,0,0,0.010850694444444444,213.36805555555563,0)" xlink:href="#as"/><use transform="matrix(0.010850694444444444,0,0,0.010850694444444444,226.70355902777786,0)" xlink:href="#av"/><use transform="matrix(0.010850694444444444,0,0,0.010850694444444444,240.03906250000006,0)" xlink:href="#aw"/><use transform="matrix(0.010850694444444444,0,0,0.010850694444444444,253.37456597222234,0)" xlink:href="#ax"/></g><path fill="#3a414a" d="M648-963c-190 6-283 138-283 336V0H185v-1484h181c-2 197 6 404-9 587h3c62-120 159-205 339-205 242 0 351 135 350 381V0H868v-695c1-168-57-273-220-268" id="aD"/><path fill="#3a414a" d="M745-142h380V0H143v-142h422v-798H246v-142h499v940zM545-1292v-192h200v192H545" id="aE"/><path fill="#3a414a" d="M873-819c-18-114-119-146-250-146-163 0-245 50-245 151 0 151 170 148 294 185 182 54 388 94 388 320 0 240-189 325-439 329-245 4-410-69-454-268l159-31c24 133 136 168 295 165 144-2 270-31 270-171 0-164-195-160-331-202-167-52-350-87-350-299 0-218 173-315 413-313 220 2 373 77 412 260" id="aF"/><path fill="#3a414a" d="M168 279c222 39 310-114 368-290L66-1082h192c120 299 249 590 362 896 115-301 235-597 351-896h190L705 0c-65 164-130 320-275 396-67 36-177 35-262 18V279" id="aG"/><g id="s"><use transform="matrix(0.010850694444444444,0,0,0.010850694444444444,0,0)" xlink:href="#aD"/><use transform="matrix(0.010850694444444444,0,0,0.010850694444444444,13.335503472222221,0)" xlink:href="#aE"/><use transform="matrix(0.010850694444444444,0,0,0.010850694444444444,26.671006944444443,0)" xlink:href="#aF"/><use transform="matrix(0.010850694444444444,0,0,0.010850694444444444,40.006510416666664,0)" xlink:href="#ak"/><use transform="matrix(0.010850694444444444,0,0,0.010850694444444444,53.342013888888886,0)" xlink:href="#ap"/><use transform="matrix(0.010850694444444444,0,0,0.010850694444444444,66.67751736111111,0)" xlink:href="#am"/><use transform="matrix(0.010850694444444444,0,0,0.010850694444444444,80.01302083333334,0)" xlink:href="#aG"/><use transform="matrix(0.010850694444444444,0,0,0.010850694444444444,93.34852430555557,0)" xlink:href="#at"/><use transform="matrix(0.010850694444444444,0,0,0.010850694444444444,106.6840277777778,0)" xlink:href="#al"/><use transform="matrix(0.010850694444444444,0,0,0.010850694444444444,120.01953125000003,0)" xlink:href="#aj"/><use transform="matrix(0.010850694444444444,0,0,0.010850694444444444,133.35503472222226,0)" xlink:href="#aF"/><use transform="matrix(0.010850694444444444,0,0,0.010850694444444444,146.69053819444449,0)" xlink:href="#aD"/><use transform="matrix(0.010850694444444444,0,0,0.010850694444444444,160.0260416666667,0)" xlink:href="#av"/><use transform="matrix(0.010850694444444444,0,0,0.010850694444444444,173.36154513888894,0)" xlink:href="#ak"/><use transform="matrix(0.010850694444444444,0,0,0.010850694444444444,186.69704861111117,0)" xlink:href="#aD"/><use transform="matrix(0.010850694444444444,0,0,0.010850694444444444,200.0325520833334,0)" xlink:href="#aE"/><use transform="matrix(0.010850694444444444,0,0,0.010850694444444444,213.36805555555563,0)" xlink:href="#aF"/><use transform="matrix(0.010850694444444444,0,0,0.010850694444444444,226.70355902777786,0)" xlink:href="#aw"/><use transform="matrix(0.010850694444444444,0,0,0.010850694444444444,240.03906250000006,0)" xlink:href="#ax"/></g><g id="t"><use transform="matrix(0.010850694444444444,0,0,0.010850694444444444,0,0)" xlink:href="#aj"/><use transform="matrix(0.010850694444444444,0,0,0.010850694444444444,13.335503472222221,0)" xlink:href="#aq"/><use transform="matrix(0.010850694444444444,0,0,0.010850694444444444,26.671006944444443,0)" xlink:href="#ag"/><use transform="matrix(0.010850694444444444,0,0,0.010850694444444444,40.006510416666664,0)" xlink:href="#ah"/><use transform="matrix(0.010850694444444444,0,0,0.010850694444444444,53.342013888888886,0)" xlink:href="#ag"/><use transform="matrix(0.010850694444444444,0,0,0.010850694444444444,66.67751736111111,0)" xlink:href="#ai"/><use transform="matrix(0.010850694444444444,0,0,0.010850694444444444,80.01302083333334,0)" xlink:href="#aj"/><use transform="matrix(0.010850694444444444,0,0,0.010850694444444444,93.34852430555557,0)" xlink:href="#ak"/><use transform="matrix(0.010850694444444444,0,0,0.010850694444444444,106.6840277777778,0)" xlink:href="#ag"/></g><g id="u"><use transform="matrix(0.010850694444444444,0,0,0.010850694444444444,0,0)" xlink:href="#as"/><use transform="matrix(0.010850694444444444,0,0,0.010850694444444444,13.335503472222221,0)" xlink:href="#ap"/><use transform="matrix(0.010850694444444444,0,0,0.010850694444444444,26.671006944444443,0)" xlink:href="#ai"/><use transform="matrix(0.010850694444444444,0,0,0.010850694444444444,40.006510416666664,0)" xlink:href="#aj"/><use transform="matrix(0.010850694444444444,0,0,0.010850694444444444,53.342013888888886,0)" xlink:href="#ay"/><use transform="matrix(0.010850694444444444,0,0,0.010850694444444444,66.67751736111111,0)" xlink:href="#ag"/><use transform="matrix(0.010850694444444444,0,0,0.010850694444444444,80.01302083333334,0)" xlink:href="#aq"/><use transform="matrix(0.010850694444444444,0,0,0.010850694444444444,93.34852430555557,0)" xlink:href="#ak"/><use transform="matrix(0.010850694444444444,0,0,0.010850694444444444,106.6840277777778,0)" xlink:href="#at"/><use transform="matrix(0.010850694444444444,0,0,0.010850694444444444,120.01953125000003,0)" xlink:href="#aF"/><use transform="matrix(0.010850694444444444,0,0,0.010850694444444444,133.35503472222226,0)" xlink:href="#ag"/><use transform="matrix(0.010850694444444444,0,0,0.010850694444444444,146.69053819444449,0)" xlink:href="#ak"/><use transform="matrix(0.010850694444444444,0,0,0.010850694444444444,160.0260416666667,0)" xlink:href="#ao"/><use transform="matrix(0.010850694444444444,0,0,0.010850694444444444,173.36154513888894,0)" xlink:href="#ap"/><use transform="matrix(0.010850694444444444,0,0,0.010850694444444444,186.69704861111117,0)" xlink:href="#aq"/><use transform="matrix(0.010850694444444444,0,0,0.010850694444444444,200.0325520833334,0)" xlink:href="#ak"/><use transform="matrix(0.010850694444444444,0,0,0.010850694444444444,213.36805555555563,0)" xlink:href="#ag"/><use transform="matrix(0.010850694444444444,0,0,0.010850694444444444,226.70355902777786,0)" xlink:href="#aq"/><use transform="matrix(0.010850694444444444,0,0,0.010850694444444444,240.03906250000006,0)" xlink:href="#ak"/><use transform="matrix(0.010850694444444444,0,0,0.010850694444444444,253.37456597222234,0)" xlink:href="#av"/><use transform="matrix(0.010850694444444444,0,0,0.010850694444444444,266.7100694444445,0)" xlink:href="#al"/><use transform="matrix(0.010850694444444444,0,0,0.010850694444444444,280.04557291666674,0)" xlink:href="#am"/><use transform="matrix(0.010850694444444444,0,0,0.010850694444444444,293.38107638888897,0)" xlink:href="#ag"/><use transform="matrix(0.010850694444444444,0,0,0.010850694444444444,306.7165798611112,0)" xlink:href="#an"/><use transform="matrix(0.010850694444444444,0,0,0.010850694444444444,320.0520833333334,0)" xlink:href="#ao"/><use transform="matrix(0.010850694444444444,0,0,0.010850694444444444,333.38758680555566,0)" xlink:href="#ap"/><use transform="matrix(0.010850694444444444,0,0,0.010850694444444444,346.7230902777779,0)" xlink:href="#aq"/><use transform="matrix(0.010850694444444444,0,0,0.010850694444444444,360.05859375000017,0)" xlink:href="#ak"/><use transform="matrix(0.010850694444444444,0,0,0.010850694444444444,373.39409722222234,0)" xlink:href="#ag"/><use transform="matrix(0.010850694444444444,0,0,0.010850694444444444,386.72960069444457,0)" xlink:href="#aq"/><use transform="matrix(0.010850694444444444,0,0,0.010850694444444444,400.0651041666668,0)" xlink:href="#ak"/><use transform="matrix(0.010850694444444444,0,0,0.010850694444444444,413.400607638889,0)" xlink:href="#aw"/><use transform="matrix(0.010850694444444444,0,0,0.010850694444444444,426.73611111111126,0)" xlink:href="#ax"/></g><g id="v"><use transform="matrix(0.06172839506172839,0,0,0.06172839506172839,0,0)" xlink:href="#A"/><use transform="matrix(0.06172839506172839,0,0,0.06172839506172839,15.987654320987653,0)" xlink:href="#B"/><use transform="matrix(0.06172839506172839,0,0,0.06172839506172839,28.333333333333332,0)" xlink:href="#C"/><use transform="matrix(0.06172839506172839,0,0,0.06172839506172839,40.67901234567901,0)" xlink:href="#D"/><use transform="matrix(0.06172839506172839,0,0,0.06172839506172839,53.02469135802469,0)" xlink:href="#I"/><use transform="matrix(0.06172839506172839,0,0,0.06172839506172839,69.01234567901234,0)" xlink:href="#D"/><use transform="matrix(0.06172839506172839,0,0,0.06172839506172839,81.35802469135803,0)" xlink:href="#J"/><use transform="matrix(0.06172839506172839,0,0,0.06172839506172839,99.81481481481481,0)" xlink:href="#J"/><use transform="matrix(0.06172839506172839,0,0,0.06172839506172839,118.2716049382716,0)" xlink:href="#E"/><use transform="matrix(0.06172839506172839,0,0,0.06172839506172839,130.61728395061726,0)" xlink:href="#B"/><use transform="matrix(0.06172839506172839,0,0,0.06172839506172839,142.96296296296293,0)" xlink:href="#C"/></g><g id="w"><use transform="matrix(0.010850694444444444,0,0,0.010850694444444444,0,0)" xlink:href="#aC"/><use transform="matrix(0.010850694444444444,0,0,0.010850694444444444,13.335503472222221,0)" xlink:href="#az"/><use transform="matrix(0.010850694444444444,0,0,0.010850694444444444,26.671006944444443,0)" xlink:href="#aF"/><use transform="matrix(0.010850694444444444,0,0,0.010850694444444444,40.006510416666664,0)" xlink:href="#ak"/></g><g id="x"><use transform="matrix(0.010850694444444444,0,0,0.010850694444444444,0,0)" xlink:href="#aD"/><use transform="matrix(0.010850694444444444,0,0,0.010850694444444444,13.335503472222221,0)" xlink:href="#aE"/><use transform="matrix(0.010850694444444444,0,0,0.010850694444444444,26.671006944444443,0)" xlink:href="#aF"/><use transform="matrix(0.010850694444444444,0,0,0.010850694444444444,40.006510416666664,0)" xlink:href="#ak"/><use transform="matrix(0.010850694444444444,0,0,0.010850694444444444,53.342013888888886,0)" xlink:href="#ap"/><use transform="matrix(0.010850694444444444,0,0,0.010850694444444444,66.67751736111111,0)" xlink:href="#am"/><use transform="matrix(0.010850694444444444,0,0,0.010850694444444444,80.01302083333334,0)" xlink:href="#aG"/><use transform="matrix(0.010850694444444444,0,0,0.010850694444444444,93.34852430555557,0)" xlink:href="#at"/><use transform="matrix(0.010850694444444444,0,0,0.010850694444444444,106.6840277777778,0)" xlink:href="#al"/><use transform="matrix(0.010850694444444444,0,0,0.010850694444444444,120.01953125000003,0)" xlink:href="#ap"/><use transform="matrix(0.010850694444444444,0,0,0.010850694444444444,133.35503472222226,0)" xlink:href="#al"/><use transform="matrix(0.010850694444444444,0,0,0.010850694444444444,146.69053819444449,0)" xlink:href="#av"/><use transform="matrix(0.010850694444444444,0,0,0.010850694444444444,160.0260416666667,0)" xlink:href="#aw"/><use transform="matrix(0.010850694444444444,0,0,0.010850694444444444,173.36154513888894,0)" xlink:href="#ax"/></g><g id="y"><use transform="matrix(0.010850694444444444,0,0,0.010850694444444444,0,0)" xlink:href="#aC"/><use transform="matrix(0.010850694444444444,0,0,0.010850694444444444,13.335503472222221,0)" xlink:href="#az"/><use transform="matrix(0.010850694444444444,0,0,0.010850694444444444,26.671006944444443,0)" xlink:href="#aF"/><use transform="matrix(0.010850694444444444,0,0,0.010850694444444444,40.006510416666664,0)" xlink:href="#ak"/><use transform="matrix(0.010850694444444444,0,0,0.010850694444444444,53.342013888888886,0)" xlink:href="#at"/><use transform="matrix(0.010850694444444444,0,0,0.010850694444444444,66.67751736111111,0)" xlink:href="#aj"/><use transform="matrix(0.010850694444444444,0,0,0.010850694444444444,80.01302083333334,0)" xlink:href="#aq"/><use transform="matrix(0.010850694444444444,0,0,0.010850694444444444,93.34852430555557,0)" xlink:href="#ag"/><use transform="matrix(0.010850694444444444,0,0,0.010850694444444444,106.6840277777778,0)" xlink:href="#ah"/><use transform="matrix(0.010850694444444444,0,0,0.010850694444444444,120.01953125000003,0)" xlink:href="#ag"/><use transform="matrix(0.010850694444444444,0,0,0.010850694444444444,133.35503472222226,0)" xlink:href="#ai"/><use transform="matrix(0.010850694444444444,0,0,0.010850694444444444,146.69053819444449,0)" xlink:href="#aj"/><use transform="matrix(0.010850694444444444,0,0,0.010850694444444444,160.0260416666667,0)" xlink:href="#ak"/><use transform="matrix(0.010850694444444444,0,0,0.010850694444444444,173.36154513888894,0)" xlink:href="#ag"/><use transform="matrix(0.010850694444444444,0,0,0.010850694444444444,186.69704861111117,0)" xlink:href="#av"/><use transform="matrix(0.010850694444444444,0,0,0.010850694444444444,200.0325520833334,0)" xlink:href="#aw"/><use transform="matrix(0.010850694444444444,0,0,0.010850694444444444,213.36805555555563,0)" xlink:href="#ax"/></g></defs></g></svg>